CommonSans-Thin.ufo
<glyph name="exclam" format="2">
  <advance width="190"/>
  <unicode hex="0021"/>
  <outline>
    <component base="period" xOffset="6"/>
    <contour>
      <point x="84" y="440" type="line"/>
      <point x="84" y="686" type="line"/>
      <point x="106" y="686" type="line"/>
      <point x="106" y="440" type="line"/>
      <point x="101" y="155" type="line"/>
      <point x="89" y="155" type="line"/>
    </contour>
  </outline>
</glyph>
<glyph name="quotedbl" format="2">
  <advance width="290"/>
  <unicode hex="0022"/>
  <outline>
    <contour>
      <point x="160" y="580" type="line"/>
      <point x="160" y="670" type="line"/>
      <point x="240" y="670" type="line"/>
      <point x="240" y="580" type="line"/>
      <point x="220" y="450" type="line"/>
      <point x="180" y="450" type="line"/>
    </contour>
    <contour>
      <point x="50" y="580" type="line"/>
      <point x="50" y="670" type="line"/>
      <point x="130" y="670" type="line"/>
      <point x="130" y="580" type="line"/>
      <point x="110" y="450" type="line"/>
      <point x="70" y="450" type="line"/>
    </contour>
  </outline>
</glyph>
<glyph name="numbersign" format="2">
  <advance width="579"/>
  <unicode hex="0023"/>
  <outline>
    <contour>
      <point x="24" y="202" type="line"/>
      <point x="24" y="222" type="line"/>
      <point x="145" y="222" type="line"/>
      <point x="196" y="450" type="line"/>
      <point x="61" y="450" type="line"/>
      <point x="61" y="470" type="line"/>
      <point x="201" y="470" type="line"/>
      <point x="246" y="700" type="line"/>
      <point x="268" y="700" type="line"/>
      <point x="221" y="470" type="line"/>
      <point x="391" y="470" type="line"/>
      <point x="439" y="700" type="line"/>
      <point x="461" y="700" type="line"/>
      <point x="412" y="470" type="line"/>
      <point x="552" y="470" type="line"/>
      <point x="552" y="450" type="line"/>
      <point x="408" y="450" type="line"/>
      <point x="362" y="222" type="line"/>
      <point x="515" y="222" type="line"/>
      <point x="515" y="202" type="line"/>
      <point x="358" y="202" type="line"/>
      <point x="316" y="0" type="line"/>
      <point x="290" y="0" type="line"/>
      <point x="334" y="202" type="line"/>
      <point x="165" y="202" type="line"/>
      <point x="123" y="0" type="line"/>
      <point x="97" y="0" type="line"/>
      <point x="141" y="202" type="line"/>
    </contour>
    <contour>
      <point x="169" y="222" type="line"/>
      <point x="338" y="222" type="line"/>
      <point x="387" y="450" type="line"/>
      <point x="217" y="450" type="line"/>
    </contour>
  </outline>
</glyph>
<glyph name="dollar" format="2">
  <advance width="582"/>
  <unicode hex="0024"/>
  <outline>
    <contour>
      <point x="261" y="-80" type="line"/>
      <point x="281" y="-80" type="line"/>
      <point x="281" y="780" type="line"/>
      <point x="261" y="780" type="line"/>
    </contour>
    <contour>
      <point x="500" y="171" type="curve" smooth="yes"/>
      <point x="500" y="282"/>
      <point x="418" y="333"/>
      <point x="301" y="351" type="curve" smooth="yes"/>
      <point x="243" y="360" type="line" smooth="yes"/>
      <point x="133" y="377"/>
      <point x="81" y="417"/>
      <point x="81" y="515" type="curve" smooth="yes"/>
      <point x="81" y="612"/>
      <point x="147" y="678"/>
      <point x="257" y="678" type="curve" smooth="yes"/>
      <point x="268" y="678" type="line"/>
      <point x="268" y="698" type="line"/>
      <point x="260" y="698" type="line" smooth="yes"/>
      <point x="135" y="698"/>
      <point x="59" y="623"/>
      <point x="59" y="515" type="curve" smooth="yes"/>
      <point x="59" y="402"/>
      <point x="120" y="359"/>
      <point x="254" y="338" type="curve" smooth="yes"/>
      <point x="292" y="332" type="line" smooth="yes"/>
      <point x="418" y="312"/>
      <point x="478" y="260"/>
      <point x="478" y="171" type="curve" smooth="yes"/>
      <point x="478" y="50"/>
      <point x="360" y="12"/>
      <point x="281" y="12" type="curve" smooth="yes"/>
      <point x="278" y="12" type="line"/>
      <point x="278" y="-8" type="line"/>
      <point x="281" y="-8" type="line" smooth="yes"/>
      <point x="380" y="-8"/>
      <point x="500" y="36"/>
    </contour>
    <contour>
      <point x="278" y="678" type="line"/>
      <point x="280" y="678" type="line" smooth="yes"/>
      <point x="396" y="678"/>
      <point x="477" y="614"/>
      <point x="477" y="522" type="curve"/>
      <point x="499" y="522" type="line"/>
      <point x="499" y="638"/>
      <point x="396" y="698"/>
      <point x="280" y="698" type="curve" smooth="yes"/>
      <point x="278" y="698" type="line"/>
    </contour>
    <contour>
      <point x="265" y="12" type="line"/>
      <point x="266" y="12" type="line"/>
      <point x="155" y="12"/>
      <point x="70" y="91"/>
      <point x="70" y="194" type="curve"/>
      <point x="48" y="194" type="line"/>
      <point x="48" y="79"/>
      <point x="141" y="-8"/>
      <point x="262" y="-8" type="curve" smooth="yes"/>
      <point x="265" y="-8" type="line"/>
    </contour>
  </outline>
</glyph>
<glyph name="ampersand" format="2">
  <advance width="699"/>
  <unicode hex="0026"/>
  <outline>
    <contour>
      <point x="540" y="330" type="line"/>
      <point x="531" y="135"/>
      <point x="411" y="8"/>
      <point x="279" y="8" type="curve" smooth="yes"/>
      <point x="180" y="8"/>
      <point x="100" y="91"/>
      <point x="100" y="200" type="curve" smooth="yes"/>
      <point x="100" y="274"/>
      <point x="135" y="327"/>
      <point x="268" y="402" type="curve" smooth="yes"/>
      <point x="325" y="434" type="line" smooth="yes"/>
      <point x="376" y="463"/>
      <point x="435" y="500"/>
      <point x="435" y="574" type="curve" smooth="yes"/>
      <point x="435" y="656"/>
      <point x="380" y="710"/>
      <point x="303" y="710" type="curve" smooth="yes"/>
      <point x="216" y="710"/>
      <point x="154" y="646"/>
      <point x="154" y="576" type="curve" smooth="yes"/>
      <point x="154" y="540"/>
      <point x="166" y="512"/>
      <point x="224" y="443" type="curve" smooth="yes"/>
      <point x="600" y="0" type="line"/>
      <point x="632" y="0" type="line"/>
      <point x="236" y="456" type="line" smooth="yes"/>
      <point x="183" y="517"/>
      <point x="174" y="540"/>
      <point x="174" y="575" type="curve" smooth="yes"/>
      <point x="174" y="639"/>
      <point x="226" y="692"/>
      <point x="303" y="692" type="curve" smooth="yes"/>
      <point x="367" y="692"/>
      <point x="415" y="642"/>
      <point x="415" y="573" type="curve" smooth="yes"/>
      <point x="415" y="511"/>
      <point x="370" y="479"/>
      <point x="304" y="442" type="curve" smooth="yes"/>
      <point x="247" y="410" type="line" smooth="yes"/>
      <point x="119" y="338"/>
      <point x="80" y="284"/>
      <point x="80" y="192" type="curve" smooth="yes"/>
      <point x="80" y="77"/>
      <point x="165" y="-10"/>
      <point x="276" y="-10" type="curve" smooth="yes"/>
      <point x="441" y="-10"/>
      <point x="551" y="140"/>
      <point x="560" y="330" type="curve"/>
    </contour>
  </outline>
  <guideline angle="209.31" x="292" y="435"/>
  <guideline angle="29.31" x="283" y="405"/>
  <guideline angle="310.415" x="233" y="431"/>
  <guideline angle="130.979" x="632" y="-0"/>
</glyph>
<glyph name="quotesingle" format="2">
  <advance width="180"/>
  <unicode hex="0027"/>
  <outline>
    <contour>
      <point x="79" y="580" type="line"/>
      <point x="79" y="670" type="line"/>
      <point x="101" y="670" type="line"/>
      <point x="101" y="580" type="line"/>
      <point x="98" y="450" type="line"/>
      <point x="82" y="450" type="line"/>
    </contour>
  </outline>
</glyph>
<glyph name="parenleft" format="2">
  <advance width="241"/>
  <unicode hex="0028"/>
  <outline>
    <contour>
      <point x="40" y="230" type="curve" smooth="yes"/>
      <point x="40" y="355"/>
      <point x="64" y="471"/>
      <point x="130" y="616" type="curve" smooth="yes"/>
      <point x="139" y="637"/>
      <point x="150" y="658"/>
      <point x="161" y="680" type="curve"/>
      <point x="176" y="680" type="line"/>
      <point x="167" y="664"/>
      <point x="161" y="649"/>
      <point x="149" y="623" type="curve" smooth="yes"/>
      <point x="91" y="496"/>
      <point x="60" y="359"/>
      <point x="60" y="230" type="curve" smooth="yes"/>
      <point x="60" y="89"/>
      <point x="103" y="-33"/>
      <point x="171" y="-180" type="curve"/>
      <point x="154" y="-180"/>
      <point x="167" y="-180"/>
      <point x="150" y="-180" type="curve"/>
      <point x="127" y="-125" type="line" smooth="yes"/>
      <point x="82" y="-14"/>
      <point x="40" y="109"/>
    </contour>
  </outline>
</glyph>
<glyph name="parenright" format="2">
  <advance width="241"/>
  <unicode hex="0029"/>
  <outline>
    <contour>
      <point x="176" y="230" type="curve" smooth="yes"/>
      <point x="176" y="355"/>
      <point x="152" y="471"/>
      <point x="86" y="616" type="curve" smooth="yes"/>
      <point x="77" y="637"/>
      <point x="66" y="658"/>
      <point x="55" y="680" type="curve"/>
      <point x="40" y="680" type="line"/>
      <point x="49" y="664"/>
      <point x="55" y="649"/>
      <point x="67" y="623" type="curve" smooth="yes"/>
      <point x="125" y="496"/>
      <point x="156" y="359"/>
      <point x="156" y="230" type="curve" smooth="yes"/>
      <point x="156" y="89"/>
      <point x="113" y="-33"/>
      <point x="45" y="-180" type="curve"/>
      <point x="66" y="-180" type="line"/>
      <point x="89" y="-125" type="line" smooth="yes"/>
      <point x="134" y="-14"/>
      <point x="176" y="109"/>
    </contour>
  </outline>
</glyph>
<glyph name="asterisk" format="2">
  <advance width="561"/>
  <unicode hex="002A"/>
  <outline>
    <contour>
      <point x="80" y="802" type="line"/>
      <point x="261" y="679" type="line"/>
      <point x="264" y="684" type="line"/>
      <point x="92" y="818" type="line"/>
    </contour>
    <contour>
      <point x="92" y="546" type="line"/>
      <point x="265" y="680" type="line"/>
      <point x="261" y="685" type="line"/>
      <point x="81" y="562" type="line"/>
    </contour>
    <contour>
      <point x="340" y="478" type="line"/>
      <point x="266" y="683" type="line"/>
      <point x="261" y="681" type="line"/>
      <point x="321" y="471" type="line"/>
    </contour>
    <contour>
      <point x="481" y="692" type="line"/>
      <point x="263" y="685" type="line"/>
      <point x="263" y="679" type="line"/>
      <point x="481" y="672" type="line"/>
    </contour>
    <contour>
      <point x="321" y="892" type="line"/>
      <point x="260" y="683" type="line"/>
      <point x="266" y="681" type="line"/>
      <point x="340" y="886" type="line"/>
    </contour>
  </outline>
  <guideline angle="0" x="0" y="252"/>
</glyph>
<glyph name="plus" format="2">
  <advance width="450"/>
  <unicode hex="002B"/>
  <outline>
    <contour>
      <point x="50" y="249" type="line"/>
      <point x="50" y="231" type="line"/>
      <point x="400" y="231" type="line"/>
      <point x="400" y="249" type="line"/>
    </contour>
    <contour>
      <point x="215" y="65" type="line"/>
      <point x="235" y="65" type="line"/>
      <point x="235" y="415" type="line"/>
      <point x="215" y="415" type="line"/>
    </contour>
  </outline>
</glyph>
<glyph name="comma" format="2">
  <advance width="160"/>
  <unicode hex="002C"/>
  <outline>
    <contour>
      <point x="78" y="0" type="line"/>
      <point x="78" y="80" type="line"/>
      <point x="100" y="80" type="line"/>
      <point x="100" y="4" type="line"/>
      <point x="70" y="-130" type="line"/>
      <point x="60" y="-130" type="line"/>
      <point x="87" y="0" type="line"/>
    </contour>
  </outline>
</glyph>
<glyph name="hyphen" format="2">
  <advance width="320"/>
  <unicode hex="002D"/>
  <outline>
    <contour>
      <point x="50" y="232" type="line"/>
      <point x="50" y="254" type="line"/>
      <point x="270" y="254" type="line"/>
      <point x="270" y="232" type="line"/>
    </contour>
  </outline>
</glyph>
<glyph name="period" format="2">
  <advance width="180"/>
  <unicode hex="002E"/>
  <outline>
    <contour>
      <point x="80" y="0" type="line"/>
      <point x="80" y="80" type="line"/>
      <point x="100" y="80" type="line"/>
      <point x="100" y="0" type="line"/>
    </contour>
  </outline>
</glyph>
<glyph name="zero" format="2">
  <advance width="540"/>
  <unicode hex="0030"/>
  <outline>
    <contour>
      <point x="36" y="350" type="curve" smooth="yes"/>
      <point x="36" y="601"/>
      <point x="106" y="710"/>
      <point x="270" y="710" type="curve" smooth="yes"/>
      <point x="433" y="710"/>
      <point x="503" y="602"/>
      <point x="503" y="350" type="curve" smooth="yes"/>
      <point x="503" y="98"/>
      <point x="433" y="-10"/>
      <point x="270" y="-10" type="curve" smooth="yes"/>
      <point x="106" y="-10"/>
      <point x="36" y="99"/>
    </contour>
    <contour>
      <point x="58" y="350" type="curve" smooth="yes"/>
      <point x="58" y="113"/>
      <point x="122" y="10"/>
      <point x="270" y="10" type="curve" smooth="yes"/>
      <point x="417" y="10"/>
      <point x="481" y="112"/>
      <point x="481" y="350" type="curve" smooth="yes"/>
      <point x="481" y="586"/>
      <point x="416" y="690"/>
      <point x="270" y="690" type="curve" smooth="yes"/>
      <point x="120" y="690"/>
      <point x="58" y="590"/>
    </contour>
  </outline>
</glyph>
<glyph name="one" format="2">
  <advance width="327"/>
  <unicode hex="0031"/>
  <outline>
    <contour>
      <point x="70" y="614" type="curve"/>
      <point x="70" y="634" type="line"/>
      <point x="115" y="635"/>
      <point x="155" y="657"/>
      <point x="190" y="700" type="curve"/>
      <point x="209" y="700" type="line"/>
      <point x="209" y="0" type="line"/>
      <point x="187" y="0" type="line"/>
      <point x="187" y="580" type="line" smooth="yes"/>
      <point x="187" y="600"/>
      <point x="187" y="645"/>
      <point x="187" y="665" type="curve"/>
      <point x="153" y="631"/>
      <point x="117" y="615"/>
    </contour>
  </outline>
</glyph>
<glyph name="two" format="2">
  <advance width="527"/>
  <unicode hex="0032"/>
  <outline>
    <contour>
      <point x="51" y="0" type="line"/>
      <point x="507" y="0" type="line"/>
      <point x="507" y="20" type="line"/>
      <point x="72" y="20" type="line"/>
      <point x="75" y="13" type="line"/>
      <point x="243" y="161"/>
      <point x="484" y="323"/>
      <point x="484" y="483" type="curve" smooth="yes"/>
      <point x="484" y="625"/>
      <point x="374" y="688"/>
      <point x="269" y="688" type="curve" smooth="yes"/>
      <point x="141" y="688"/>
      <point x="30" y="593"/>
      <point x="30" y="457" type="curve"/>
      <point x="50" y="457" type="line"/>
      <point x="50" y="575"/>
      <point x="142" y="666"/>
      <point x="269" y="666" type="curve" smooth="yes"/>
      <point x="372" y="666"/>
      <point x="464" y="603"/>
      <point x="464" y="483" type="curve" smooth="yes"/>
      <point x="464" y="345"/>
      <point x="233" y="179"/>
      <point x="51" y="21" type="curve"/>
    </contour>
  </outline>
</glyph>
<glyph name="three" format="2">
  <advance width="520"/>
  <unicode hex="0033"/>
  <outline>
    <contour>
      <point x="40" y="160" type="curve"/>
      <point x="126" y="160" type="line"/>
      <point x="126" y="141"/>
      <point x="132" y="126"/>
      <point x="142" y="114" type="curve" smooth="yes"/>
      <point x="171" y="78"/>
      <point x="230" y="70"/>
      <point x="250" y="70" type="curve" smooth="yes"/>
      <point x="319" y="70"/>
      <point x="390" y="103"/>
      <point x="390" y="200" type="curve" smooth="yes"/>
      <point x="390" y="315"/>
      <point x="318" y="337"/>
      <point x="235" y="337" type="curve" smooth="yes"/>
      <point x="189" y="337" type="line"/>
      <point x="189" y="417" type="line"/>
      <point x="235" y="417" type="line" smooth="yes"/>
      <point x="309" y="417"/>
      <point x="340" y="433"/>
      <point x="340" y="532" type="curve" smooth="yes"/>
      <point x="340" y="589"/>
      <point x="299" y="630"/>
      <point x="232" y="630" type="curve"/>
      <point x="230" y="630" type="line"/>
      <point x="175" y="630"/>
      <point x="126" y="601"/>
      <point x="126" y="551" type="curve"/>
      <point x="40" y="551" type="line"/>
      <point x="40" y="567"/>
      <point x="42" y="581"/>
      <point x="46" y="595" type="curve" smooth="yes"/>
      <point x="66" y="664"/>
      <point x="133" y="710"/>
      <point x="230" y="710" type="curve" smooth="yes"/>
      <point x="354" y="710"/>
      <point x="430" y="650"/>
      <point x="430" y="532" type="curve" smooth="yes"/>
      <point x="430" y="470"/>
      <point x="398" y="414"/>
      <point x="338" y="384" type="curve"/>
      <point x="416" y="370"/>
      <point x="480" y="324"/>
      <point x="480" y="200" type="curve" smooth="yes"/>
      <point x="480" y="53"/>
      <point x="378" y="-10"/>
      <point x="250" y="-10" type="curve" smooth="yes"/>
      <point x="190" y="-10"/>
      <point x="79" y="11"/>
      <point x="48" y="106" type="curve" smooth="yes"/>
      <point x="43" y="122"/>
      <point x="40" y="140"/>
    </contour>
  </outline>
</glyph>
<glyph name="four" format="2">
  <advance width="501"/>
  <unicode hex="0034"/>
  <outline>
    <contour>
      <point x="30" y="184" type="line"/>
      <point x="471" y="184" type="line"/>
      <point x="471" y="204" type="line"/>
      <point x="44" y="204" type="line"/>
      <point x="44" y="188" type="line"/>
      <point x="406" y="665" type="line"/>
      <point x="391" y="669" type="line"/>
      <point x="391" y="0" type="line"/>
      <point x="413" y="0" type="line"/>
      <point x="413" y="680" type="line"/>
      <point x="390" y="680" type="line"/>
      <point x="30" y="206" type="line"/>
    </contour>
  </outline>
</glyph>
<glyph name="five" format="2">
  <advance width="490"/>
  <unicode hex="0035"/>
  <outline>
    <contour>
      <point x="30" y="146" type="line"/>
      <point x="30" y="65"/>
      <point x="127" y="-10"/>
      <point x="232" y="-10" type="curve" smooth="yes"/>
      <point x="365" y="-10"/>
      <point x="450" y="82"/>
      <point x="450" y="226" type="curve" smooth="yes"/>
      <point x="450" y="361"/>
      <point x="370" y="451"/>
      <point x="240" y="451" type="curve" smooth="yes"/>
      <point x="182" y="451"/>
      <point x="115" y="425"/>
      <point x="88" y="387" type="curve"/>
      <point x="105" y="383" type="line"/>
      <point x="105" y="675" type="line"/>
      <point x="90" y="660" type="line"/>
      <point x="424" y="660" type="line"/>
      <point x="424" y="680" type="line"/>
      <point x="83" y="680" type="line"/>
      <point x="83" y="375" type="line"/>
      <point x="104" y="375" type="line"/>
      <point x="127" y="409"/>
      <point x="185" y="431"/>
      <point x="240" y="431" type="curve" smooth="yes"/>
      <point x="356" y="431"/>
      <point x="428" y="348"/>
      <point x="428" y="226" type="curve" smooth="yes"/>
      <point x="428" y="96"/>
      <point x="350" y="10"/>
      <point x="232" y="10" type="curve" smooth="yes"/>
      <point x="144" y="10"/>
      <point x="52" y="80"/>
      <point x="52" y="146" type="curve"/>
    </contour>
  </outline>
</glyph>
<glyph name="six" format="2">
  <advance width="528"/>
  <unicode hex="0036"/>
  <outline>
    <contour>
      <point x="61" y="230" type="curve"/>
      <point x="64" y="155"/>
      <point x="99" y="10"/>
      <point x="266" y="10" type="curve" smooth="yes"/>
      <point x="360" y="10"/>
      <point x="467" y="76"/>
      <point x="467" y="224" type="curve" smooth="yes"/>
      <point x="467" y="348"/>
      <point x="386" y="433"/>
      <point x="274" y="433" type="curve" smooth="yes"/>
      <point x="271" y="433" type="line"/>
      <point x="168" y="434"/>
      <point x="61" y="352"/>
      <point x="61" y="232" type="curve"/>
      <point x="61" y="231"/>
      <point x="61" y="231"/>
    </contour>
    <contour>
      <point x="36" y="300" type="curve" smooth="yes"/>
      <point x="36" y="539"/>
      <point x="86" y="700"/>
      <point x="266" y="700" type="curve" smooth="yes"/>
      <point x="377" y="700"/>
      <point x="435" y="656"/>
      <point x="467" y="573" type="curve"/>
      <point x="464" y="573"/>
      <point x="448" y="572"/>
      <point x="445" y="572" type="curve"/>
      <point x="428" y="603"/>
      <point x="402" y="680"/>
      <point x="266" y="680" type="curve" smooth="yes"/>
      <point x="162" y="680"/>
      <point x="59" y="626"/>
      <point x="59" y="322" type="curve"/>
      <point x="60" y="322"/>
      <point x="61" y="322"/>
      <point x="62" y="322" type="curve"/>
      <point x="94" y="398"/>
      <point x="177" y="454"/>
      <point x="275" y="453" type="curve" smooth="yes"/>
      <point x="393" y="452"/>
      <point x="489" y="372"/>
      <point x="489" y="223" type="curve" smooth="yes"/>
      <point x="489" y="81"/>
      <point x="395" y="-10"/>
      <point x="266" y="-10" type="curve" smooth="yes"/>
      <point x="86" y="-10"/>
      <point x="36" y="119"/>
    </contour>
  </outline>
</glyph>
<glyph name="seven" format="2">
  <advance width="560"/>
  <unicode hex="0037"/>
  <outline>
    <contour>
      <point x="50" y="678" type="line"/>
      <point x="50" y="701" type="line"/>
      <point x="476" y="701" type="line"/>
      <point x="476" y="679" type="line"/>
      <point x="382" y="565"/>
      <point x="236" y="379"/>
      <point x="236" y="0" type="curve"/>
      <point x="225" y="0" type="line"/>
      <point x="214" y="0" type="line"/>
      <point x="215" y="283"/>
      <point x="288" y="486"/>
      <point x="446" y="678" type="curve"/>
    </contour>
  </outline>
</glyph>
<glyph name="eight" format="2">
  <advance width="510"/>
  <unicode hex="0038"/>
  <outline>
    <contour>
      <point x="50" y="174" type="curve" smooth="yes"/>
      <point x="50" y="62"/>
      <point x="144" y="-10"/>
      <point x="255" y="-10" type="curve" smooth="yes"/>
      <point x="367" y="-10"/>
      <point x="460" y="61"/>
      <point x="460" y="174" type="curve" smooth="yes"/>
      <point x="460" y="266"/>
      <point x="414" y="328"/>
      <point x="318" y="353" type="curve"/>
      <point x="320" y="348" type="line"/>
      <point x="393" y="370"/>
      <point x="447" y="424"/>
      <point x="447" y="516" type="curve" smooth="yes"/>
      <point x="447" y="619"/>
      <point x="382" y="688"/>
      <point x="255" y="688" type="curve" smooth="yes"/>
      <point x="136" y="688"/>
      <point x="60" y="622"/>
      <point x="60" y="510" type="curve" smooth="yes"/>
      <point x="60" y="427"/>
      <point x="102" y="368"/>
      <point x="177" y="345" type="curve"/>
      <point x="177" y="353" type="line"/>
      <point x="94" y="327"/>
      <point x="50" y="266"/>
    </contour>
    <contour>
      <point x="72" y="173" type="curve" smooth="yes"/>
      <point x="72" y="275"/>
      <point x="144" y="341"/>
      <point x="255" y="341" type="curve" smooth="yes"/>
      <point x="358" y="341"/>
      <point x="438" y="275"/>
      <point x="438" y="173" type="curve" smooth="yes"/>
      <point x="438" y="72"/>
      <point x="355" y="10"/>
      <point x="255" y="10" type="curve" smooth="yes"/>
      <point x="155" y="10"/>
      <point x="72" y="73"/>
    </contour>
    <contour>
      <point x="82" y="511" type="curve" smooth="yes"/>
      <point x="82" y="604"/>
      <point x="155" y="668"/>
      <point x="255" y="668" type="curve" smooth="yes"/>
      <point x="363" y="668"/>
      <point x="425" y="602"/>
      <point x="425" y="516" type="curve" smooth="yes"/>
      <point x="425" y="417"/>
      <point x="349" y="361"/>
      <point x="259" y="361" type="curve" smooth="yes"/>
      <point x="139" y="361"/>
      <point x="82" y="410"/>
    </contour>
  </outline>
</glyph>
<glyph name="nine" format="2">
  <advance width="528"/>
  <unicode hex="0039"/>
  <outline>
    <contour>
      <point x="57" y="470" type="curve" smooth="yes"/>
      <point x="58" y="359"/>
      <point x="146" y="267"/>
      <point x="251" y="267" type="curve" smooth="yes"/>
      <point x="254" y="267" type="line"/>
      <point x="370" y="269"/>
      <point x="466" y="361"/>
      <point x="464" y="468" type="curve"/>
      <point x="464" y="470" type="line"/>
      <point x="452" y="609"/>
      <point x="377" y="690"/>
      <point x="263" y="690" type="curve" smooth="yes"/>
      <point x="143" y="690"/>
      <point x="56" y="598"/>
    </contour>
    <contour>
      <point x="36" y="477" type="curve" smooth="yes"/>
      <point x="36" y="607"/>
      <point x="127" y="710"/>
      <point x="259" y="710" type="curve" smooth="yes"/>
      <point x="417" y="710"/>
      <point x="489" y="604"/>
      <point x="489" y="400" type="curve" smooth="yes"/>
      <point x="489" y="119"/>
      <point x="417" y="-10"/>
      <point x="259" y="-10" type="curve" smooth="yes"/>
      <point x="156" y="-10"/>
      <point x="91" y="35"/>
      <point x="58" y="127" type="curve"/>
      <point x="64" y="127"/>
      <point x="74" y="127"/>
      <point x="81" y="128" type="curve"/>
      <point x="108" y="54"/>
      <point x="175" y="10"/>
      <point x="261" y="10" type="curve" smooth="yes"/>
      <point x="282" y="10"/>
      <point x="295" y="13"/>
      <point x="325" y="24" type="curve" smooth="yes"/>
      <point x="418" y="59"/>
      <point x="460" y="163"/>
      <point x="462" y="359" type="curve"/>
      <point x="459" y="359" type="line"/>
      <point x="427" y="295"/>
      <point x="339" y="247"/>
      <point x="250" y="247" type="curve" smooth="yes"/>
      <point x="132" y="247"/>
      <point x="36" y="339"/>
    </contour>
  </outline>
</glyph>
<glyph name="semicolon" format="2">
  <advance width="180"/>
  <unicode hex="003B"/>
  <outline>
    <contour>
      <point x="50" y="0" type="line"/>
      <point x="50" y="80" type="line"/>
      <point x="130" y="80" type="line"/>
      <point x="130" y="0" type="line"/>
      <point x="84" y="-130" type="line"/>
      <point x="50" y="-130" type="line"/>
      <point x="72" y="0" type="line"/>
    </contour>
    <contour>
      <point x="50" y="370" type="line"/>
      <point x="50" y="450" type="line"/>
      <point x="130" y="450" type="line"/>
      <point x="130" y="370" type="line"/>
    </contour>
  </outline>
</glyph>
<glyph name="less" format="2">
  <advance width="514"/>
  <unicode hex="003C"/>
  <outline>
    <contour>
      <point x="60" y="287" type="line"/>
      <point x="466" y="87" type="line"/>
      <point x="466" y="109" type="line"/>
      <point x="78" y="303" type="line"/>
      <point x="78" y="293" type="line"/>
      <point x="466" y="485" type="line"/>
      <point x="466" y="507" type="line"/>
      <point x="60" y="307" type="line"/>
    </contour>
  </outline>
  <guideline angle="0" x="0" y="297"/>
</glyph>
<glyph name="equal" format="2">
  <advance width="450"/>
  <unicode hex="003D"/>
  <outline>
    <contour>
      <point x="50" y="230" type="line"/>
      <point x="400" y="230" type="line"/>
      <point x="400" y="252" type="line"/>
      <point x="50" y="252" type="line"/>
    </contour>
    <contour>
      <point x="50" y="342" type="line"/>
      <point x="400" y="342" type="line"/>
      <point x="400" y="364" type="line"/>
      <point x="50" y="364" type="line"/>
    </contour>
  </outline>
  <guideline angle="0" x="0" y="297"/>
</glyph>
<glyph name="question" format="2">
  <advance width="502"/>
  <unicode hex="003F"/>
  <outline>
    <contour>
      <point x="190" y="0" type="line"/>
      <point x="190" y="80" type="line"/>
      <point x="270" y="80" type="line"/>
      <point x="270" y="0" type="line"/>
    </contour>
    <contour>
      <point x="40" y="480" type="line"/>
      <point x="41" y="620"/>
      <point x="129" y="710"/>
      <point x="250" y="710" type="curve" smooth="yes"/>
      <point x="396" y="710"/>
      <point x="462" y="630"/>
      <point x="462" y="509" type="curve" smooth="yes"/>
      <point x="462" y="329"/>
      <point x="270" y="315"/>
      <point x="270" y="170" type="curve" smooth="yes"/>
      <point x="270" y="130" type="line"/>
      <point x="190" y="130" type="line"/>
      <point x="190" y="170" type="line" smooth="yes"/>
      <point x="190" y="344"/>
      <point x="382" y="399"/>
      <point x="382" y="498" type="curve" smooth="yes"/>
      <point x="382" y="565"/>
      <point x="369" y="630"/>
      <point x="250" y="630" type="curve" smooth="yes"/>
      <point x="166" y="630"/>
      <point x="124" y="561"/>
      <point x="120" y="480" type="curve"/>
    </contour>
  </outline>
</glyph>
<glyph name="at" format="2">
  <advance width="732"/>
  <unicode hex="0040"/>
  <outline>
    <contour>
      <point x="223" y="178.24" type="curve" smooth="yes"/>
      <point x="223" y="295.08"/>
      <point x="285.39" y="375"/>
      <point x="374" y="375" type="curve" smooth="yes"/>
      <point x="420.99" y="375"/>
      <point x="453.91" y="349.3"/>
      <point x="460.5" y="309.33" type="curve"/>
      <point x="416" y="154.34" type="line" smooth="yes"/>
      <point x="404.39" y="113.93"/>
      <point x="356.13" y="81.84"/>
      <point x="315.13" y="81.84" type="curve" smooth="yes"/>
      <point x="261.05" y="81.84"/>
      <point x="223" y="121.61"/>
    </contour>
    <contour>
      <point x="60" y="232" type="curve" smooth="yes"/>
      <point x="60" y="55.6"/>
      <point x="180.8" y="-62"/>
      <point x="349.058" y="-62" type="curve" smooth="yes"/>
      <point x="401.361" y="-62"/>
      <point x="461" y="-50"/>
      <point x="517" y="-20" type="curve"/>
      <point x="517" y="0" type="line"/>
      <point x="459" y="-30"/>
      <point x="401.361" y="-42"/>
      <point x="347.429" y="-42" type="curve" smooth="yes"/>
      <point x="194" y="-42"/>
      <point x="80" y="68"/>
      <point x="80" y="233" type="curve" smooth="yes"/>
      <point x="80" y="395.089"/>
      <point x="206.038" y="524"/>
      <point x="362" y="524" type="curve" smooth="yes"/>
      <point x="534.8" y="524"/>
      <point x="652" y="428.8"/>
      <point x="652" y="286" type="curve" smooth="yes"/>
      <point x="652" y="162.4"/>
      <point x="588.8" y="82"/>
      <point x="497" y="82" type="curve" smooth="yes"/>
      <point x="464" y="82"/>
      <point x="440.376" y="100"/>
      <point x="440.376" y="131.013" type="curve" smooth="yes"/>
      <point x="440.376" y="145.013"/>
      <point x="440.159" y="170.972"/>
      <point x="450" y="203" type="curve" smooth="yes"/>
      <point x="501.959" y="372.105" type="line"/>
      <point x="491.954" y="372.105" type="line"/>
      <point x="467.138" y="326.604" type="line"/>
      <point x="472.17" y="328" type="line"/>
      <point x="462.217" y="367"/>
      <point x="420.439" y="393"/>
      <point x="367.725" y="393" type="curve" smooth="yes"/>
      <point x="272.2" y="393"/>
      <point x="203" y="306.628"/>
      <point x="203" y="177.071" type="curve" smooth="yes"/>
      <point x="203" y="109.141"/>
      <point x="246.254" y="63.8542"/>
      <point x="311.135" y="63.8542" type="curve" smooth="yes"/>
      <point x="356.841" y="63.8542"/>
      <point x="421.879" y="92.2179"/>
      <point x="437" y="148.854" type="curve"/>
      <point x="424.88" y="151.2" type="line"/>
      <point x="420.96" y="142.8"/>
      <point x="419" y="134.4"/>
      <point x="419" y="126" type="curve" smooth="yes"/>
      <point x="419" y="88.8"/>
      <point x="450.2" y="64"/>
      <point x="497" y="64" type="curve" smooth="yes"/>
      <point x="602" y="64"/>
      <point x="672" y="153.2"/>
      <point x="672" y="287" type="curve" smooth="yes"/>
      <point x="672" y="441.2"/>
      <point x="548" y="544"/>
      <point x="362" y="544" type="curve" smooth="yes"/>
      <point x="193.862" y="544"/>
      <point x="60" y="405.706"/>
    </contour>
  </outline>
</glyph>
<glyph name="A" format="2">
  <advance width="480"/>
  <unicode hex="0041"/>
  <anchor x="240" y="740" name="top"/>
  <anchor x="240" y="662" name="t.ring"/>
  <anchor x="240" y="-50" name="bottom"/>
  <anchor x="470" y="-0" name="b.ogonek"/>
  <outline>
    <contour>
      <point x="103" y="250" type="line"/>
      <point x="373" y="250" type="line"/>
      <point x="373" y="270" type="line"/>
      <point x="103" y="270" type="line"/>
    </contour>
    <contour>
      <point x="10" y="0" type="line"/>
      <point x="32" y="0" type="line"/>
      <point x="224" y="600" type="line" smooth="yes"/>
      <point x="233" y="627"/>
      <point x="236" y="637"/>
      <point x="239" y="652" type="curve"/>
      <point x="235" y="650" type="line"/>
      <point x="245" y="650" type="line"/>
      <point x="241" y="652" type="line"/>
      <point x="244" y="637"/>
      <point x="247" y="627"/>
      <point x="256" y="600" type="curve" smooth="yes"/>
      <point x="448" y="0" type="line"/>
      <point x="470" y="0" type="line"/>
      <point x="251" y="680" type="line"/>
      <point x="229" y="680" type="line"/>
    </contour>
  </outline>
  <guideline angle="90" x="240" y="0"/>
</glyph>
<glyph name="B" format="2">
  <advance width="597"/>
  <unicode hex="0042"/>
  <outline>
    <component base="I"/>
    <contour>
      <point x="112" y="380" type="line"/>
      <point x="324" y="380" type="line" smooth="yes"/>
      <point x="405" y="380"/>
      <point x="460" y="421"/>
      <point x="460" y="507" type="curve" smooth="yes"/>
      <point x="460" y="605"/>
      <point x="417" y="660"/>
      <point x="303" y="660" type="curve" smooth="yes"/>
      <point x="112" y="660" type="line"/>
      <point x="112" y="680" type="line"/>
      <point x="303" y="680" type="line" smooth="yes"/>
      <point x="440" y="680"/>
      <point x="482" y="615"/>
      <point x="482" y="507" type="curve" smooth="yes"/>
      <point x="482" y="447"/>
      <point x="462" y="388"/>
      <point x="363" y="369" type="curve"/>
      <point x="369" y="375" type="line"/>
      <point x="452" y="363"/>
      <point x="517" y="316"/>
      <point x="517" y="187" type="curve" smooth="yes"/>
      <point x="517" y="58"/>
      <point x="446" y="0"/>
      <point x="290" y="0" type="curve" smooth="yes"/>
      <point x="112" y="0" type="line"/>
      <point x="112" y="20" type="line"/>
      <point x="290" y="20" type="line" smooth="yes"/>
      <point x="444" y="20"/>
      <point x="495" y="80"/>
      <point x="495" y="187" type="curve" smooth="yes"/>
      <point x="495" y="294"/>
      <point x="455" y="360"/>
      <point x="324" y="360" type="curve" smooth="yes"/>
      <point x="112" y="360" type="line"/>
    </contour>
  </outline>
  <guideline angle="0" x="0" y="20"/>
  <guideline angle="0" x="0" y="660"/>
  <guideline angle="0" x="0" y="380"/>
  <guideline angle="0" x="0" y="360"/>
  <guideline angle="0" x="0" y="127"/>
  <guideline angle="0" x="0" y="536"/>
</glyph>
<glyph name="C" format="2">
  <advance width="696"/>
  <unicode hex="0043"/>
  <anchor x="358" y="740" name="top"/>
  <anchor x="358" y="-60" name="bottom"/>
  <anchor x="335" y="0" name="b.cedilla"/>
  <outline>
    <contour>
      <point x="80" y="342" type="curve" smooth="yes"/>
      <point x="80" y="126"/>
      <point x="185" y="-8"/>
      <point x="354" y="-8" type="curve" smooth="yes"/>
      <point x="481" y="-8"/>
      <point x="584" y="68"/>
      <point x="610" y="184" type="curve"/>
      <point x="588" y="184" type="line"/>
      <point x="565" y="82"/>
      <point x="468" y="12"/>
      <point x="351" y="12" type="curve" smooth="yes"/>
      <point x="200" y="12"/>
      <point x="102" y="140"/>
      <point x="102" y="338" type="curve" smooth="yes"/>
      <point x="102" y="544"/>
      <point x="197" y="668"/>
      <point x="356" y="668" type="curve" smooth="yes"/>
      <point x="483" y="668"/>
      <point x="574" y="588"/>
      <point x="596" y="460" type="curve"/>
      <point x="616" y="460" type="line"/>
      <point x="593" y="603"/>
      <point x="497" y="688"/>
      <point x="358" y="688" type="curve" smooth="yes"/>
      <point x="184" y="688"/>
      <point x="80" y="558"/>
    </contour>
  </outline>
  <guideline angle="90" name="h_1" x="358" y="0"/>
</glyph>
<glyph name="D" format="2">
  <advance width="630"/>
  <unicode hex="0044"/>
  <outline>
    <component base="I"/>
    <contour>
      <point x="110" y="0" type="line"/>
      <point x="110" y="20" type="line"/>
      <point x="288" y="20" type="line" smooth="yes"/>
      <point x="455" y="20"/>
      <point x="529" y="157"/>
      <point x="529" y="340" type="curve" smooth="yes"/>
      <point x="529" y="523"/>
      <point x="457" y="660"/>
      <point x="288" y="660" type="curve" smooth="yes"/>
      <point x="110" y="660" type="line"/>
      <point x="110" y="680" type="line"/>
      <point x="288" y="680" type="line" smooth="yes"/>
      <point x="478" y="680"/>
      <point x="550" y="534"/>
      <point x="550" y="340" type="curve" smooth="yes"/>
      <point x="550" y="146"/>
      <point x="478" y="0"/>
      <point x="288" y="0" type="curve" smooth="yes"/>
    </contour>
  </outline>
</glyph>
<glyph name="E" format="2">
  <advance width="510"/>
  <unicode hex="0045"/>
  <anchor x="275" y="740" name="top"/>
  <anchor x="275" y="-40" name="bottom"/>
  <anchor x="280" y="0" name="b.cedilla"/>
  <outline>
    <contour>
      <point x="100" y="0" type="line"/>
      <point x="122" y="0" type="line"/>
      <point x="122" y="680" type="line"/>
      <point x="100" y="680" type="line"/>
    </contour>
    <contour>
      <point x="110" y="660" type="line"/>
      <point x="460" y="660" type="line"/>
      <point x="460" y="680" type="line"/>
      <point x="110" y="680" type="line"/>
    </contour>
    <contour>
      <point x="110" y="340" type="line"/>
      <point x="420" y="340" type="line"/>
      <point x="420" y="360" type="line"/>
      <point x="110" y="360" type="line"/>
    </contour>
    <contour>
      <point x="110" y="0" type="line"/>
      <point x="460" y="0" type="line"/>
      <point x="460" y="20" type="line"/>
      <point x="110" y="20" type="line"/>
    </contour>
  </outline>
  <guideline angle="90" x="111" y="0"/>
  <guideline angle="90" name="h_1" x="275" y="0"/>
</glyph>
<glyph name="F" format="2">
  <advance width="510"/>
  <unicode hex="0046"/>
  <outline>
    <component base="I"/>
    <contour>
      <point x="110" y="680" type="line"/>
      <point x="460" y="680" type="line"/>
      <point x="460" y="660" type="line"/>
      <point x="110" y="660" type="line"/>
    </contour>
    <contour>
      <point x="110" y="360" type="line"/>
      <point x="420" y="360" type="line"/>
      <point x="420" y="340" type="line"/>
      <point x="110" y="340" type="line"/>
    </contour>
  </outline>
</glyph>
<glyph name="G" format="2">
  <advance width="707"/>
  <unicode hex="0047"/>
  <anchor x="346" y="740" name="top"/>
  <anchor x="346" y="-40" name="bottom"/>
  <outline>
    <contour>
      <point x="80" y="345" type="curve" smooth="yes"/>
      <point x="80" y="127"/>
      <point x="184" y="-8"/>
      <point x="353" y="-8" type="curve" smooth="yes"/>
      <point x="464" y="-8"/>
      <point x="561" y="51"/>
      <point x="610" y="146" type="curve"/>
      <point x="597" y="140" type="line"/>
      <point x="597" y="0" type="line"/>
      <point x="617" y="0" type="line"/>
      <point x="617" y="300" type="line"/>
      <point x="388" y="300" type="line"/>
      <point x="388" y="280" type="line"/>
      <point x="595" y="280" type="line"/>
      <point x="595" y="156" type="line"/>
      <point x="610" y="156" type="line"/>
      <point x="610" y="170" type="line"/>
      <point x="600" y="170" type="line"/>
      <point x="551" y="71"/>
      <point x="460" y="12"/>
      <point x="354" y="12" type="curve" smooth="yes"/>
      <point x="199" y="12"/>
      <point x="102" y="139"/>
      <point x="102" y="342" type="curve" smooth="yes"/>
      <point x="102" y="544"/>
      <point x="198" y="668"/>
      <point x="355" y="668" type="curve" smooth="yes"/>
      <point x="477" y="668"/>
      <point x="562" y="594"/>
      <point x="587" y="460" type="curve"/>
      <point x="607" y="460" type="line"/>
      <point x="582" y="607"/>
      <point x="493" y="688"/>
      <point x="355" y="688" type="curve" smooth="yes"/>
      <point x="183" y="688"/>
      <point x="80" y="561"/>
    </contour>
  </outline>
  <guideline angle="90" name="h_1" x="346" y="0"/>
</glyph>
<glyph name="H" format="2">
  <advance width="662"/>
  <unicode hex="0048"/>
  <anchor x="331" y="740" name="top"/>
  <anchor x="331" y="-40" name="bottom"/>
  <anchor x="545" y="0" name="b.cedilla"/>
  <outline>
    <contour>
      <point x="100" y="0" type="line"/>
      <point x="122" y="0" type="line"/>
      <point x="122" y="680" type="line"/>
      <point x="100" y="680" type="line"/>
    </contour>
    <contour>
      <point x="109" y="352" type="line"/>
      <point x="551" y="352" type="line"/>
      <point x="551" y="372" type="line"/>
      <point x="109" y="372" type="line"/>
    </contour>
    <contour>
      <point x="540" y="0" type="line"/>
      <point x="562" y="0" type="line"/>
      <point x="562" y="680" type="line"/>
      <point x="540" y="680" type="line"/>
    </contour>
  </outline>
  <guideline angle="90" name="h_1" x="331" y="0"/>
</glyph>
<glyph name="I" format="2">
  <advance width="222"/>
  <unicode hex="0049"/>
  <anchor x="111" y="740" name="top"/>
  <outline>
    <contour>
      <point x="100" y="0" type="line"/>
      <point x="100" y="680" type="line"/>
      <point x="122" y="680" type="line"/>
      <point x="122" y="0" type="line"/>
    </contour>
  </outline>
  <guideline angle="90" x="111" y="0"/>
</glyph>
<glyph name="J" format="2">
  <advance width="270"/>
  <unicode hex="004A"/>
  <anchor x="157" y="740" name="top"/>
  <outline>
    <contour>
      <point x="50" y="0" type="line"/>
      <point x="74" y="0" type="line" smooth="yes"/>
      <point x="128" y="0"/>
      <point x="170" y="60"/>
      <point x="170" y="164" type="curve" smooth="yes"/>
      <point x="170" y="680" type="line"/>
      <point x="148" y="680" type="line"/>
      <point x="148" y="150" type="line" smooth="yes"/>
      <point x="148" y="86"/>
      <point x="116" y="20"/>
      <point x="76" y="20" type="curve" smooth="yes"/>
      <point x="50" y="20" type="line"/>
    </contour>
  </outline>
</glyph>
<glyph name="K" format="2">
  <advance width="496"/>
  <unicode hex="004B"/>
  <outline>
    <component base="I"/>
    <contour>
      <point x="116" y="260" type="line"/>
      <point x="116" y="294" type="line"/>
      <point x="420" y="680" type="line"/>
      <point x="446" y="680" type="line"/>
      <point x="219" y="390" type="line"/>
      <point x="486" y="0" type="line"/>
      <point x="460" y="0" type="line"/>
      <point x="204" y="372" type="line"/>
    </contour>
  </outline>
  <guideline angle="239.006" x="450" y="680"/>
  <guideline angle="0" x="0" y="350"/>
  <guideline angle="51.7773" x="143" y="294"/>
  <guideline angle="304.439" x="246" y="350"/>
  <guideline angle="124.552" x="460" y="0"/>
</glyph>
<glyph name="L" format="2">
  <advance width="560"/>
  <unicode hex="004C"/>
  <anchor x="145" y="740" name="top"/>
  <outline>
    <contour>
      <point x="111" y="20" type="line"/>
      <point x="451" y="20" type="line"/>
      <point x="451" y="0" type="line"/>
      <point x="111" y="0" type="line"/>
    </contour>
    <contour>
      <point x="100" y="0" type="line"/>
      <point x="100" y="680" type="line"/>
      <point x="122" y="680" type="line"/>
      <point x="122" y="0" type="line"/>
    </contour>
  </outline>
</glyph>
<glyph name="M" format="2">
  <advance width="744"/>
  <unicode hex="004D"/>
  <anchor x="372" y="740" name="top"/>
  <anchor x="372" y="-40" name="bottom"/>
  <outline>
    <contour>
      <point x="100" y="0" type="line"/>
      <point x="122" y="0" type="line"/>
      <point x="122" y="680" type="line"/>
      <point x="100" y="680" type="line"/>
    </contour>
    <contour>
      <point x="102" y="680" type="line"/>
      <point x="361" y="0" type="line"/>
      <point x="378" y="0" type="line"/>
      <point x="378" y="10"/>
      <point x="368" y="50"/>
      <point x="356" y="80" type="curve" smooth="yes"/>
      <point x="124" y="680" type="line"/>
    </contour>
    <contour>
      <point x="366" y="0" type="curve"/>
      <point x="383" y="0" type="line"/>
      <point x="642" y="680" type="line"/>
      <point x="620" y="680" type="line"/>
      <point x="388" y="80" type="line" smooth="yes"/>
      <point x="376" y="50"/>
      <point x="366" y="10"/>
    </contour>
    <contour>
      <point x="622" y="0" type="line"/>
      <point x="644" y="0" type="line"/>
      <point x="644" y="680" type="line"/>
      <point x="622" y="680" type="line"/>
    </contour>
  </outline>
  <guideline angle="90" x="372" y="0"/>
  <guideline angle="90" name="h_1" x="372" y="0"/>
  <guideline angle="0" x="0" y="335"/>
</glyph>
<glyph name="N" format="2">
  <advance width="618"/>
  <unicode hex="004E"/>
  <anchor x="301" y="740" name="top"/>
  <anchor x="301" y="-60" name="bottom"/>
  <outline>
    <contour>
      <point x="100" y="0" type="line"/>
      <point x="100" y="680" type="line"/>
      <point x="124" y="680" type="line"/>
      <point x="508" y="20" type="line"/>
      <point x="500" y="20" type="line"/>
      <point x="496" y="51"/>
      <point x="496" y="79"/>
      <point x="496" y="100" type="curve" smooth="yes"/>
      <point x="496" y="680" type="line"/>
      <point x="518" y="680" type="line"/>
      <point x="518" y="0" type="line"/>
      <point x="494" y="0" type="line"/>
      <point x="110" y="660" type="line"/>
      <point x="118" y="660" type="line"/>
      <point x="122" y="629"/>
      <point x="122" y="601"/>
      <point x="122" y="580" type="curve" smooth="yes"/>
      <point x="122" y="0" type="line"/>
    </contour>
  </outline>
  <guideline angle="90" x="301" y="0"/>
  <guideline angle="300.199" x="124" y="680"/>
  <guideline angle="300.199" x="98" y="680"/>
</glyph>
<glyph name="O" format="2">
  <advance width="716"/>
  <unicode hex="004F"/>
  <anchor x="358" y="740" name="top"/>
  <outline>
    <contour>
      <point x="358" y="-10" type="line"/>
      <point x="189" y="-10"/>
      <point x="80" y="127"/>
      <point x="80" y="340" type="curve" smooth="yes"/>
      <point x="80" y="553"/>
      <point x="189" y="690"/>
      <point x="358" y="690" type="curve"/>
      <point x="358" y="670" type="line"/>
      <point x="199" y="670"/>
      <point x="102" y="544"/>
      <point x="102" y="340" type="curve" smooth="yes"/>
      <point x="102" y="136"/>
      <point x="199" y="10"/>
      <point x="358" y="10" type="curve"/>
    </contour>
    <contour>
      <point x="358" y="690" type="line"/>
      <point x="527" y="690"/>
      <point x="636" y="553"/>
      <point x="636" y="340" type="curve" smooth="yes"/>
      <point x="636" y="127"/>
      <point x="527" y="-10"/>
      <point x="358" y="-10" type="curve"/>
      <point x="358" y="10" type="line"/>
      <point x="517" y="10"/>
      <point x="614" y="136"/>
      <point x="614" y="340" type="curve" smooth="yes"/>
      <point x="614" y="544"/>
      <point x="517" y="670"/>
      <point x="358" y="670" type="curve"/>
    </contour>
  </outline>
</glyph>
<glyph name="P" format="2">
  <advance width="580"/>
  <unicode hex="0050"/>
  <outline>
    <component base="I"/>
    <contour>
      <point x="110" y="660" type="line"/>
      <point x="305" y="660" type="line" smooth="yes"/>
      <point x="431" y="660"/>
      <point x="498" y="600"/>
      <point x="498" y="487" type="curve" smooth="yes"/>
      <point x="498" y="371"/>
      <point x="424" y="300"/>
      <point x="305" y="300" type="curve" smooth="yes"/>
      <point x="110" y="300" type="line"/>
      <point x="110" y="280" type="line"/>
      <point x="295" y="280" type="line" smooth="yes"/>
      <point x="441" y="280"/>
      <point x="520" y="352"/>
      <point x="520" y="487" type="curve" smooth="yes"/>
      <point x="520" y="615"/>
      <point x="445" y="680"/>
      <point x="295" y="680" type="curve" smooth="yes"/>
      <point x="110" y="680" type="line"/>
    </contour>
  </outline>
</glyph>
<glyph name="Q" format="2">
  <advance width="716"/>
  <unicode hex="0051"/>
  <outline>
    <component base="O"/>
    <contour>
      <point x="444" y="12" type="line"/>
      <point x="531" y="-75" type="line"/>
      <point x="544" y="-61" type="line"/>
      <point x="461" y="22" type="line"/>
    </contour>
    <contour>
      <point x="399" y="57" type="line"/>
      <point x="441" y="15" type="line"/>
      <point x="458" y="25" type="line"/>
      <point x="412" y="71" type="line"/>
    </contour>
  </outline>
  <guideline angle="135" x="542" y="-59"/>
  <guideline angle="315" x="433" y="23"/>
</glyph>
<glyph name="R" format="2">
  <advance width="530"/>
  <unicode hex="0052"/>
  <anchor x="260" y="740" name="top"/>
  <anchor x="280" y="-60" name="bottom"/>
  <outline>
    <component base="P"/>
    <contour>
      <point x="355" y="300" type="line"/>
      <point x="480" y="0" type="line"/>
      <point x="506" y="0" type="line"/>
      <point x="379" y="300" type="line"/>
    </contour>
  </outline>
</glyph>
<glyph name="S" format="2">
  <advance width="641"/>
  <unicode hex="0053"/>
  <anchor x="313" y="740" name="top"/>
  <anchor x="313" y="-40" name="bottom"/>
  <anchor x="315" y="0" name="b.cedilla"/>
  <outline>
    <contour>
      <point x="80" y="193" type="line"/>
      <point x="80" y="72"/>
      <point x="177" y="-8"/>
      <point x="326" y="-8" type="curve" smooth="yes"/>
      <point x="468" y="-8"/>
      <point x="561" y="65"/>
      <point x="561" y="172" type="curve" smooth="yes"/>
      <point x="561" y="249"/>
      <point x="513" y="304"/>
      <point x="429" y="327" type="curve" smooth="yes"/>
      <point x="238" y="380" type="line" smooth="yes"/>
      <point x="166" y="400"/>
      <point x="121" y="455"/>
      <point x="121" y="523" type="curve" smooth="yes"/>
      <point x="121" y="609"/>
      <point x="194" y="668"/>
      <point x="314" y="668" type="curve" smooth="yes"/>
      <point x="445" y="668"/>
      <point x="537" y="599"/>
      <point x="537" y="501" type="curve"/>
      <point x="559" y="501" type="line"/>
      <point x="559" y="611"/>
      <point x="458" y="688"/>
      <point x="315" y="688" type="curve" smooth="yes"/>
      <point x="182" y="688"/>
      <point x="99" y="621"/>
      <point x="99" y="524" type="curve" smooth="yes"/>
      <point x="99" y="449"/>
      <point x="147" y="385"/>
      <point x="222" y="364" type="curve" smooth="yes"/>
      <point x="406" y="312" type="line" smooth="yes"/>
      <point x="496" y="287"/>
      <point x="539" y="243"/>
      <point x="539" y="174" type="curve" smooth="yes"/>
      <point x="539" y="78"/>
      <point x="454" y="12"/>
      <point x="325" y="12" type="curve" smooth="yes"/>
      <point x="191" y="12"/>
      <point x="102" y="85"/>
      <point x="102" y="193" type="curve"/>
    </contour>
  </outline>
  <guideline angle="90" name="h_1" x="313" y="0"/>
</glyph>
<glyph name="U" format="2">
  <advance width="622"/>
  <unicode hex="0055"/>
  <anchor x="312" y="740" name="top"/>
  <anchor x="312" y="-40" name="bottom"/>
  <anchor x="312" y="10" name="b.ogonek"/>
  <anchor x="312" y="740" name="t.ring"/>
  <outline>
    <contour>
      <point x="80" y="230" type="line" smooth="yes"/>
      <point x="80" y="71"/>
      <point x="160" y="-8"/>
      <point x="311" y="-8" type="curve" smooth="yes"/>
      <point x="462" y="-8"/>
      <point x="542" y="71"/>
      <point x="542" y="230" type="curve" smooth="yes"/>
      <point x="542" y="680" type="line"/>
      <point x="522" y="680" type="line"/>
      <point x="522" y="250" type="line" smooth="yes"/>
      <point x="522" y="81"/>
      <point x="442" y="12"/>
      <point x="312" y="12" type="curve" smooth="yes"/>
      <point x="182" y="12"/>
      <point x="102" y="81"/>
      <point x="102" y="250" type="curve" smooth="yes"/>
      <point x="102" y="680" type="line"/>
      <point x="80" y="680" type="line"/>
    </contour>
  </outline>
  <guideline angle="90" name="h_1" x="312" y="0"/>
</glyph>
<glyph name="V" format="2">
  <advance width="480"/>
  <unicode hex="0056"/>
  <anchor x="240" y="740" name="top"/>
  <anchor x="240" y="-40" name="bottom"/>
  <outline>
    <contour>
      <point x="10" y="680" type="line"/>
      <point x="229" y="0" type="line"/>
      <point x="251" y="0" type="line"/>
      <point x="470" y="680" type="line"/>
      <point x="448" y="680" type="line"/>
      <point x="256" y="80" type="line" smooth="yes"/>
      <point x="247" y="53"/>
      <point x="244" y="43"/>
      <point x="241" y="28" type="curve"/>
      <point x="245" y="30" type="line"/>
      <point x="235" y="30" type="line"/>
      <point x="239" y="28" type="line"/>
      <point x="236" y="43"/>
      <point x="233" y="53"/>
      <point x="224" y="80" type="curve" smooth="yes"/>
      <point x="32" y="680" type="line"/>
    </contour>
  </outline>
  <guideline angle="90" name="h_1" x="240" y="0"/>
  <guideline angle="0" x="0" y="335"/>
</glyph>
<glyph name="W" format="2">
  <advance width="918"/>
  <unicode hex="0057"/>
  <anchor x="459" y="740" name="top"/>
  <anchor x="459" y="-40" name="bottom"/>
  <outline>
    <contour>
      <point x="10" y="680" type="line"/>
      <point x="229" y="0" type="line"/>
      <point x="246" y="0" type="line"/>
      <point x="246" y="10"/>
      <point x="234" y="50"/>
      <point x="224" y="80" type="curve" smooth="yes"/>
      <point x="32" y="680" type="line"/>
    </contour>
    <contour>
      <point x="234" y="0" type="curve"/>
      <point x="251" y="0" type="line"/>
      <point x="470" y="680" type="line"/>
      <point x="448" y="680" type="line"/>
      <point x="256" y="80" type="line" smooth="yes"/>
      <point x="246" y="50"/>
      <point x="234" y="10"/>
    </contour>
    <contour>
      <point x="448" y="680" type="line"/>
      <point x="667" y="0" type="line"/>
      <point x="684" y="0" type="line"/>
      <point x="684" y="10"/>
      <point x="672" y="50"/>
      <point x="662" y="80" type="curve" smooth="yes"/>
      <point x="470" y="680" type="line"/>
    </contour>
    <contour>
      <point x="672" y="0" type="curve"/>
      <point x="689" y="0" type="line"/>
      <point x="908" y="680" type="line"/>
      <point x="886" y="680" type="line"/>
      <point x="694" y="80" type="line" smooth="yes"/>
      <point x="684" y="50"/>
      <point x="672" y="10"/>
    </contour>
  </outline>
  <guideline angle="90" name="h_1" x="459" y="0"/>
</glyph>
<glyph name="X" format="2">
  <advance width="658"/>
  <unicode hex="0058"/>
  <outline>
    <contour>
      <point x="147" y="680" type="line"/>
      <point x="120" y="680" type="line"/>
      <point x="519" y="0" type="line"/>
      <point x="546" y="0" type="line"/>
    </contour>
    <contour>
      <point x="310" y="371" type="line"/>
      <point x="92" y="0" type="line"/>
      <point x="119" y="0" type="line"/>
      <point x="324" y="349" type="line"/>
    </contour>
    <contour>
      <point x="330" y="359" type="line"/>
      <point x="518" y="680" type="line"/>
      <point x="491" y="680" type="line"/>
      <point x="315" y="380" type="line"/>
    </contour>
  </outline>
  <guideline angle="120.403" x="546" y="0"/>
  <guideline angle="59.6" x="491" y="680"/>
  <guideline angle="59.6" x="119" y="0"/>
</glyph>
<glyph name="Y" format="2">
  <advance width="594"/>
  <unicode hex="0059"/>
  <outline>
    <contour>
      <point x="74" y="680" type="line"/>
      <point x="96" y="680" type="line"/>
      <point x="296" y="328" type="line"/>
      <point x="298" y="328" type="line"/>
      <point x="499" y="680" type="line"/>
      <point x="521" y="680" type="line"/>
      <point x="308" y="310" type="line"/>
      <point x="308" y="0" type="line"/>
      <point x="286" y="0" type="line"/>
      <point x="286" y="310" type="line"/>
    </contour>
  </outline>
  <guideline angle="90" x="297" y="0"/>
  <guideline angle="0" x="0" y="680"/>
</glyph>
<glyph name="Z" format="2">
  <advance width="510"/>
  <unicode hex="005A"/>
  <anchor x="220" y="740" name="top"/>
  <anchor x="220" y="-40" name="bottom"/>
  <outline>
    <contour>
      <point x="9" y="0" type="line"/>
      <point x="440" y="0" type="line"/>
      <point x="440" y="20" type="line"/>
      <point x="31" y="20" type="line"/>
      <point x="30" y="8" type="line"/>
      <point x="434" y="664" type="line"/>
      <point x="434" y="680" type="line"/>
      <point x="20" y="680" type="line"/>
      <point x="20" y="660" type="line"/>
      <point x="415" y="660" type="line"/>
      <point x="412" y="670" type="line"/>
      <point x="9" y="16" type="line"/>
    </contour>
  </outline>
  <guideline angle="90" name="h_1" x="220" y="0"/>
</glyph>
<glyph name="bracketleft" format="2">
  <advance width="360"/>
  <unicode hex="005B"/>
  <outline>
    <contour>
      <point x="70" y="-21" type="curve" smooth="yes"/>
      <point x="70" y="780" type="line"/>
      <point x="290" y="780" type="line"/>
      <point x="290" y="720" type="line"/>
      <point x="150" y="720" type="line"/>
      <point x="150" y="-21" type="line"/>
      <point x="290" y="-21" type="line"/>
      <point x="290" y="-81" type="line"/>
      <point x="70" y="-81" type="line"/>
      <point x="70" y="-61"/>
      <point x="70" y="-41"/>
    </contour>
  </outline>
</glyph>
<glyph name="asciicircum" format="2">
  <advance width="402"/>
  <unicode hex="005E"/>
  <outline>
    <contour>
      <point x="95" y="400" type="line"/>
      <point x="194" y="639" type="line"/>
      <point x="208" y="639" type="line"/>
      <point x="307" y="400" type="line"/>
      <point x="287" y="400" type="line"/>
      <point x="197" y="628" type="line"/>
      <point x="205" y="628" type="line"/>
      <point x="115" y="400" type="line"/>
    </contour>
  </outline>
  <guideline angle="0" x="0" y="639"/>
</glyph>
<glyph name="underscore" format="2">
  <advance width="545"/>
  <unicode hex="005F"/>
  <outline>
    <contour>
      <point x="20" y="-46" type="line"/>
      <point x="525" y="-46" type="line"/>
      <point x="525" y="-111" type="line"/>
      <point x="20" y="-111" type="line"/>
    </contour>
  </outline>
</glyph>
<glyph name="grave" format="2">
  <advance width="230"/>
  <unicode hex="0060"/>
  <outline>
    <contour>
      <point x="50" y="670" type="line"/>
      <point x="90" y="670" type="line"/>
      <point x="144" y="490" type="line"/>
      <point x="126" y="490" type="line"/>
    </contour>
  </outline>
</glyph>
<glyph name="a" format="2">
  <advance width="497"/>
  <unicode hex="0061"/>
  <anchor x="242" y="540" name="top"/>
  <anchor x="242" y="-50" name="bottom"/>
  <anchor x="242" y="540" name="t.ring"/>
  <anchor x="407" y="-0" name="b.ogonek"/>
  <outline>
    <contour>
      <point x="75" y="330" type="curve"/>
      <point x="95" y="330" type="line"/>
      <point x="105" y="400"/>
      <point x="166" y="450"/>
      <point x="241" y="450" type="curve" smooth="yes"/>
      <point x="331" y="450"/>
      <point x="387" y="399"/>
      <point x="387" y="318" type="curve" smooth="yes"/>
      <point x="387" y="60" type="line"/>
      <point x="390" y="56" type="line"/>
      <point x="393" y="0" type="line"/>
      <point x="407" y="0" type="line"/>
      <point x="407" y="323" type="line" smooth="yes"/>
      <point x="407" y="410"/>
      <point x="342" y="468"/>
      <point x="245" y="468" type="curve" smooth="yes"/>
      <point x="156" y="468"/>
      <point x="88" y="413"/>
    </contour>
    <contour>
      <point x="60" y="125" type="curve" smooth="yes"/>
      <point x="60" y="43"/>
      <point x="121" y="-8"/>
      <point x="219" y="-8" type="curve" smooth="yes"/>
      <point x="280" y="-8"/>
      <point x="343" y="16"/>
      <point x="387" y="56" type="curve"/>
      <point x="395" y="56" type="line"/>
      <point x="395" y="86" type="line"/>
      <point x="356" y="40"/>
      <point x="287" y="10"/>
      <point x="222" y="10" type="curve" smooth="yes"/>
      <point x="135" y="10"/>
      <point x="80" y="53"/>
      <point x="80" y="122" type="curve" smooth="yes"/>
      <point x="80" y="197"/>
      <point x="133" y="236"/>
      <point x="259" y="254" type="curve" smooth="yes"/>
      <point x="393" y="273" type="line"/>
      <point x="393" y="291" type="line"/>
      <point x="268" y="274" type="line" smooth="yes"/>
      <point x="123" y="254"/>
      <point x="60" y="209"/>
    </contour>
  </outline>
  <guideline angle="90" name="h_1" x="242" y="0"/>
</glyph>
<glyph name="b" format="2">
  <advance width="546"/>
  <unicode hex="0062"/>
  <anchor x="280" y="740" name="top"/>
  <anchor x="280" y="-40" name="bottom"/>
  <outline>
    <contour>
      <point x="90" y="0" type="line"/>
      <point x="102" y="0" type="line"/>
      <point x="107" y="120" type="line"/>
      <point x="107" y="343" type="line"/>
      <point x="109" y="350"/>
      <point x="110" y="356"/>
      <point x="110" y="363" type="curve" smooth="yes"/>
      <point x="110" y="700" type="line"/>
      <point x="90" y="700" type="line"/>
    </contour>
    <contour>
      <point x="100" y="120" type="line"/>
      <point x="109" y="120" type="line"/>
      <point x="135" y="43"/>
      <point x="209" y="-8"/>
      <point x="288" y="-8" type="curve" smooth="yes"/>
      <point x="410" y="-8"/>
      <point x="486" y="89"/>
      <point x="486" y="235" type="curve" smooth="yes"/>
      <point x="486" y="375"/>
      <point x="409" y="468"/>
      <point x="288" y="468" type="curve" smooth="yes"/>
      <point x="210" y="468"/>
      <point x="146" y="427"/>
      <point x="110" y="343" type="curve"/>
      <point x="100" y="343" type="line"/>
    </contour>
    <contour>
      <point x="107" y="215" type="curve" smooth="yes"/>
      <point x="107" y="245" type="line" smooth="yes"/>
      <point x="107" y="367"/>
      <point x="183" y="450"/>
      <point x="288" y="450" type="curve" smooth="yes"/>
      <point x="395" y="450"/>
      <point x="466" y="364"/>
      <point x="466" y="235" type="curve" smooth="yes"/>
      <point x="466" y="99"/>
      <point x="396" y="10"/>
      <point x="288" y="10" type="curve" smooth="yes"/>
      <point x="183" y="10"/>
      <point x="107" y="93"/>
    </contour>
  </outline>
  <guideline angle="90" name="h_1" x="280" y="0"/>
  <guideline angle="0" x="0" y="330"/>
  <guideline angle="90" x="446" y="0"/>
  <guideline angle="0" x="0" y="230"/>
  <guideline angle="0" name="v_t_530" x="0" y="530"/>
  <guideline angle="0" name="v_b_40" x="0" y="-40"/>
</glyph>
<glyph name="c" format="2">
  <advance width="512"/>
  <unicode hex="0063"/>
  <anchor x="265" y="530" name="top"/>
  <anchor x="265" y="-40" name="bottom"/>
  <anchor x="257" y="0" name="b.cedilla"/>
  <outline>
    <contour>
      <point x="60" y="230" type="curve" smooth="yes"/>
      <point x="60" y="84"/>
      <point x="140" y="-8"/>
      <point x="265" y="-8" type="curve" smooth="yes"/>
      <point x="361" y="-8"/>
      <point x="422" y="45"/>
      <point x="452" y="152" type="curve"/>
      <point x="432" y="152" type="line"/>
      <point x="406" y="56"/>
      <point x="353" y="10"/>
      <point x="265" y="10" type="curve" smooth="yes"/>
      <point x="152" y="10"/>
      <point x="80" y="96"/>
      <point x="80" y="230" type="curve" smooth="yes"/>
      <point x="80" y="363"/>
      <point x="153" y="450"/>
      <point x="265" y="450" type="curve" smooth="yes"/>
      <point x="349" y="450"/>
      <point x="409" y="403"/>
      <point x="431" y="318" type="curve"/>
      <point x="451" y="318" type="line"/>
      <point x="425" y="417"/>
      <point x="362" y="468"/>
      <point x="265" y="468" type="curve" smooth="yes"/>
      <point x="139" y="468"/>
      <point x="60" y="376"/>
    </contour>
  </outline>
  <guideline angle="90" name="h_1" x="265" y="0"/>
</glyph>
<glyph name="d" format="2">
  <advance width="546"/>
  <unicode hex="0064"/>
  <anchor x="260" y="740" name="top"/>
  <anchor x="260" y="-40" name="bottom"/>
  <anchor x="254" y="0" name="b.cedilla"/>
  <anchor x="546" y="700" name="t.quoteright"/>
  <outline>
    <contour>
      <point x="60" y="235" type="curve" smooth="yes"/>
      <point x="60" y="375"/>
      <point x="137" y="468"/>
      <point x="258" y="468" type="curve" smooth="yes"/>
      <point x="336" y="468"/>
      <point x="400" y="427"/>
      <point x="436" y="343" type="curve"/>
      <point x="446" y="343" type="line"/>
      <point x="446" y="120" type="line"/>
      <point x="437" y="120" type="line"/>
      <point x="411" y="43"/>
      <point x="337" y="-8"/>
      <point x="258" y="-8" type="curve" smooth="yes"/>
      <point x="136" y="-8"/>
      <point x="60" y="89"/>
    </contour>
    <contour>
      <point x="80" y="235" type="curve" smooth="yes"/>
      <point x="80" y="99"/>
      <point x="150" y="10"/>
      <point x="258" y="10" type="curve" smooth="yes"/>
      <point x="363" y="10"/>
      <point x="439" y="93"/>
      <point x="439" y="215" type="curve" smooth="yes"/>
      <point x="439" y="245" type="line" smooth="yes"/>
      <point x="439" y="367"/>
      <point x="363" y="450"/>
      <point x="258" y="450" type="curve" smooth="yes"/>
      <point x="151" y="450"/>
      <point x="80" y="364"/>
    </contour>
    <contour>
      <point x="439" y="120" type="line"/>
      <point x="439" y="343" type="line"/>
      <point x="437" y="350"/>
      <point x="436" y="356"/>
      <point x="436" y="363" type="curve" smooth="yes"/>
      <point x="436" y="700" type="line"/>
      <point x="456" y="700" type="line"/>
      <point x="456" y="0" type="line"/>
      <point x="444" y="0" type="line"/>
    </contour>
  </outline>
  <guideline angle="90" name="h_1" x="260" y="0"/>
</glyph>
<glyph name="e" format="2">
  <advance width="508"/>
  <unicode hex="0065"/>
  <anchor x="270" y="520" name="top"/>
  <outline>
    <contour>
      <point x="60" y="240" type="curve" smooth="yes"/>
      <point x="60" y="380"/>
      <point x="136" y="470"/>
      <point x="258" y="470" type="curve" smooth="yes"/>
      <point x="372" y="470"/>
      <point x="448" y="380"/>
      <point x="448" y="244" type="curve" smooth="yes"/>
      <point x="448" y="234" type="line"/>
      <point x="80" y="234" type="line"/>
      <point x="80" y="87"/>
      <point x="145" y="8"/>
      <point x="267" y="8" type="curve" smooth="yes"/>
      <point x="350" y="8"/>
      <point x="418" y="69"/>
      <point x="418" y="142" type="curve"/>
      <point x="438" y="142" type="line"/>
      <point x="438" y="60"/>
      <point x="360" y="-10"/>
      <point x="267" y="-10" type="curve" smooth="yes"/>
      <point x="133" y="-10"/>
      <point x="60" y="78"/>
    </contour>
    <contour>
      <point x="80" y="252" type="curve"/>
      <point x="428" y="252" type="line"/>
      <point x="428" y="300"/>
      <point x="409" y="452"/>
      <point x="258" y="452" type="curve" smooth="yes"/>
      <point x="152" y="452"/>
      <point x="80" y="369"/>
    </contour>
  </outline>
</glyph>
<glyph name="f" format="2">
  <advance width="265"/>
  <unicode hex="0066"/>
  <anchor x="150" y="740" name="top"/>
  <anchor x="160" y="-40" name="bottom"/>
  <outline>
    <contour>
      <point x="110" y="0" type="line"/>
      <point x="130" y="0" type="line"/>
      <point x="130" y="605" type="line" smooth="yes"/>
      <point x="130" y="658"/>
      <point x="152" y="682"/>
      <point x="200" y="682" type="curve" smooth="yes"/>
      <point x="230" y="682" type="line"/>
      <point x="230" y="700" type="line"/>
      <point x="197" y="700" type="line" smooth="yes"/>
      <point x="143" y="700"/>
      <point x="110" y="667"/>
      <point x="110" y="611" type="curve" smooth="yes"/>
    </contour>
    <contour>
      <point x="35" y="442" type="line"/>
      <point x="214" y="442" type="line"/>
      <point x="214" y="460" type="line"/>
      <point x="35" y="460" type="line"/>
    </contour>
  </outline>
  <guideline angle="90" name="h_1" x="150" y="0"/>
</glyph>
<glyph name="g" format="2">
  <advance width="492"/>
  <unicode hex="0067"/>
  <anchor x="241" y="520" name="top"/>
  <outline>
    <contour>
      <point x="87" y="-76" type="curve"/>
      <point x="107" y="-76" type="line"/>
      <point x="118" y="-126"/>
      <point x="176" y="-182"/>
      <point x="261" y="-182" type="curve" smooth="yes"/>
      <point x="367" y="-182"/>
      <point x="416" y="-126"/>
      <point x="416" y="-7" type="curve" smooth="yes"/>
      <point x="416" y="90" type="line"/>
      <point x="436" y="90" type="line"/>
      <point x="436" y="-7" type="line" smooth="yes"/>
      <point x="436" y="-139"/>
      <point x="381" y="-200"/>
      <point x="261" y="-200" type="curve" smooth="yes"/>
      <point x="158" y="-200"/>
      <point x="97" y="-128"/>
    </contour>
    <contour>
      <point x="66" y="231" type="curve" smooth="yes"/>
      <point x="66" y="124"/>
      <point x="126" y="12"/>
      <point x="245" y="12" type="curve" smooth="yes"/>
      <point x="324" y="12"/>
      <point x="415" y="48"/>
      <point x="415" y="230" type="curve" smooth="yes"/>
      <point x="415" y="240" type="line" smooth="yes"/>
      <point x="415" y="398"/>
      <point x="329" y="448"/>
      <point x="246" y="448" type="curve" smooth="yes"/>
      <point x="117" y="448"/>
      <point x="66" y="321"/>
    </contour>
    <contour>
      <point x="46" y="231" type="curve" smooth="yes"/>
      <point x="46" y="345"/>
      <point x="112" y="468"/>
      <point x="246" y="468" type="curve" smooth="yes"/>
      <point x="334" y="468"/>
      <point x="419" y="395"/>
      <point x="419" y="314" type="curve"/>
      <point x="415" y="329" type="line"/>
      <point x="422" y="460" type="line"/>
      <point x="436" y="460" type="line"/>
      <point x="436" y="90" type="line"/>
      <point x="416" y="90" type="line"/>
      <point x="416" y="134" type="line"/>
      <point x="420" y="134" type="line"/>
      <point x="420" y="90"/>
      <point x="369" y="-8"/>
      <point x="245" y="-8" type="curve" smooth="yes"/>
      <point x="112" y="-8"/>
      <point x="46" y="125"/>
    </contour>
  </outline>
</glyph>
<glyph name="h" format="2">
  <advance width="520"/>
  <unicode hex="0068"/>
  <anchor x="261" y="740" name="top"/>
  <anchor x="261" y="-40" name="bottom"/>
  <anchor x="413" y="0" name="b.cedilla"/>
  <outline>
    <contour>
      <point x="90" y="0" type="line"/>
      <point x="110" y="0" type="line"/>
      <point x="110" y="700" type="line"/>
      <point x="90" y="700" type="line"/>
    </contour>
    <contour>
      <point x="97" y="297" type="line"/>
      <point x="110" y="297" type="line"/>
      <point x="110" y="373"/>
      <point x="188" y="450"/>
      <point x="270" y="450" type="curve" smooth="yes"/>
      <point x="350" y="450"/>
      <point x="410" y="398"/>
      <point x="410" y="315" type="curve" smooth="yes"/>
      <point x="410" y="0" type="line"/>
      <point x="430" y="0" type="line"/>
      <point x="430" y="315" type="line" smooth="yes"/>
      <point x="430" y="407"/>
      <point x="363" y="468"/>
      <point x="277" y="468" type="curve" smooth="yes"/>
      <point x="196" y="468"/>
      <point x="128" y="419"/>
      <point x="103" y="342" type="curve"/>
      <point x="114" y="342" type="line"/>
      <point x="114" y="365" type="line"/>
      <point x="97" y="365" type="line"/>
    </contour>
  </outline>
  <guideline angle="90" name="h_1" x="261" y="0"/>
</glyph>
<glyph name="k" format="2">
  <advance width="355"/>
  <unicode hex="006B"/>
  <outline>
    <contour>
      <point x="90" y="0" type="line"/>
      <point x="112" y="0" type="line"/>
      <point x="112" y="700" type="line"/>
      <point x="90" y="700" type="line"/>
    </contour>
    <contour>
      <point x="141" y="253" type="line"/>
      <point x="318" y="0" type="line"/>
      <point x="340" y="0" type="line"/>
      <point x="156" y="270" type="line"/>
    </contour>
    <contour>
      <point x="103" y="183" type="line"/>
      <point x="320" y="460" type="line"/>
      <point x="298" y="460" type="line"/>
      <point x="103" y="220" type="line"/>
    </contour>
  </outline>
  <guideline angle="50.8263" x="144" y="271"/>
  <guideline angle="51.8681" x="163" y="260"/>
  <guideline angle="304.946" x="144" y="249"/>
  <guideline angle="124.221" x="340" y="0"/>
</glyph>
<glyph name="l" format="2">
  <advance width="200"/>
  <unicode hex="006C"/>
  <outline>
    <contour>
      <point x="90" y="0" type="line"/>
      <point x="90" y="700" type="line"/>
      <point x="110" y="700" type="line"/>
      <point x="110" y="0" type="line"/>
    </contour>
  </outline>
</glyph>
<glyph name="m" format="2">
  <advance width="720"/>
  <unicode hex="006D"/>
  <outline>
    <contour>
      <point x="496" y="470" type="curve" smooth="yes"/>
      <point x="600" y="470"/>
      <point x="630" y="394"/>
      <point x="630" y="337" type="curve" smooth="yes"/>
      <point x="630" y="0" type="line"/>
      <point x="610" y="0" type="line"/>
      <point x="610" y="331" type="line" smooth="yes"/>
      <point x="610" y="410"/>
      <point x="570" y="452"/>
      <point x="496" y="452" type="curve" smooth="yes"/>
      <point x="426" y="452"/>
      <point x="376" y="394"/>
      <point x="370" y="284" type="curve"/>
      <point x="357" y="284" type="line"/>
      <point x="357" y="349" type="line"/>
      <point x="377" y="349" type="line"/>
      <point x="362" y="344" type="line"/>
      <point x="366" y="368"/>
      <point x="389" y="470"/>
    </contour>
    <contour>
      <point x="235" y="470" type="curve" smooth="yes"/>
      <point x="375" y="470"/>
      <point x="370" y="318"/>
      <point x="370" y="318" type="curve"/>
      <point x="370" y="0" type="line"/>
      <point x="350" y="0" type="line"/>
      <point x="350" y="320" type="line" smooth="yes"/>
      <point x="350" y="398"/>
      <point x="304" y="452"/>
      <point x="235" y="452" type="curve" smooth="yes"/>
      <point x="168" y="452"/>
      <point x="110" y="378"/>
      <point x="110" y="276" type="curve"/>
      <point x="99" y="276" type="line"/>
      <point x="99" y="354" type="line"/>
      <point x="109" y="354" type="line"/>
      <point x="102" y="348" type="line"/>
      <point x="121" y="417"/>
      <point x="166" y="470"/>
    </contour>
    <contour>
      <point x="90" y="0" type="line"/>
      <point x="90" y="460" type="line"/>
      <point x="106" y="460" type="line"/>
      <point x="110" y="391" type="line"/>
      <point x="110" y="0" type="line"/>
    </contour>
  </outline>
</glyph>
<glyph name="n" format="2">
  <advance width="520"/>
  <unicode hex="006E"/>
  <anchor x="252" y="530" name="top"/>
  <anchor x="252" y="-40" name="bottom"/>
  <outline>
    <contour>
      <point x="90" y="0" type="line"/>
      <point x="110" y="0" type="line"/>
      <point x="110" y="361" type="line"/>
      <point x="107" y="361" type="line"/>
      <point x="104" y="460" type="line"/>
      <point x="90" y="460" type="line"/>
    </contour>
    <contour>
      <point x="97" y="297" type="line"/>
      <point x="110" y="297" type="line"/>
      <point x="110" y="373"/>
      <point x="188" y="450"/>
      <point x="270" y="450" type="curve" smooth="yes"/>
      <point x="350" y="450"/>
      <point x="410" y="398"/>
      <point x="410" y="315" type="curve" smooth="yes"/>
      <point x="410" y="0" type="line"/>
      <point x="430" y="0" type="line"/>
      <point x="430" y="315" type="line" smooth="yes"/>
      <point x="430" y="407"/>
      <point x="363" y="468"/>
      <point x="277" y="468" type="curve" smooth="yes"/>
      <point x="196" y="468"/>
      <point x="128" y="419"/>
      <point x="103" y="342" type="curve"/>
      <point x="108" y="342" type="line"/>
      <point x="108" y="345" type="line"/>
      <point x="97" y="345" type="line"/>
    </contour>
  </outline>
  <guideline angle="90" name="h_1" x="252" y="0"/>
</glyph>
<glyph name="o" format="2">
  <advance width="480"/>
  <unicode hex="006F"/>
  <anchor x="240" y="520" name="top"/>
  <outline>
    <contour>
      <point x="240" y="-10" type="line"/>
      <point x="117" y="-10"/>
      <point x="35" y="87"/>
      <point x="35" y="230" type="curve" smooth="yes"/>
      <point x="35" y="374"/>
      <point x="117" y="470"/>
      <point x="240" y="470" type="curve"/>
      <point x="240" y="450" type="line"/>
      <point x="130" y="450"/>
      <point x="55" y="361"/>
      <point x="55" y="230" type="curve" smooth="yes"/>
      <point x="55" y="98"/>
      <point x="129" y="10"/>
      <point x="240" y="10" type="curve"/>
    </contour>
    <contour>
      <point x="240" y="470" type="line"/>
      <point x="363" y="470"/>
      <point x="445" y="373"/>
      <point x="445" y="230" type="curve" smooth="yes"/>
      <point x="445" y="86"/>
      <point x="363" y="-10"/>
      <point x="240" y="-10" type="curve"/>
      <point x="240" y="10" type="line"/>
      <point x="350" y="10"/>
      <point x="425" y="99"/>
      <point x="425" y="230" type="curve" smooth="yes"/>
      <point x="425" y="362"/>
      <point x="351" y="450"/>
      <point x="240" y="450" type="curve"/>
    </contour>
  </outline>
</glyph>
<glyph name="p" format="2">
  <advance width="546"/>
  <unicode hex="0070"/>
  <anchor x="281" y="530" name="top"/>
  <anchor x="281" y="-40" name="bottom"/>
  <outline>
    <contour>
      <point x="90" y="-200" type="line"/>
      <point x="110" y="-200" type="line"/>
      <point x="110" y="100" type="line" smooth="yes"/>
      <point x="110" y="107"/>
      <point x="109" y="113"/>
      <point x="108" y="120" type="curve"/>
      <point x="108" y="309" type="line"/>
      <point x="100" y="460" type="line"/>
      <point x="90" y="460" type="line"/>
    </contour>
    <contour>
      <point x="100" y="120" type="line"/>
      <point x="109" y="120" type="line"/>
      <point x="135" y="44"/>
      <point x="208" y="-8"/>
      <point x="288" y="-8" type="curve" smooth="yes"/>
      <point x="408" y="-8"/>
      <point x="486" y="87"/>
      <point x="486" y="235" type="curve" smooth="yes"/>
      <point x="486" y="376"/>
      <point x="408" y="468"/>
      <point x="288" y="468" type="curve" smooth="yes"/>
      <point x="207" y="468"/>
      <point x="145" y="424"/>
      <point x="110" y="343" type="curve"/>
      <point x="100" y="343" type="line"/>
    </contour>
    <contour>
      <point x="107" y="215" type="curve" smooth="yes"/>
      <point x="107" y="245" type="line" smooth="yes"/>
      <point x="107" y="365"/>
      <point x="182" y="450"/>
      <point x="288" y="450" type="curve" smooth="yes"/>
      <point x="395" y="450"/>
      <point x="466" y="364"/>
      <point x="466" y="235" type="curve" smooth="yes"/>
      <point x="466" y="99"/>
      <point x="396" y="10"/>
      <point x="288" y="10" type="curve" smooth="yes"/>
      <point x="182" y="10"/>
      <point x="107" y="95"/>
    </contour>
  </outline>
  <guideline angle="90" name="h_1" x="281" y="0"/>
</glyph>
<glyph name="q" format="2">
  <advance width="491"/>
  <unicode hex="0071"/>
  <outline>
    <contour>
      <point x="416" y="-200" type="line"/>
      <point x="416" y="90" type="line"/>
      <point x="436" y="90" type="line"/>
      <point x="436" y="-200" type="line"/>
    </contour>
    <contour>
      <point x="66" y="231" type="curve" smooth="yes"/>
      <point x="66" y="124"/>
      <point x="126" y="12"/>
      <point x="245" y="12" type="curve" smooth="yes"/>
      <point x="324" y="12"/>
      <point x="415" y="48"/>
      <point x="415" y="230" type="curve" smooth="yes"/>
      <point x="415" y="240" type="line" smooth="yes"/>
      <point x="415" y="398"/>
      <point x="329" y="448"/>
      <point x="246" y="448" type="curve" smooth="yes"/>
      <point x="117" y="448"/>
      <point x="66" y="321"/>
    </contour>
    <contour>
      <point x="46" y="231" type="curve" smooth="yes"/>
      <point x="46" y="345"/>
      <point x="112" y="468"/>
      <point x="246" y="468" type="curve" smooth="yes"/>
      <point x="334" y="468"/>
      <point x="419" y="395"/>
      <point x="419" y="314" type="curve"/>
      <point x="415" y="329" type="line"/>
      <point x="422" y="460" type="line"/>
      <point x="436" y="460" type="line"/>
      <point x="436" y="90" type="line"/>
      <point x="416" y="90" type="line"/>
      <point x="416" y="134" type="line"/>
      <point x="420" y="134" type="line"/>
      <point x="420" y="90"/>
      <point x="369" y="-8"/>
      <point x="245" y="-8" type="curve" smooth="yes"/>
      <point x="112" y="-8"/>
      <point x="46" y="125"/>
    </contour>
  </outline>
</glyph>
<glyph name="r" format="2">
  <advance width="355"/>
  <unicode hex="0072"/>
  <anchor x="206" y="530" name="top"/>
  <anchor x="206" y="-40" name="bottom"/>
  <outline>
    <contour>
      <point x="90" y="0" type="line"/>
      <point x="110" y="0" type="line"/>
      <point x="110" y="280" type="line" smooth="yes"/>
      <point x="110" y="373"/>
      <point x="185" y="454"/>
      <point x="265" y="454" type="curve" smooth="yes"/>
      <point x="282" y="454"/>
      <point x="301" y="450"/>
      <point x="309" y="446" type="curve"/>
      <point x="312" y="446" type="line"/>
      <point x="312" y="464" type="line"/>
      <point x="300" y="468"/>
      <point x="283" y="470"/>
      <point x="268" y="470" type="curve" smooth="yes"/>
      <point x="197" y="470"/>
      <point x="133" y="418"/>
      <point x="110" y="342" type="curve"/>
      <point x="109" y="342" type="line"/>
      <point x="106" y="460" type="line"/>
      <point x="90" y="460" type="line"/>
    </contour>
  </outline>
  <guideline angle="90" name="h_1" x="206" y="0"/>
</glyph>
<glyph name="s" format="2">
  <advance width="452"/>
  <unicode hex="0073"/>
  <anchor x="210" y="520" name="top"/>
  <anchor x="230" y="-60" name="bottom"/>
  <outline>
    <contour>
      <point x="35" y="136" type="curve"/>
      <point x="57" y="136" type="line"/>
      <point x="57" y="54"/>
      <point x="139" y="10"/>
      <point x="237" y="10" type="curve" smooth="yes"/>
      <point x="334" y="10"/>
      <point x="395" y="39"/>
      <point x="395" y="130" type="curve" smooth="yes"/>
      <point x="395" y="269"/>
      <point x="55" y="172"/>
      <point x="55" y="340" type="curve" smooth="yes"/>
      <point x="55" y="407"/>
      <point x="105" y="470"/>
      <point x="215" y="470" type="curve" smooth="yes"/>
      <point x="324" y="470"/>
      <point x="397" y="414"/>
      <point x="397" y="336" type="curve"/>
      <point x="375" y="336" type="line"/>
      <point x="375" y="384"/>
      <point x="337" y="450"/>
      <point x="215" y="450" type="curve" smooth="yes"/>
      <point x="107" y="450"/>
      <point x="77" y="385"/>
      <point x="77" y="340" type="curve" smooth="yes"/>
      <point x="78" y="191"/>
      <point x="417" y="288"/>
      <point x="417" y="130" type="curve" smooth="yes"/>
      <point x="417" y="10"/>
      <point x="324" y="-10"/>
      <point x="237" y="-10" type="curve" smooth="yes"/>
      <point x="115" y="-10"/>
      <point x="35" y="52"/>
    </contour>
  </outline>
</glyph>
<glyph name="t" format="2">
  <advance width="262"/>
  <unicode hex="0074"/>
  <anchor x="120" y="660" name="top"/>
  <anchor x="154" y="-40" name="bottom"/>
  <anchor x="225" y="700" name="t.quoteright"/>
  <outline>
    <contour>
      <point x="30" y="442" type="line"/>
      <point x="225" y="442" type="line"/>
      <point x="225" y="460" type="line"/>
      <point x="108" y="460" type="line"/>
      <point x="30" y="454" type="line"/>
    </contour>
    <contour>
      <point x="105" y="151" type="line" smooth="yes"/>
      <point x="105" y="30"/>
      <point x="135" y="-10"/>
      <point x="229" y="-10" type="curve" smooth="yes"/>
      <point x="242" y="-10" type="line"/>
      <point x="242" y="8" type="line"/>
      <point x="229" y="8" type="line" smooth="yes"/>
      <point x="150" y="8"/>
      <point x="125" y="42"/>
      <point x="125" y="151" type="curve" smooth="yes"/>
      <point x="125" y="609" type="line"/>
      <point x="111" y="609" type="line"/>
      <point x="107" y="459" type="line"/>
      <point x="105" y="459" type="line"/>
    </contour>
  </outline>
  <guideline angle="90" name="h_1" x="153" y="0"/>
</glyph>
<glyph name="u" format="2">
  <advance width="500"/>
  <unicode hex="0075"/>
  <anchor x="250" y="540" name="top"/>
  <outline>
    <contour>
      <point x="420" y="460" type="line"/>
      <point x="420" y="0" type="line"/>
      <point x="404" y="0" type="line"/>
      <point x="400" y="120" type="line"/>
      <point x="400" y="460" type="line"/>
    </contour>
    <contour>
      <point x="226" y="-10" type="curve" smooth="yes"/>
      <point x="139" y="-10"/>
      <point x="80" y="53"/>
      <point x="80" y="145" type="curve" smooth="yes"/>
      <point x="80" y="460" type="line"/>
      <point x="100" y="460" type="line"/>
      <point x="100" y="145" type="line" smooth="yes"/>
      <point x="100" y="62"/>
      <point x="154" y="6"/>
      <point x="235" y="6" type="curve" smooth="yes"/>
      <point x="317" y="6"/>
      <point x="400" y="84"/>
      <point x="400" y="160" type="curve"/>
      <point x="413" y="160" type="line"/>
      <point x="413" y="119" type="line"/>
      <point x="407" y="119" type="line"/>
      <point x="412" y="122" type="line"/>
      <point x="377" y="43"/>
      <point x="303" y="-10"/>
    </contour>
  </outline>
  <guideline angle="90" x="250" y="0"/>
</glyph>
<glyph name="v" format="2">
  <advance width="452"/>
  <unicode hex="0076"/>
  <anchor x="226" y="530" name="top"/>
  <anchor x="226" y="-40" name="bottom"/>
  <outline>
    <contour>
      <point x="215" y="0" type="line"/>
      <point x="237" y="0" type="line"/>
      <point x="408" y="460" type="line"/>
      <point x="386" y="460" type="line"/>
      <point x="222" y="20" type="line"/>
      <point x="230" y="20" type="line"/>
      <point x="66" y="460" type="line"/>
      <point x="44" y="460" type="line"/>
    </contour>
  </outline>
  <guideline angle="90" name="h_1" x="226" y="0"/>
</glyph>
<glyph name="w" format="2">
  <advance width="652"/>
  <unicode hex="0077"/>
  <anchor x="336" y="530" name="top"/>
  <anchor x="336" y="-40" name="bottom"/>
  <outline>
    <contour>
      <point x="186" y="0" type="line"/>
      <point x="206" y="0" type="line"/>
      <point x="321" y="375" type="line" smooth="yes"/>
      <point x="327" y="396"/>
      <point x="333" y="420"/>
      <point x="336" y="440" type="curve"/>
      <point x="331" y="438" type="line"/>
      <point x="341" y="438" type="line"/>
      <point x="336" y="440" type="line"/>
      <point x="339" y="420"/>
      <point x="344" y="396"/>
      <point x="350" y="375" type="curve" smooth="yes"/>
      <point x="466" y="0" type="line"/>
      <point x="486" y="0" type="line"/>
      <point x="608" y="460" type="line"/>
      <point x="586" y="460" type="line"/>
      <point x="487" y="81" type="line" smooth="yes"/>
      <point x="482" y="61"/>
      <point x="478" y="40"/>
      <point x="476" y="20" type="curve"/>
      <point x="479" y="22" type="line"/>
      <point x="473" y="22" type="line"/>
      <point x="476" y="20" type="line"/>
      <point x="472" y="40"/>
      <point x="467" y="61"/>
      <point x="461" y="81" type="curve" smooth="yes"/>
      <point x="346" y="460" type="line"/>
      <point x="326" y="460" type="line"/>
      <point x="211" y="81" type="line" smooth="yes"/>
      <point x="205" y="61"/>
      <point x="200" y="40"/>
      <point x="196" y="20" type="curve"/>
      <point x="200" y="22" type="line"/>
      <point x="192" y="22" type="line"/>
      <point x="196" y="20" type="line"/>
      <point x="192" y="40"/>
      <point x="187" y="61"/>
      <point x="181" y="81" type="curve" smooth="yes"/>
      <point x="66" y="460" type="line"/>
      <point x="44" y="460" type="line"/>
    </contour>
  </outline>
  <guideline angle="90" name="h_1" x="336" y="0"/>
  <guideline angle="90" x="326" y="0"/>
  <guideline angle="90" x="346" y="0"/>
  <guideline angle="90" x="206" y="0"/>
  <guideline angle="90" x="466" y="0"/>
  <guideline angle="90" x="196" y="0"/>
  <guideline angle="90" x="186" y="0"/>
  <guideline angle="90" x="66" y="0"/>
  <guideline angle="90" x="44" y="0"/>
  <guideline angle="90" x="586" y="0"/>
  <guideline angle="90" x="608" y="0"/>
  <guideline angle="90" x="486" y="0"/>
  <guideline angle="90" x="476" y="0"/>
  <guideline angle="0" x="0" y="81"/>
  <guideline angle="0" x="0" y="20"/>
  <guideline angle="0" x="0" y="22"/>
  <guideline angle="0" x="0" y="40"/>
  <guideline angle="0" x="0" y="375"/>
  <guideline angle="0" x="0" y="440"/>
  <guideline angle="0" x="0" y="438"/>
  <guideline angle="0" x="0" y="420"/>
</glyph>
<glyph name="x" format="2">
  <advance width="416"/>
  <unicode hex="0078"/>
  <outline>
    <contour>
      <point x="50" y="0" type="line"/>
      <point x="336" y="460" type="line"/>
      <point x="356" y="460" type="line"/>
      <point x="70" y="0" type="line"/>
    </contour>
    <contour>
      <point x="346" y="0" type="line"/>
      <point x="60" y="460" type="line"/>
      <point x="80" y="460" type="line"/>
      <point x="366" y="0" type="line"/>
    </contour>
  </outline>
</glyph>
<glyph name="y" format="2">
  <advance width="469"/>
  <unicode hex="0079"/>
  <anchor x="235" y="530" name="top"/>
  <anchor x="368" y="-40" name="bottom"/>
  <outline>
    <contour>
      <point x="113" y="-200" type="line"/>
      <point x="145" y="-200" type="line" smooth="yes"/>
      <point x="187" y="-200"/>
      <point x="211" y="-182"/>
      <point x="226" y="-138" type="curve" smooth="yes"/>
      <point x="425" y="460" type="line"/>
      <point x="405" y="460" type="line"/>
      <point x="238" y="-38" type="line"/>
      <point x="234" y="-53" type="line"/>
      <point x="208" y="-129" type="line" smooth="yes"/>
      <point x="193" y="-172"/>
      <point x="180" y="-182"/>
      <point x="140" y="-182" type="curve" smooth="yes"/>
      <point x="113" y="-182" type="line"/>
    </contour>
    <contour>
      <point x="44" y="460" type="line"/>
      <point x="237" y="-79" type="line"/>
      <point x="249" y="-52" type="line"/>
      <point x="65" y="460" type="line"/>
    </contour>
  </outline>
  <guideline angle="90" x="235" y="0"/>
  <guideline angle="251.565" x="220" y="-92"/>
  <guideline angle="71.5651" x="213" y="-178"/>
</glyph>
<glyph name="z" format="2">
  <advance width="450"/>
  <unicode hex="007A"/>
  <anchor x="226" y="530" name="top"/>
  <anchor x="226" y="-40" name="bottom"/>
  <outline>
    <contour>
      <point x="60" y="0" type="line"/>
      <point x="390" y="0" type="line"/>
      <point x="390" y="18" type="line"/>
      <point x="71" y="18" type="line"/>
      <point x="76" y="9" type="line"/>
      <point x="390" y="442" type="line"/>
      <point x="390" y="460" type="line"/>
      <point x="60" y="460" type="line"/>
      <point x="60" y="442" type="line"/>
      <point x="381" y="442" type="line"/>
      <point x="378" y="451" type="line"/>
      <point x="60" y="18" type="line"/>
    </contour>
  </outline>
  <guideline angle="90" name="h_1" x="226" y="0"/>
</glyph>
<glyph name="braceleft" format="2">
  <advance width="324"/>
  <unicode hex="007B"/>
  <outline>
    <contour>
      <point x="40" y="326" type="curve"/>
      <point x="40" y="374" type="line"/>
      <point x="91" y="389"/>
      <point x="110" y="409"/>
      <point x="110" y="468" type="curve" smooth="yes"/>
      <point x="110" y="615" type="line" smooth="yes"/>
      <point x="110" y="774"/>
      <point x="186" y="780"/>
      <point x="284" y="780" type="curve"/>
      <point x="284" y="722" type="line"/>
      <point x="212" y="722"/>
      <point x="190" y="701"/>
      <point x="190" y="628" type="curve" smooth="yes"/>
      <point x="190" y="460" type="line" smooth="yes"/>
      <point x="190" y="404"/>
      <point x="164" y="371"/>
      <point x="126" y="348" type="curve"/>
      <point x="162" y="330"/>
      <point x="190" y="287"/>
      <point x="190" y="234" type="curve" smooth="yes"/>
      <point x="190" y="74" type="line" smooth="yes"/>
      <point x="190" y="4"/>
      <point x="214" y="-26"/>
      <point x="284" y="-26" type="curve"/>
      <point x="284" y="-80" type="line"/>
      <point x="132" y="-80"/>
      <point x="110" y="-42"/>
      <point x="110" y="97" type="curve" smooth="yes"/>
      <point x="110" y="230" type="line" smooth="yes"/>
      <point x="110" y="287"/>
      <point x="92" y="312"/>
    </contour>
  </outline>
</glyph>
<glyph name="bar" format="2">
  <advance width="220"/>
  <unicode hex="007C"/>
  <outline>
    <contour>
      <point x="100" y="-80" type="line"/>
      <point x="100" y="780" type="line"/>
      <point x="120" y="780" type="line"/>
      <point x="120" y="-80" type="line"/>
    </contour>
  </outline>
</glyph>
<glyph name="asciitilde" format="2">
  <advance width="510"/>
  <unicode hex="007E"/>
  <outline>
    <contour>
      <point x="65" y="208" type="line"/>
      <point x="87" y="260"/>
      <point x="124" y="288"/>
      <point x="172" y="288" type="curve" smooth="yes"/>
      <point x="243" y="288"/>
      <point x="283" y="226"/>
      <point x="347" y="226" type="curve" smooth="yes"/>
      <point x="382" y="226"/>
      <point x="407" y="246"/>
      <point x="425" y="288" type="curve"/>
      <point x="445" y="288" type="line"/>
      <point x="425" y="235"/>
      <point x="392" y="208"/>
      <point x="347" y="208" type="curve" smooth="yes"/>
      <point x="275" y="208"/>
      <point x="234" y="270"/>
      <point x="172" y="270" type="curve" smooth="yes"/>
      <point x="133" y="270"/>
      <point x="102" y="248"/>
      <point x="85" y="208" type="curve"/>
    </contour>
  </outline>
</glyph>
<glyph name="cent" format="2">
  <advance width="495"/>
  <unicode hex="00A2"/>
  <outline>
    <contour>
      <point x="112" y="-163" type="line"/>
      <point x="346" y="637" type="line"/>
      <point x="366" y="631" type="line"/>
      <point x="134" y="-170" type="line"/>
    </contour>
    <contour>
      <point x="240" y="-6" type="line"/>
      <point x="117" y="-6"/>
      <point x="35" y="89"/>
      <point x="35" y="230" type="curve" smooth="yes"/>
      <point x="35" y="372"/>
      <point x="117" y="466"/>
      <point x="240" y="466" type="curve"/>
      <point x="240" y="446" type="line"/>
      <point x="130" y="446"/>
      <point x="55" y="359"/>
      <point x="55" y="230" type="curve" smooth="yes"/>
      <point x="55" y="100"/>
      <point x="129" y="14"/>
      <point x="240" y="14" type="curve"/>
    </contour>
    <contour>
      <point x="240" y="10" type="line"/>
      <point x="368" y="10"/>
      <point x="414" y="118"/>
      <point x="421" y="150" type="curve"/>
      <point x="441" y="150" type="line"/>
      <point x="421" y="79"/>
      <point x="368" y="-10"/>
      <point x="240" y="-10" type="curve"/>
    </contour>
    <contour>
      <point x="240" y="470" type="line"/>
      <point x="359" y="470"/>
      <point x="418" y="405"/>
      <point x="440" y="320" type="curve"/>
      <point x="420" y="320" type="line"/>
      <point x="417" y="335"/>
      <point x="381" y="450"/>
      <point x="240" y="450" type="curve"/>
    </contour>
  </outline>
  <guideline angle="163.413" x="393" y="-247"/>
  <guideline angle="163.413" x="393" y="623"/>
</glyph>
<glyph name="yen" format="2">
  <advance width="398"/>
  <unicode hex="00A5"/>
  <outline>
    <contour>
      <point x="11" y="637" type="line"/>
      <point x="40" y="637" type="line"/>
      <point x="166" y="393" type="line"/>
      <point x="178" y="372"/>
      <point x="190" y="349"/>
      <point x="199" y="326" type="curve"/>
      <point x="208" y="349"/>
      <point x="218" y="366"/>
      <point x="234" y="397" type="curve" smooth="yes"/>
      <point x="353" y="637" type="line"/>
      <point x="387" y="637" type="line"/>
      <point x="221" y="326" type="line"/>
      <point x="388" y="326" type="line"/>
      <point x="388" y="306" type="line"/>
      <point x="211" y="306" type="line"/>
      <point x="211" y="187" type="line"/>
      <point x="388" y="187" type="line"/>
      <point x="388" y="167" type="line"/>
      <point x="211" y="167" type="line"/>
      <point x="211" y="0" type="line"/>
      <point x="189" y="0" type="line"/>
      <point x="189" y="167" type="line"/>
      <point x="10" y="167" type="line"/>
      <point x="10" y="187" type="line"/>
      <point x="189" y="187" type="line"/>
      <point x="189" y="306" type="line"/>
      <point x="10" y="306" type="line"/>
      <point x="10" y="326" type="line"/>
      <point x="177" y="326" type="line"/>
    </contour>
  </outline>
</glyph>
<glyph name="section" format="2">
  <advance width="465"/>
  <unicode hex="00A7"/>
  <outline>
    <contour>
      <point x="40" y="380" type="curve" smooth="yes"/>
      <point x="40" y="437"/>
      <point x="79" y="479"/>
      <point x="125" y="496" type="curve"/>
      <point x="101" y="513"/>
      <point x="85" y="551"/>
      <point x="85" y="589" type="curve" smooth="yes"/>
      <point x="85" y="656"/>
      <point x="153" y="688"/>
      <point x="229" y="688" type="curve" smooth="yes"/>
      <point x="320" y="688"/>
      <point x="375" y="639"/>
      <point x="375" y="546" type="curve"/>
      <point x="353" y="546" type="line"/>
      <point x="353" y="622"/>
      <point x="312" y="668"/>
      <point x="229" y="668" type="curve" smooth="yes"/>
      <point x="153" y="668"/>
      <point x="105" y="640"/>
      <point x="105" y="581" type="curve" smooth="yes"/>
      <point x="105" y="543"/>
      <point x="125" y="507"/>
      <point x="154" y="492" type="curve" smooth="yes"/>
      <point x="310" y="410" type="line" smooth="yes"/>
      <point x="351" y="388"/>
      <point x="425" y="358"/>
      <point x="425" y="299" type="curve" smooth="yes"/>
      <point x="425" y="244"/>
      <point x="385" y="211"/>
      <point x="339" y="194" type="curve"/>
      <point x="364" y="178"/>
      <point x="387" y="157"/>
      <point x="387" y="116" type="curve" smooth="yes"/>
      <point x="387" y="40"/>
      <point x="328" y="-8"/>
      <point x="239" y="-8" type="curve" smooth="yes"/>
      <point x="139" y="-8"/>
      <point x="75" y="52"/>
      <point x="75" y="148" type="curve"/>
      <point x="97" y="148" type="line"/>
      <point x="97" y="64"/>
      <point x="158" y="12"/>
      <point x="243" y="12" type="curve" smooth="yes"/>
      <point x="316" y="12"/>
      <point x="367" y="52"/>
      <point x="367" y="112" type="curve" smooth="yes"/>
      <point x="367" y="143"/>
      <point x="353" y="171"/>
      <point x="301" y="195" type="curve" smooth="yes"/>
      <point x="142" y="270" type="line" smooth="yes"/>
      <point x="73" y="302"/>
      <point x="40" y="329"/>
    </contour>
    <contour>
      <point x="60" y="382" type="curve" smooth="yes"/>
      <point x="60" y="340"/>
      <point x="85" y="314"/>
      <point x="180" y="271" type="curve" smooth="yes"/>
      <point x="306" y="214" type="line"/>
      <point x="311" y="212"/>
      <point x="316" y="211"/>
      <point x="322" y="211" type="curve" smooth="yes"/>
      <point x="361" y="211"/>
      <point x="405" y="261"/>
      <point x="405" y="294" type="curve" smooth="yes"/>
      <point x="405" y="324"/>
      <point x="400" y="340"/>
      <point x="288" y="400" type="curve" smooth="yes"/>
      <point x="137" y="481" type="line"/>
      <point x="97" y="472"/>
      <point x="60" y="421"/>
    </contour>
  </outline>
</glyph>
<glyph name="dieresis" format="2">
  <advance width="348"/>
  <unicode hex="00A8"/>
  <outline>
    <contour>
      <point x="80" y="560" type="line"/>
      <point x="110" y="560" type="line"/>
      <point x="110" y="590" type="line"/>
      <point x="80" y="590" type="line"/>
    </contour>
    <contour>
      <point x="238" y="560" type="line"/>
      <point x="268" y="560" type="line"/>
      <point x="268" y="590" type="line"/>
      <point x="238" y="590" type="line"/>
    </contour>
  </outline>
  <guideline angle="90" x="80" y="0"/>
  <guideline angle="90" x="110" y="0"/>
  <guideline angle="90" x="238" y="0"/>
  <guideline angle="90" x="268" y="0"/>
  <guideline angle="0" x="0" y="540"/>
  <guideline angle="90" x="174" y="0"/>
  <guideline angle="0" x="0" y="560"/>
  <guideline angle="0" x="0" y="590"/>
</glyph>
<glyph name="copyright" format="2">
  <advance width="572"/>
  <unicode hex="00A9"/>
  <outline>
    <contour>
      <point x="193" y="210" type="curve" smooth="yes"/>
      <point x="193" y="290"/>
      <point x="224" y="328"/>
      <point x="288" y="328" type="curve" smooth="yes"/>
      <point x="339" y="328"/>
      <point x="359" y="310"/>
      <point x="371" y="256" type="curve"/>
      <point x="349" y="256" type="line"/>
      <point x="344" y="295"/>
      <point x="328" y="307"/>
      <point x="284" y="307" type="curve" smooth="yes"/>
      <point x="239" y="307"/>
      <point x="214" y="273"/>
      <point x="214" y="211" type="curve" smooth="yes"/>
      <point x="214" y="145"/>
      <point x="237" y="115"/>
      <point x="289" y="115" type="curve" smooth="yes"/>
      <point x="319" y="115"/>
      <point x="333" y="125"/>
      <point x="349" y="160" type="curve"/>
      <point x="371" y="160" type="line"/>
      <point x="348" y="108"/>
      <point x="330" y="93"/>
      <point x="290" y="93" type="curve" smooth="yes"/>
      <point x="223" y="93"/>
      <point x="193" y="129"/>
    </contour>
    <contour>
      <point x="68" y="218" type="curve" smooth="yes"/>
      <point x="68" y="348"/>
      <point x="156" y="436"/>
      <point x="286" y="436" type="curve" smooth="yes"/>
      <point x="416" y="436"/>
      <point x="504" y="347"/>
      <point x="504" y="216" type="curve" smooth="yes"/>
      <point x="504" y="86"/>
      <point x="416" y="-2"/>
      <point x="286" y="-2" type="curve" smooth="yes"/>
      <point x="156" y="-2"/>
      <point x="68" y="87"/>
    </contour>
    <contour>
      <point x="90" y="218" type="curve" smooth="yes"/>
      <point x="90" y="100"/>
      <point x="169" y="20"/>
      <point x="286" y="20" type="curve" smooth="yes"/>
      <point x="403" y="20"/>
      <point x="482" y="99"/>
      <point x="482" y="216" type="curve" smooth="yes"/>
      <point x="482" y="335"/>
      <point x="404" y="414"/>
      <point x="286" y="414" type="curve" smooth="yes"/>
      <point x="169" y="414"/>
      <point x="90" y="335"/>
    </contour>
  </outline>
</glyph>
<glyph name="ordfeminine" format="2">
  <advance width="329"/>
  <unicode hex="00AA"/>
  <outline>
    <contour>
      <point x="19" y="419" type="curve" smooth="yes"/>
      <point x="18" y="472"/>
      <point x="56" y="502"/>
      <point x="138" y="514" type="curve" smooth="yes"/>
      <point x="206" y="524"/>
      <point x="200" y="523"/>
      <point x="231" y="530" type="curve"/>
      <point x="231" y="597"/>
      <point x="210" y="627"/>
      <point x="162" y="627" type="curve" smooth="yes"/>
      <point x="98" y="627"/>
      <point x="57" y="599"/>
      <point x="51" y="550" type="curve"/>
      <point x="30" y="558" type="line"/>
      <point x="38" y="615"/>
      <point x="86" y="648"/>
      <point x="163" y="648" type="curve" smooth="yes"/>
      <point x="222" y="648"/>
      <point x="251" y="614"/>
      <point x="251" y="543" type="curve" smooth="yes"/>
      <point x="251" y="438" type="line" smooth="yes"/>
      <point x="251" y="369"/>
      <point x="254" y="348"/>
      <point x="268" y="332" type="curve"/>
      <point x="246" y="332" type="line"/>
      <point x="239" y="346"/>
      <point x="236" y="359"/>
      <point x="236" y="374" type="curve"/>
      <point x="200" y="339"/>
      <point x="166" y="324"/>
      <point x="125" y="324" type="curve" smooth="yes"/>
      <point x="62" y="324"/>
      <point x="20" y="362"/>
    </contour>
    <contour>
      <point x="42" y="418" type="curve" smooth="yes"/>
      <point x="42" y="375"/>
      <point x="78" y="350"/>
      <point x="106" y="347" type="curve" smooth="yes"/>
      <point x="163" y="341"/>
      <point x="194" y="359"/>
      <point x="229" y="400" type="curve"/>
      <point x="234" y="405"/>
      <point x="230" y="439"/>
      <point x="230" y="508" type="curve"/>
      <point x="214" y="503"/>
      <point x="148" y="495"/>
      <point x="120" y="490" type="curve" smooth="yes"/>
      <point x="69" y="481"/>
      <point x="42" y="456"/>
    </contour>
  </outline>
</glyph>
<glyph name="uni00AD" format="2">
  <advance width="320"/>
  <unicode hex="00AD"/>
  <outline>
    <contour>
      <point x="50" y="234" type="line"/>
      <point x="50" y="252" type="line"/>
      <point x="270" y="252" type="line"/>
      <point x="270" y="234" type="line"/>
    </contour>
  </outline>
</glyph>
<glyph name="macron" format="2">
  <advance width="350"/>
  <unicode hex="00AF"/>
  <outline>
    <contour>
      <point x="40" y="560" type="line"/>
      <point x="310" y="560" type="line"/>
      <point x="310" y="578" type="line"/>
      <point x="40" y="578" type="line"/>
    </contour>
  </outline>
</glyph>
<glyph name="degree" format="2">
  <advance width="356"/>
  <unicode hex="00B0"/>
  <outline>
    <contour>
      <point x="58" y="525" type="curve" smooth="yes"/>
      <point x="58" y="592"/>
      <point x="111" y="645"/>
      <point x="178" y="645" type="curve" smooth="yes"/>
      <point x="245" y="645"/>
      <point x="298" y="591"/>
      <point x="298" y="525" type="curve" smooth="yes"/>
      <point x="298" y="457"/>
      <point x="244" y="404"/>
      <point x="178" y="404" type="curve" smooth="yes"/>
      <point x="112" y="404"/>
      <point x="58" y="457"/>
    </contour>
    <contour>
      <point x="113" y="525" type="curve" smooth="yes"/>
      <point x="113" y="484"/>
      <point x="142" y="459"/>
      <point x="178" y="459" type="curve" smooth="yes"/>
      <point x="213" y="459"/>
      <point x="243" y="484"/>
      <point x="243" y="525" type="curve" smooth="yes"/>
      <point x="243" y="565"/>
      <point x="214" y="590"/>
      <point x="178" y="590" type="curve" smooth="yes"/>
      <point x="142" y="590"/>
      <point x="113" y="565"/>
    </contour>
  </outline>
</glyph>
<glyph name="uni00B2" format="2">
  <advance width="296"/>
  <unicode hex="00B2"/>
  <outline>
    <contour>
      <point x="11" y="319" type="line"/>
      <point x="12" y="327"/>
      <point x="14" y="335"/>
      <point x="17" y="343" type="curve"/>
      <point x="33" y="382"/>
      <point x="75" y="417"/>
      <point x="123" y="452" type="curve" smooth="yes"/>
      <point x="190" y="501"/>
      <point x="211" y="516"/>
      <point x="211" y="546" type="curve" smooth="yes"/>
      <point x="211" y="577"/>
      <point x="188" y="594"/>
      <point x="151" y="594" type="curve" smooth="yes"/>
      <point x="103" y="594"/>
      <point x="96" y="574"/>
      <point x="85" y="545" type="curve"/>
      <point x="20" y="551" type="line"/>
      <point x="25" y="568" type="line"/>
      <point x="36" y="600"/>
      <point x="62" y="645"/>
      <point x="152" y="645" type="curve" smooth="yes"/>
      <point x="172" y="645"/>
      <point x="279" y="643"/>
      <point x="279" y="557" type="curve" smooth="yes"/>
      <point x="279" y="478"/>
      <point x="167" y="425"/>
      <point x="113" y="371" type="curve"/>
      <point x="281" y="371" type="line"/>
      <point x="281" y="319" type="line"/>
      <point x="45" y="319" type="line"/>
    </contour>
  </outline>
</glyph>
<glyph name="acute" format="2">
  <advance width="218"/>
  <unicode hex="00B4"/>
  <outline>
    <contour>
      <point x="60" y="540" type="line"/>
      <point x="75" y="540" type="line"/>
      <point x="158" y="700" type="line"/>
      <point x="137" y="700" type="line"/>
    </contour>
  </outline>
</glyph>
<glyph name="mu" format="2">
  <advance width="495"/>
  <unicode hex="00B5"/>
  <outline>
    <contour>
      <point x="83" y="-177" type="line"/>
      <point x="83" y="460" type="line"/>
      <point x="103" y="460" type="line"/>
      <point x="103" y="214" type="line" smooth="yes"/>
      <point x="103" y="74"/>
      <point x="157" y="8"/>
      <point x="246" y="8" type="curve" smooth="yes"/>
      <point x="322" y="8"/>
      <point x="391" y="70"/>
      <point x="391" y="213" type="curve" smooth="yes"/>
      <point x="391" y="460" type="line"/>
      <point x="411" y="460" type="line"/>
      <point x="411" y="0" type="line"/>
      <point x="391" y="0" type="line"/>
      <point x="391" y="104" type="line"/>
      <point x="390" y="104"/>
      <point x="390" y="104"/>
      <point x="389" y="104" type="curve"/>
      <point x="372" y="61"/>
      <point x="336" y="-10"/>
      <point x="249" y="-10" type="curve" smooth="yes"/>
      <point x="147" y="-10"/>
      <point x="110" y="49"/>
      <point x="90" y="146" type="curve"/>
      <point x="93" y="148" type="line"/>
      <point x="101" y="82"/>
      <point x="103" y="16"/>
      <point x="103" y="-50" type="curve" smooth="yes"/>
      <point x="103" y="-177" type="line"/>
    </contour>
  </outline>
</glyph>
<glyph name="paragraph" format="2">
  <advance width="478"/>
  <unicode hex="00B6"/>
  <outline>
    <contour>
      <point x="225" y="-177" type="line"/>
      <point x="247" y="-177" type="line"/>
      <point x="247" y="617" type="line"/>
      <point x="344" y="617" type="line"/>
      <point x="344" y="-177" type="line"/>
      <point x="366" y="-177" type="line"/>
      <point x="366" y="617" type="line"/>
      <point x="429" y="617" type="line"/>
      <point x="429" y="637" type="line"/>
      <point x="242" y="637" type="line" smooth="yes"/>
      <point x="135" y="637"/>
      <point x="50" y="572"/>
      <point x="50" y="454" type="curve" smooth="yes"/>
      <point x="50" y="365"/>
      <point x="105" y="284"/>
      <point x="225" y="277" type="curve"/>
    </contour>
  </outline>
</glyph>
<glyph name="periodcentered" format="2">
  <advance width="180"/>
  <unicode hex="00B7"/>
  <outline>
    <contour>
      <point x="80" y="230" type="line"/>
      <point x="80" y="310" type="line"/>
      <point x="100" y="310" type="line"/>
      <point x="100" y="230" type="line"/>
    </contour>
  </outline>
</glyph>
<glyph name="guillemotright" format="2">
  <advance width="495"/>
  <unicode hex="00BB"/>
  <outline>
    <contour>
      <point x="111" y="31" type="line"/>
      <point x="224" y="230" type="line"/>
      <point x="111" y="428" type="line"/>
      <point x="135" y="428" type="line"/>
      <point x="273" y="230" type="line"/>
      <point x="135" y="31" type="line"/>
    </contour>
    <contour>
      <point x="221" y="31" type="line"/>
      <point x="334" y="230" type="line"/>
      <point x="221" y="428" type="line"/>
      <point x="245" y="428" type="line"/>
      <point x="383" y="230" type="line"/>
      <point x="245" y="31" type="line"/>
    </contour>
  </outline>
</glyph>
<glyph name="onehalf" format="2">
  <advance width="742"/>
  <unicode hex="00BD"/>
  <outline>
    <component base="two.superior" xOffset="405" yOffset="-354"/>
    <contour>
      <point x="55" y="571" type="line"/>
      <point x="103" y="588"/>
      <point x="154" y="626"/>
      <point x="191" y="669" type="curve"/>
      <point x="174" y="669" type="line"/>
      <point x="174" y="354" type="line"/>
      <point x="194" y="354" type="line"/>
      <point x="194" y="680" type="line"/>
      <point x="177" y="680" type="line"/>
      <point x="149" y="644"/>
      <point x="87" y="602"/>
      <point x="55" y="589" type="curve"/>
    </contour>
    <contour>
      <point x="130" y="0" type="line"/>
      <point x="154" y="0" type="line"/>
      <point x="639" y="680" type="line"/>
      <point x="615" y="680" type="line"/>
    </contour>
  </outline>
  <guideline angle="219.542" x="628" y="141"/>
</glyph>
<glyph name="threequarters" format="2">
  <advance width="742"/>
  <unicode hex="00BE"/>
  <outline>
    <component base="fraction" xOffset="130"/>
    <component base="three.superior"/>
    <contour>
      <point x="440" y="87" type="line"/>
      <point x="608" y="313" type="line"/>
      <point x="596" y="321" type="line"/>
      <point x="596" y="0" type="line"/>
      <point x="616" y="0" type="line"/>
      <point x="616" y="326" type="line"/>
      <point x="594" y="326" type="line"/>
      <point x="428" y="103" type="line"/>
      <point x="428" y="81" type="line"/>
      <point x="662" y="81" type="line"/>
      <point x="662" y="99" type="line"/>
      <point x="434" y="99" type="line"/>
    </contour>
  </outline>
</glyph>
<glyph name="questiondown" format="2">
  <advance width="502"/>
  <unicode hex="00BF"/>
  <outline>
    <contour>
      <point x="232" y="380" type="line"/>
      <point x="232" y="460" type="line"/>
      <point x="312" y="460" type="line"/>
      <point x="312" y="380" type="line"/>
    </contour>
    <contour>
      <point x="40" y="-49" type="curve" smooth="yes"/>
      <point x="40" y="131"/>
      <point x="232" y="145"/>
      <point x="232" y="290" type="curve" smooth="yes"/>
      <point x="232" y="330" type="line"/>
      <point x="312" y="330" type="line"/>
      <point x="312" y="290" type="line" smooth="yes"/>
      <point x="312" y="116"/>
      <point x="120" y="61"/>
      <point x="120" y="-38" type="curve" smooth="yes"/>
      <point x="120" y="-105"/>
      <point x="133" y="-170"/>
      <point x="252" y="-170" type="curve" smooth="yes"/>
      <point x="336" y="-170"/>
      <point x="378" y="-101"/>
      <point x="382" y="-20" type="curve"/>
      <point x="462" y="-20" type="line"/>
      <point x="461" y="-160"/>
      <point x="373" y="-250"/>
      <point x="252" y="-250" type="curve" smooth="yes"/>
      <point x="106" y="-250"/>
      <point x="40" y="-170"/>
    </contour>
  </outline>
</glyph>
<glyph name="AE" format="2">
  <advance width="830"/>
  <unicode hex="00C6"/>
  <outline>
    <contour>
      <point x="220" y="372" type="line"/>
      <point x="390" y="372" type="line"/>
      <point x="390" y="610" type="line"/>
      <point x="290" y="610" type="line"/>
    </contour>
    <contour>
      <point x="30" y="0" type="line"/>
      <point x="240" y="700" type="line"/>
      <point x="800" y="700" type="line"/>
      <point x="800" y="620" type="line"/>
      <point x="480" y="620" type="line"/>
      <point x="480" y="397" type="line"/>
      <point x="760" y="397" type="line"/>
      <point x="760" y="317" type="line"/>
      <point x="480" y="317" type="line"/>
      <point x="480" y="80" type="line"/>
      <point x="800" y="80" type="line"/>
      <point x="800" y="0" type="line"/>
      <point x="390" y="0" type="line"/>
      <point x="390" y="282" type="line"/>
      <point x="200" y="282" type="line"/>
      <point x="120" y="0" type="line"/>
    </contour>
  </outline>
</glyph>
<glyph name="Eth" format="2">
  <advance width="630"/>
  <unicode hex="00D0"/>
  <outline>
    <component base="D"/>
    <contour>
      <point x="10" y="351" type="line"/>
      <point x="290" y="351" type="line"/>
      <point x="290" y="369" type="line"/>
      <point x="10" y="369" type="line"/>
    </contour>
  </outline>
</glyph>
<glyph name="multiply" format="2">
  <advance width="520"/>
  <unicode hex="00D7"/>
  <outline>
    <contour>
      <point x="88" y="470" type="line"/>
      <point x="415" y="144" type="line"/>
      <point x="431" y="160" type="line"/>
      <point x="105" y="486" type="line"/>
    </contour>
    <contour>
      <point x="88" y="160" type="line"/>
      <point x="105" y="144" type="line"/>
      <point x="431" y="470" type="line"/>
      <point x="415" y="486" type="line"/>
    </contour>
  </outline>
</glyph>
<glyph name="Oslash" format="2">
  <advance width="660"/>
  <unicode hex="00D8"/>
  <outline>
    <contour>
      <point x="576" y="690" type="line"/>
      <point x="60" y="-10" type="line"/>
      <point x="84" y="-10" type="line"/>
      <point x="600" y="690" type="line"/>
    </contour>
    <contour>
      <point x="358" y="10" type="line"/>
      <point x="199" y="10"/>
      <point x="102" y="136"/>
      <point x="102" y="340" type="curve" smooth="yes"/>
      <point x="102" y="544"/>
      <point x="199" y="670"/>
      <point x="358" y="670" type="curve"/>
      <point x="358" y="690" type="line"/>
      <point x="189" y="690"/>
      <point x="80" y="553"/>
      <point x="80" y="340" type="curve" smooth="yes"/>
      <point x="80" y="127"/>
      <point x="189" y="-10"/>
      <point x="358" y="-10" type="curve"/>
    </contour>
    <contour>
      <point x="358" y="670" type="line"/>
      <point x="517" y="670"/>
      <point x="614" y="544"/>
      <point x="614" y="340" type="curve" smooth="yes"/>
      <point x="614" y="136"/>
      <point x="517" y="10"/>
      <point x="358" y="10" type="curve"/>
      <point x="358" y="-10" type="line"/>
      <point x="527" y="-10"/>
      <point x="636" y="127"/>
      <point x="636" y="340" type="curve" smooth="yes"/>
      <point x="636" y="553"/>
      <point x="527" y="690"/>
      <point x="358" y="690" type="curve"/>
    </contour>
  </outline>
</glyph>
<glyph name="Thorn" format="2">
  <advance width="472"/>
  <unicode hex="00DE"/>
  <outline>
    <contour>
      <point x="100" y="20" type="line"/>
      <point x="120" y="20" type="line"/>
      <point x="120" y="680" type="line"/>
      <point x="100" y="680" type="line"/>
    </contour>
    <contour>
      <point x="114" y="161" type="line"/>
      <point x="161" y="161" type="line" smooth="yes"/>
      <point x="314" y="161"/>
      <point x="392" y="224"/>
      <point x="392" y="349" type="curve" smooth="yes"/>
      <point x="392" y="464"/>
      <point x="312" y="537"/>
      <point x="158" y="537" type="curve" smooth="yes"/>
      <point x="114" y="537" type="line"/>
      <point x="114" y="519" type="line"/>
      <point x="160" y="519" type="line" smooth="yes"/>
      <point x="291" y="519"/>
      <point x="370" y="458"/>
      <point x="370" y="348" type="curve" smooth="yes"/>
      <point x="370" y="231"/>
      <point x="293" y="179"/>
      <point x="163" y="179" type="curve" smooth="yes"/>
      <point x="114" y="179" type="line"/>
    </contour>
  </outline>
</glyph>
<glyph name="germandbls" format="2">
  <advance width="512"/>
  <unicode hex="00DF"/>
  <outline>
    <contour>
      <point x="90" y="0" type="line"/>
      <point x="110" y="0" type="line"/>
      <point x="110" y="480" type="line" smooth="yes"/>
      <point x="110" y="604"/>
      <point x="165" y="668"/>
      <point x="257" y="668" type="curve" smooth="yes"/>
      <point x="351" y="668"/>
      <point x="404" y="619"/>
      <point x="404" y="529" type="curve" smooth="yes"/>
      <point x="404" y="447"/>
      <point x="326" y="372"/>
      <point x="230" y="372" type="curve" smooth="yes"/>
      <point x="199" y="372" type="line"/>
      <point x="199" y="352" type="line"/>
      <point x="234" y="352" type="line" smooth="yes"/>
      <point x="362" y="352"/>
      <point x="432" y="292"/>
      <point x="432" y="182" type="curve" smooth="yes"/>
      <point x="432" y="79"/>
      <point x="366" y="10"/>
      <point x="266" y="10" type="curve" smooth="yes"/>
      <point x="224" y="10"/>
      <point x="197" y="19"/>
      <point x="171" y="34" type="curve"/>
      <point x="171" y="12" type="line"/>
      <point x="193" y="1"/>
      <point x="223" y="-8"/>
      <point x="261" y="-8" type="curve" smooth="yes"/>
      <point x="376" y="-8"/>
      <point x="452" y="66"/>
      <point x="452" y="176" type="curve" smooth="yes"/>
      <point x="452" y="293"/>
      <point x="391" y="357"/>
      <point x="268" y="369" type="curve"/>
      <point x="273" y="360" type="line"/>
      <point x="367" y="381"/>
      <point x="424" y="452"/>
      <point x="424" y="532" type="curve" smooth="yes"/>
      <point x="424" y="629"/>
      <point x="362" y="686"/>
      <point x="259" y="686" type="curve" smooth="yes"/>
      <point x="155" y="686"/>
      <point x="90" y="616"/>
      <point x="90" y="492" type="curve" smooth="yes"/>
    </contour>
  </outline>
</glyph>
<glyph name="aacute" format="2">
  <advance width="493"/>
  <unicode hex="00E1"/>
  <outline>
    <component base="a"/>
    <contour>
      <point x="200" y="520" type="line"/>
      <point x="250" y="680" type="line"/>
      <point x="330" y="680" type="line"/>
      <point x="264" y="520" type="line"/>
    </contour>
  </outline>
</glyph>
<glyph name="ae" format="2">
  <advance width="757"/>
  <unicode hex="00E6"/>
  <outline>
    <contour>
      <point x="392" y="289" type="curve"/>
      <point x="650" y="290" type="line"/>
      <point x="637" y="358"/>
      <point x="594" y="417"/>
      <point x="524" y="417" type="curve" smooth="yes"/>
      <point x="465" y="417"/>
      <point x="402" y="352"/>
    </contour>
    <contour>
      <point x="110" y="136" type="curve" smooth="yes"/>
      <point x="110" y="69"/>
      <point x="163" y="55"/>
      <point x="189" y="55" type="curve" smooth="yes"/>
      <point x="234" y="55"/>
      <point x="307" y="97"/>
      <point x="327" y="141" type="curve"/>
      <point x="348" y="174"/>
      <point x="334" y="226"/>
      <point x="334" y="261" type="curve"/>
      <point x="248" y="255"/>
      <point x="110" y="231"/>
    </contour>
    <contour>
      <point x="91" y="128" type="curve" smooth="yes"/>
      <point x="83" y="270"/>
      <point x="209" y="264"/>
      <point x="330" y="284" type="curve"/>
      <point x="342" y="333" type="line" smooth="yes"/>
      <point x="350" y="366"/>
      <point x="302" y="427"/>
      <point x="272" y="437" type="curve" smooth="yes"/>
      <point x="257" y="442"/>
      <point x="241" y="445"/>
      <point x="227" y="445" type="curve" smooth="yes"/>
      <point x="171" y="445"/>
      <point x="94" y="372"/>
      <point x="90" y="323" type="curve"/>
      <point x="66" y="321" type="line"/>
      <point x="68" y="340"/>
      <point x="85" y="377"/>
      <point x="94" y="389" type="curve" smooth="yes"/>
      <point x="122" y="426"/>
      <point x="175" y="460"/>
      <point x="228" y="460" type="curve" smooth="yes"/>
      <point x="243" y="460"/>
      <point x="258" y="459"/>
      <point x="272" y="457" type="curve" smooth="yes"/>
      <point x="315" y="450"/>
      <point x="350" y="414"/>
      <point x="374" y="380" type="curve"/>
      <point x="407" y="423"/>
      <point x="428" y="437"/>
      <point x="497" y="438" type="curve" smooth="yes"/>
      <point x="634" y="440"/>
      <point x="650" y="412"/>
      <point x="682" y="277" type="curve"/>
      <point x="394" y="276" type="line"/>
      <point x="372" y="196"/>
      <point x="398" y="136"/>
      <point x="424" y="109" type="curve" smooth="yes"/>
      <point x="442" y="91"/>
      <point x="498" y="70"/>
      <point x="532" y="70" type="curve" smooth="yes"/>
      <point x="576" y="70"/>
      <point x="623" y="88"/>
      <point x="646" y="114" type="curve"/>
      <point x="676" y="95" type="line"/>
      <point x="634" y="65"/>
      <point x="634" y="59"/>
      <point x="532" y="50" type="curve" smooth="yes"/>
      <point x="510" y="48"/>
      <point x="492" y="52"/>
      <point x="476" y="55" type="curve" smooth="yes"/>
      <point x="411" y="68"/>
      <point x="401" y="84"/>
      <point x="366" y="92" type="curve"/>
      <point x="325" y="77"/>
      <point x="293" y="57"/>
      <point x="229" y="45" type="curve" smooth="yes"/>
      <point x="213" y="42"/>
      <point x="196" y="40"/>
      <point x="177" y="40" type="curve" smooth="yes"/>
      <point x="106" y="40"/>
      <point x="96" y="46"/>
    </contour>
  </outline>
</glyph>
<glyph name="eth" format="2">
  <advance width="528"/>
  <unicode hex="00F0"/>
  <outline>
    <contour>
      <point x="174" y="680" type="line"/>
      <point x="343" y="609"/>
      <point x="450" y="458"/>
      <point x="450" y="228" type="curve"/>
      <point x="470" y="228" type="line"/>
      <point x="470" y="463"/>
      <point x="359" y="622"/>
      <point x="182" y="690" type="curve"/>
    </contour>
    <contour>
      <point x="234" y="548" type="line"/>
      <point x="420" y="624" type="line"/>
      <point x="409" y="638" type="line"/>
      <point x="223" y="562" type="line"/>
    </contour>
    <contour>
      <point x="60" y="223" type="curve" smooth="yes"/>
      <point x="60" y="88"/>
      <point x="146" y="-8"/>
      <point x="265" y="-8" type="curve" smooth="yes"/>
      <point x="384" y="-8"/>
      <point x="470" y="87"/>
      <point x="470" y="223" type="curve" smooth="yes"/>
      <point x="470" y="358"/>
      <point x="384" y="448"/>
      <point x="265" y="448" type="curve" smooth="yes"/>
      <point x="146" y="448"/>
      <point x="60" y="359"/>
    </contour>
    <contour>
      <point x="80" y="223" type="curve" smooth="yes"/>
      <point x="80" y="345"/>
      <point x="158" y="430"/>
      <point x="265" y="430" type="curve" smooth="yes"/>
      <point x="373" y="430"/>
      <point x="450" y="346"/>
      <point x="450" y="223" type="curve" smooth="yes"/>
      <point x="450" y="101"/>
      <point x="373" y="10"/>
      <point x="265" y="10" type="curve" smooth="yes"/>
      <point x="157" y="10"/>
      <point x="80" y="100"/>
    </contour>
  </outline>
  <guideline angle="22.225" x="223" y="544"/>
</glyph>
<glyph name="ntilde" format="2">
  <advance width="478"/>
  <unicode hex="00F1"/>
  <outline>
    <component base="tilde" xOffset="36"/>
    <contour>
      <point x="45" y="0" type="line"/>
      <point x="45" y="460" type="line"/>
      <point x="61" y="460" type="line"/>
      <point x="65" y="340" type="line"/>
      <point x="65" y="0" type="line"/>
    </contour>
  </outline>
</glyph>
<glyph name="oslash" format="2">
  <advance width="480"/>
  <unicode hex="00F8"/>
  <outline>
    <contour>
      <point x="-6" y="-13" type="line"/>
      <point x="70" y="77" type="line"/>
      <point x="45" y="119"/>
      <point x="35" y="172"/>
      <point x="35" y="229" type="curve" smooth="yes"/>
      <point x="35" y="367"/>
      <point x="99" y="469"/>
      <point x="240" y="469" type="curve" smooth="yes"/>
      <point x="292" y="469"/>
      <point x="334" y="455"/>
      <point x="366" y="430" type="curve"/>
      <point x="444" y="523" type="line"/>
      <point x="505" y="472" type="line"/>
      <point x="417" y="367" type="line"/>
      <point x="436" y="329"/>
      <point x="445" y="282"/>
      <point x="445" y="230" type="curve"/>
      <point x="444" y="229" type="line"/>
      <point x="444" y="95"/>
      <point x="373" y="-11"/>
      <point x="239" y="-11" type="curve" smooth="yes"/>
      <point x="192" y="-11"/>
      <point x="154" y="0"/>
      <point x="125" y="19" type="curve"/>
      <point x="55" y="-64" type="line"/>
    </contour>
    <contour>
      <point x="172" y="75" type="line"/>
      <point x="191" y="61"/>
      <point x="214" y="54"/>
      <point x="239" y="54" type="curve" smooth="yes"/>
      <point x="312" y="54"/>
      <point x="364" y="104"/>
      <point x="364" y="229" type="curve" smooth="yes"/>
      <point x="364" y="255"/>
      <point x="362" y="277"/>
      <point x="358" y="296" type="curve"/>
    </contour>
    <contour>
      <point x="115" y="228" type="curve" smooth="yes"/>
      <point x="115" y="195"/>
      <point x="119" y="167"/>
      <point x="126" y="144" type="curve"/>
      <point x="319" y="374" type="line"/>
      <point x="298" y="391"/>
      <point x="265" y="403"/>
      <point x="240" y="403" type="curve" smooth="yes"/>
      <point x="169" y="403"/>
      <point x="115" y="355"/>
    </contour>
  </outline>
</glyph>
<glyph name="thorn" format="2">
  <advance width="546"/>
  <unicode hex="00FE"/>
  <outline>
    <component base="p"/>
    <contour>
      <point x="90" y="0" type="line"/>
      <point x="110" y="0" type="line"/>
      <point x="110" y="87" type="line"/>
      <point x="106" y="95" type="line"/>
      <point x="106" y="266" type="line"/>
      <point x="110" y="319" type="line"/>
      <point x="110" y="700" type="line"/>
      <point x="90" y="700" type="line"/>
    </contour>
  </outline>
  <guideline angle="90" x="108" y="0"/>
  <guideline angle="90" x="90" y="0"/>
  <guideline angle="90" x="110" y="0"/>
  <guideline angle="0" x="0" y="330"/>
  <guideline angle="90" x="286" y="0"/>
  <guideline angle="0" x="0" y="230"/>
</glyph>
<glyph name="dcroat" format="2">
  <advance width="491"/>
  <unicode hex="0111"/>
  <outline>
    <contour>
      <point x="115" y="230" type="curve" smooth="yes"/>
      <point x="115" y="132"/>
      <point x="166" y="70"/>
      <point x="245" y="70" type="curve" smooth="yes"/>
      <point x="314" y="70"/>
      <point x="365" y="132"/>
      <point x="365" y="230" type="curve" smooth="yes"/>
      <point x="365" y="304"/>
      <point x="330" y="390"/>
      <point x="245" y="390" type="curve" smooth="yes"/>
      <point x="222" y="390"/>
      <point x="202" y="385"/>
      <point x="186" y="375" type="curve" smooth="yes"/>
      <point x="137" y="346"/>
      <point x="115" y="282"/>
    </contour>
    <contour>
      <point x="35" y="230" type="curve"/>
      <point x="35" y="230"/>
      <point x="36" y="231"/>
      <point x="36" y="231" type="curve"/>
      <point x="36" y="345"/>
      <point x="102" y="471"/>
      <point x="226" y="471" type="curve" smooth="yes"/>
      <point x="286" y="471"/>
      <point x="338" y="437"/>
      <point x="366" y="381" type="curve"/>
      <point x="366" y="530" type="line"/>
      <point x="250" y="530" type="line"/>
      <point x="250" y="610" type="line"/>
      <point x="366" y="610" type="line"/>
      <point x="366" y="700" type="line"/>
      <point x="446" y="700" type="line"/>
      <point x="446" y="610" type="line"/>
      <point x="490" y="610" type="line"/>
      <point x="490" y="530" type="line"/>
      <point x="446" y="530" type="line"/>
      <point x="446" y="0" type="line"/>
      <point x="366" y="0" type="line"/>
      <point x="366" y="72" type="line"/>
      <point x="343" y="21"/>
      <point x="283" y="-10"/>
      <point x="225" y="-10" type="curve" smooth="yes"/>
      <point x="95" y="-10"/>
      <point x="35" y="111"/>
    </contour>
  </outline>
</glyph>
<glyph name="Hbar" format="2">
  <advance width="662"/>
  <unicode hex="0126"/>
  <anchor x="331" y="-40" name="bottom"/>
  <anchor x="545" y="0" name="b.cedilla"/>
  <outline>
    <component base="H"/>
    <contour>
      <point x="56" y="580" type="line"/>
      <point x="606" y="580" type="line"/>
      <point x="606" y="598" type="line"/>
      <point x="56" y="598" type="line"/>
    </contour>
  </outline>
</glyph>
<glyph name="hbar" format="2">
  <advance width="478"/>
  <unicode hex="0127"/>
  <outline>
    <contour>
      <point x="15" y="561" type="line"/>
      <point x="15" y="579" type="line"/>
      <point x="265" y="579" type="line"/>
      <point x="265" y="561" type="line"/>
    </contour>
    <contour>
      <point x="90" y="0" type="line"/>
      <point x="90" y="700" type="line"/>
      <point x="110" y="700" type="line"/>
      <point x="110" y="0" type="line"/>
    </contour>
    <contour>
      <point x="284" y="468" type="curve" smooth="yes"/>
      <point x="370" y="468"/>
      <point x="429" y="407"/>
      <point x="429" y="315" type="curve" smooth="yes"/>
      <point x="429" y="0" type="line"/>
      <point x="409" y="0" type="line"/>
      <point x="409" y="315" type="line" smooth="yes"/>
      <point x="409" y="398"/>
      <point x="355" y="452"/>
      <point x="275" y="452" type="curve" smooth="yes"/>
      <point x="193" y="452"/>
      <point x="110" y="376"/>
      <point x="110" y="300" type="curve"/>
      <point x="97" y="300" type="line"/>
      <point x="97" y="341" type="line"/>
      <point x="103" y="341" type="line"/>
      <point x="98" y="338" type="line"/>
      <point x="133" y="417"/>
      <point x="207" y="468"/>
    </contour>
  </outline>
</glyph>
<glyph name="imacron" format="2">
  <advance width="280"/>
  <unicode hex="012B"/>
  <outline>
    <component base="dotlessi"/>
    <contour>
      <point x="5" y="570" type="line"/>
      <point x="5" y="640" type="line"/>
      <point x="275" y="640" type="line"/>
      <point x="275" y="570" type="line"/>
    </contour>
  </outline>
</glyph>
<glyph name="iogonek" format="2">
  <advance width="220"/>
  <unicode hex="012F"/>
  <outline>
    <contour>
      <point x="10" y="-120" type="curve" smooth="yes"/>
      <point x="10" y="-66"/>
      <point x="48" y="-21"/>
      <point x="81" y="4" type="curve"/>
      <point x="139" y="4" type="line"/>
      <point x="96" y="-28"/>
      <point x="71" y="-65"/>
      <point x="71" y="-104" type="curve" smooth="yes"/>
      <point x="71" y="-135"/>
      <point x="93" y="-150"/>
      <point x="117" y="-150" type="curve" smooth="yes"/>
      <point x="133" y="-150"/>
      <point x="146" y="-145"/>
      <point x="157" y="-137" type="curve"/>
      <point x="179" y="-178" type="line"/>
      <point x="160" y="-193"/>
      <point x="125" y="-205"/>
      <point x="100" y="-205" type="curve" smooth="yes"/>
      <point x="50" y="-205"/>
      <point x="10" y="-176"/>
    </contour>
    <contour>
      <point x="70" y="530" type="line"/>
      <point x="70" y="610" type="line"/>
      <point x="150" y="610" type="line"/>
      <point x="150" y="530" type="line"/>
    </contour>
    <contour>
      <point x="70" y="0" type="line"/>
      <point x="70" y="460" type="line"/>
      <point x="150" y="460" type="line"/>
      <point x="150" y="0" type="line"/>
    </contour>
  </outline>
</glyph>
<glyph name="dotlessi" format="2">
  <advance width="220"/>
  <unicode hex="0131"/>
  <anchor x="110" y="520" name="aboveLC"/>
  <outline>
    <contour>
      <point x="100" y="0" type="line"/>
      <point x="100" y="460" type="line"/>
      <point x="120" y="460" type="line"/>
      <point x="120" y="0" type="line"/>
    </contour>
  </outline>
</glyph>
<glyph name="kgreenlandic" format="2">
  <advance width="422"/>
  <unicode hex="0138"/>
  <outline>
    <contour>
      <point x="45" y="0" type="line"/>
      <point x="45" y="147"/>
      <point x="45" y="293"/>
      <point x="45" y="440" type="curve"/>
      <point x="125" y="460" type="line"/>
      <point x="125" y="290" type="line"/>
      <point x="157" y="300" type="line"/>
      <point x="282" y="460" type="line"/>
      <point x="382" y="460" type="line"/>
      <point x="229" y="266" type="line"/>
      <point x="402" y="0" type="line"/>
      <point x="302" y="0" type="line"/>
      <point x="157" y="220" type="line"/>
      <point x="125" y="210" type="line"/>
      <point x="125" y="0" type="line"/>
    </contour>
  </outline>
</glyph>
<glyph name="lcommaaccent" format="2">
  <advance width="220"/>
  <unicode hex="013C"/>
  <outline>
    <contour>
      <point x="70" y="-60" type="curve"/>
      <point x="150" y="-60" type="line"/>
      <point x="150" y="-140" type="line"/>
      <point x="104" y="-270" type="line"/>
      <point x="70" y="-270" type="line"/>
      <point x="92" y="-140" type="line"/>
      <point x="70" y="-140" type="line"/>
      <point x="70" y="-113"/>
      <point x="70" y="-87"/>
    </contour>
    <contour>
      <point x="70" y="0" type="line"/>
      <point x="70" y="700" type="line"/>
      <point x="150" y="700" type="line"/>
      <point x="150" y="0" type="line"/>
    </contour>
  </outline>
</glyph>
<glyph name="Lslash" format="2">
  <advance width="459"/>
  <unicode hex="0141"/>
  <outline>
    <contour>
      <point x="21" y="236" type="line"/>
      <point x="21" y="265" type="line"/>
      <point x="270" y="481" type="line"/>
      <point x="270" y="452" type="line"/>
    </contour>
    <contour>
      <point x="91" y="20" type="line"/>
      <point x="431" y="20" type="line"/>
      <point x="431" y="0" type="line"/>
      <point x="91" y="0" type="line"/>
    </contour>
    <contour>
      <point x="80" y="0" type="line"/>
      <point x="80" y="680" type="line"/>
      <point x="102" y="680" type="line"/>
      <point x="102" y="0" type="line"/>
    </contour>
  </outline>
  <guideline angle="90" x="121" y="0"/>
  <guideline angle="90" x="370" y="0"/>
</glyph>
<glyph name="nacute" format="2">
  <advance width="478"/>
  <unicode hex="0144"/>
  <outline>
    <contour>
      <point x="207" y="520" type="line"/>
      <point x="257" y="680" type="line"/>
      <point x="337" y="680" type="line"/>
      <point x="271" y="520" type="line"/>
    </contour>
    <contour>
      <point x="45" y="0" type="line"/>
      <point x="45" y="460" type="line"/>
      <point x="61" y="460" type="line"/>
      <point x="65" y="340" type="line"/>
      <point x="65" y="0" type="line"/>
    </contour>
  </outline>
</glyph>
<glyph name="napostrophe" format="2">
  <advance width="608"/>
  <unicode hex="0149"/>
  <outline>
    <contour>
      <point x="176" y="0" type="line"/>
      <point x="176" y="460" type="line"/>
      <point x="256" y="460" type="line"/>
      <point x="256" y="370" type="line"/>
      <point x="297" y="417"/>
      <point x="367" y="470"/>
      <point x="437" y="470" type="curve" smooth="yes"/>
      <point x="558" y="470"/>
      <point x="563" y="382"/>
      <point x="563" y="300" type="curve" smooth="yes"/>
      <point x="563" y="0" type="line"/>
      <point x="483" y="0" type="line"/>
      <point x="483" y="270" type="line" smooth="yes"/>
      <point x="483" y="325"/>
      <point x="484" y="365"/>
      <point x="463" y="388" type="curve" smooth="yes"/>
      <point x="453" y="399"/>
      <point x="439" y="405"/>
      <point x="417" y="405" type="curve" smooth="yes"/>
      <point x="353" y="405"/>
      <point x="255" y="343"/>
      <point x="255" y="230" type="curve" smooth="yes"/>
      <point x="255" y="0" type="line"/>
    </contour>
    <contour>
      <point x="51" y="390" type="line"/>
      <point x="73" y="520" type="line"/>
      <point x="51" y="520" type="line"/>
      <point x="51" y="547"/>
      <point x="51" y="573"/>
      <point x="51" y="600" type="curve"/>
      <point x="131" y="600" type="line"/>
      <point x="131" y="520" type="line"/>
      <point x="113" y="478"/>
      <point x="99" y="433"/>
      <point x="85" y="390" type="curve"/>
    </contour>
  </outline>
</glyph>
<glyph name="Eng" format="2">
  <advance width="618"/>
  <unicode hex="014A"/>
  <anchor x="321" y="740" name="top"/>
  <anchor x="321" y="-60" name="bottom"/>
  <outline>
    <component base="N"/>
    <contour>
      <point x="398" y="-200" type="line"/>
      <point x="422" y="-200" type="line" smooth="yes"/>
      <point x="479" y="-200"/>
      <point x="518" y="-155"/>
      <point x="518" y="-89" type="curve" smooth="yes"/>
      <point x="518" y="20" type="line"/>
      <point x="496" y="20" type="line"/>
      <point x="496" y="-82" type="line" smooth="yes"/>
      <point x="496" y="-142"/>
      <point x="468" y="-180"/>
      <point x="424" y="-180" type="curve" smooth="yes"/>
      <point x="398" y="-180" type="line"/>
    </contour>
  </outline>
  <guideline angle="90" x="321" y="0"/>
  <guideline angle="300.199" x="124" y="680"/>
  <guideline angle="300.199" x="98" y="680"/>
</glyph>
<glyph name="eng" format="2">
  <advance width="478"/>
  <unicode hex="014B"/>
  <outline>
    <contour>
      <point x="279" y="-182" type="line"/>
      <point x="365" y="-182"/>
      <point x="409" y="-148"/>
      <point x="409" y="-80" type="curve" smooth="yes"/>
      <point x="409" y="92" type="line"/>
      <point x="429" y="92" type="line"/>
      <point x="429" y="-88" type="line" smooth="yes"/>
      <point x="429" y="-155"/>
      <point x="371" y="-200"/>
      <point x="284" y="-200" type="curve" smooth="yes"/>
      <point x="279" y="-200" type="line"/>
    </contour>
    <contour>
      <point x="90" y="0" type="line"/>
      <point x="90" y="460" type="line"/>
      <point x="106" y="460" type="line"/>
      <point x="110" y="340" type="line"/>
      <point x="110" y="0" type="line"/>
    </contour>
    <contour>
      <point x="284" y="470" type="curve" smooth="yes"/>
      <point x="370" y="470"/>
      <point x="429" y="407"/>
      <point x="429" y="315" type="curve" smooth="yes"/>
      <point x="429" y="0" type="line"/>
      <point x="409" y="0" type="line"/>
      <point x="409" y="315" type="line" smooth="yes"/>
      <point x="409" y="398"/>
      <point x="355" y="454"/>
      <point x="275" y="454" type="curve" smooth="yes"/>
      <point x="193" y="454"/>
      <point x="110" y="376"/>
      <point x="110" y="300" type="curve"/>
      <point x="97" y="300" type="line"/>
      <point x="97" y="341" type="line"/>
      <point x="103" y="341" type="line"/>
      <point x="98" y="338" type="line"/>
      <point x="133" y="417"/>
      <point x="207" y="470"/>
    </contour>
  </outline>
</glyph>
<glyph name="OE" format="2">
  <advance width="984"/>
  <unicode hex="0152"/>
  <outline>
    <contour>
      <point x="358" y="-8" type="line"/>
      <point x="184" y="-8"/>
      <point x="80" y="121"/>
      <point x="80" y="340" type="curve" smooth="yes"/>
      <point x="80" y="559"/>
      <point x="184" y="688"/>
      <point x="358" y="688" type="curve"/>
      <point x="358" y="668" type="line"/>
      <point x="194" y="668"/>
      <point x="102" y="549"/>
      <point x="102" y="340" type="curve" smooth="yes"/>
      <point x="102" y="131"/>
      <point x="194" y="12"/>
      <point x="358" y="12" type="curve"/>
    </contour>
    <contour>
      <point x="574" y="0" type="line"/>
      <point x="574" y="680" type="line"/>
      <point x="596" y="680" type="line"/>
      <point x="596" y="0" type="line"/>
    </contour>
    <contour>
      <point x="584" y="20" type="line"/>
      <point x="934" y="20" type="line"/>
      <point x="934" y="0" type="line"/>
      <point x="584" y="0" type="line"/>
    </contour>
    <contour>
      <point x="584" y="680" type="line"/>
      <point x="934" y="680" type="line"/>
      <point x="934" y="660" type="line"/>
      <point x="584" y="660" type="line"/>
    </contour>
    <contour>
      <point x="584" y="360" type="line"/>
      <point x="894" y="360" type="line"/>
      <point x="894" y="340" type="line"/>
      <point x="584" y="340" type="line"/>
    </contour>
    <contour>
      <point x="358" y="10" type="line"/>
      <point x="485" y="10"/>
      <point x="574" y="128"/>
      <point x="574" y="320" type="curve"/>
      <point x="592" y="320" type="line"/>
      <point x="592" y="119"/>
      <point x="493" y="-10"/>
      <point x="358" y="-10" type="curve"/>
    </contour>
    <contour>
      <point x="574" y="360" type="line"/>
      <point x="574" y="552"/>
      <point x="485" y="670"/>
      <point x="358" y="670" type="curve"/>
      <point x="358" y="690" type="line"/>
      <point x="493" y="690"/>
      <point x="592" y="561"/>
      <point x="592" y="360" type="curve"/>
    </contour>
  </outline>
</glyph>
<glyph name="oe" format="2">
  <advance width="898"/>
  <unicode hex="0153"/>
  <outline>
    <component base="e" xOffset="390"/>
    <contour>
      <point x="265" y="-6" type="line"/>
      <point x="142" y="-6"/>
      <point x="60" y="89"/>
      <point x="60" y="230" type="curve" smooth="yes"/>
      <point x="60" y="372"/>
      <point x="142" y="466"/>
      <point x="265" y="466" type="curve"/>
      <point x="265" y="446" type="line"/>
      <point x="155" y="446"/>
      <point x="80" y="359"/>
      <point x="80" y="230" type="curve" smooth="yes"/>
      <point x="80" y="100"/>
      <point x="154" y="14"/>
      <point x="265" y="14" type="curve"/>
    </contour>
    <contour>
      <point x="265" y="466" type="line"/>
      <point x="388" y="466"/>
      <point x="470" y="371"/>
      <point x="470" y="230" type="curve" smooth="yes"/>
      <point x="470" y="88"/>
      <point x="388" y="-6"/>
      <point x="265" y="-6" type="curve"/>
      <point x="265" y="14" type="line"/>
      <point x="375" y="14"/>
      <point x="450" y="101"/>
      <point x="450" y="230" type="curve" smooth="yes"/>
      <point x="450" y="360"/>
      <point x="376" y="446"/>
      <point x="265" y="446" type="curve"/>
    </contour>
  </outline>
</glyph>
<glyph name="Rcommaaccent" format="2">
  <advance width="580"/>
  <unicode hex="0156"/>
  <outline>
    <component base="uni0326" xOffset="370"/>
    <contour>
      <point x="293" y="290" type="line"/>
      <point x="480" y="0" type="line"/>
      <point x="506" y="0" type="line"/>
      <point x="319" y="290" type="line"/>
    </contour>
  </outline>
</glyph>
<glyph name="Rcaron" format="2">
  <advance width="580"/>
  <unicode hex="0158"/>
  <outline>
    <component base="caron" xOffset="90" yOffset="230"/>
    <contour>
      <point x="293" y="290" type="line"/>
      <point x="480" y="0" type="line"/>
      <point x="506" y="0" type="line"/>
      <point x="319" y="290" type="line"/>
    </contour>
  </outline>
</glyph>
<glyph name="Tbar" format="2">
  <advance width="480"/>
  <unicode hex="0166"/>
  <outline>
    <contour>
      <point x="70" y="340" type="line"/>
      <point x="70" y="360" type="line"/>
      <point x="410" y="360" type="line"/>
      <point x="410" y="340" type="line"/>
    </contour>
    <contour>
      <point x="10" y="660" type="line"/>
      <point x="10" y="680" type="line"/>
      <point x="470" y="680" type="line"/>
      <point x="470" y="660" type="line"/>
    </contour>
    <contour>
      <point x="229" y="0" type="line"/>
      <point x="229" y="680" type="line"/>
      <point x="251" y="680" type="line"/>
      <point x="251" y="0" type="line"/>
    </contour>
  </outline>
</glyph>
<glyph name="tbar" format="2">
  <advance width="331"/>
  <unicode hex="0167"/>
  <outline>
    <contour>
      <point x="30" y="380" type="line"/>
      <point x="30" y="460" type="line"/>
      <point x="105" y="460" type="line"/>
      <point x="105" y="580" type="line"/>
      <point x="185" y="580" type="line"/>
      <point x="185" y="460" type="line"/>
      <point x="290" y="460" type="line"/>
      <point x="290" y="380" type="line"/>
      <point x="185" y="380" type="line"/>
      <point x="185" y="312" type="line"/>
      <point x="270" y="312" type="line"/>
      <point x="270" y="238" type="line"/>
      <point x="242" y="238"/>
      <point x="213" y="238"/>
      <point x="185" y="238" type="curve"/>
      <point x="185" y="219"/>
      <point x="184" y="200"/>
      <point x="184" y="181" type="curve" smooth="yes"/>
      <point x="184" y="83"/>
      <point x="197" y="57"/>
      <point x="266" y="56" type="curve"/>
      <point x="300" y="56" type="line"/>
      <point x="300" y="-9" type="line"/>
      <point x="267" y="-9" type="line"/>
      <point x="116" y="2"/>
      <point x="105" y="41"/>
      <point x="105" y="180" type="curve" smooth="yes"/>
      <point x="105" y="238" type="line"/>
      <point x="50" y="238" type="line"/>
      <point x="50" y="312" type="line"/>
      <point x="105" y="312" type="line"/>
      <point x="105" y="380" type="line"/>
    </contour>
  </outline>
</glyph>
<glyph name="uogonek" format="2">
  <advance width="478"/>
  <unicode hex="0173"/>
  <outline>
    <contour>
      <point x="45" y="160" type="curve" smooth="yes"/>
      <point x="45" y="460" type="line"/>
      <point x="125" y="460" type="line"/>
      <point x="125" y="190" type="line" smooth="yes"/>
      <point x="125" y="140"/>
      <point x="119" y="55"/>
      <point x="193" y="55" type="curve" smooth="yes"/>
      <point x="257" y="55"/>
      <point x="353" y="116"/>
      <point x="353" y="230" type="curve" smooth="yes"/>
      <point x="353" y="460" type="line"/>
      <point x="434" y="460" type="line"/>
      <point x="434" y="0" type="line"/>
      <point x="374" y="0" type="line"/>
      <point x="354" y="90" type="line"/>
      <point x="315" y="43"/>
      <point x="233" y="-10"/>
      <point x="167" y="-10" type="curve" smooth="yes"/>
      <point x="50" y="-10"/>
      <point x="45" y="78"/>
    </contour>
    <contour>
      <point x="265" y="-124" type="curve" smooth="yes"/>
      <point x="265" y="-70"/>
      <point x="302" y="-25"/>
      <point x="336" y="0" type="curve"/>
      <point x="394" y="0" type="line"/>
      <point x="353" y="-31"/>
      <point x="326" y="-69"/>
      <point x="326" y="-108" type="curve" smooth="yes"/>
      <point x="326" y="-130"/>
      <point x="338" y="-145"/>
      <point x="355" y="-151" type="curve"/>
      <point x="360" y="-153"/>
      <point x="366" y="-154"/>
      <point x="372" y="-154" type="curve" smooth="yes"/>
      <point x="386" y="-154"/>
      <point x="401" y="-149"/>
      <point x="412" y="-141" type="curve"/>
      <point x="434" y="-182" type="line"/>
      <point x="421" y="-191" type="line"/>
      <point x="402" y="-202"/>
      <point x="375" y="-209"/>
      <point x="355" y="-209" type="curve" smooth="yes"/>
      <point x="305" y="-209"/>
      <point x="265" y="-180"/>
    </contour>
  </outline>
</glyph>
<glyph name="Wcircumflex" format="2">
  <advance width="1061"/>
  <unicode hex="0174"/>
  <outline>
    <contour>
      <point x="50" y="700" type="line"/>
      <point x="157" y="700" type="line"/>
      <point x="317" y="97" type="line"/>
      <point x="477" y="700" type="line"/>
      <point x="584" y="700" type="line"/>
      <point x="744" y="97" type="line"/>
      <point x="904" y="700" type="line"/>
      <point x="1011" y="700" type="line"/>
      <point x="802" y="0" type="line"/>
      <point x="684" y="0" type="line"/>
      <point x="530" y="520" type="line"/>
      <point x="375" y="0" type="line"/>
      <point x="257" y="0" type="line"/>
    </contour>
    <contour>
      <point x="370" y="760" type="line"/>
      <point x="490" y="940" type="line"/>
      <point x="570" y="940" type="line"/>
      <point x="690" y="760" type="line"/>
      <point x="626" y="760" type="line"/>
      <point x="530" y="887" type="line"/>
      <point x="434" y="760" type="line"/>
    </contour>
  </outline>
</glyph>
<glyph name="Zacute" format="2">
  <advance width="510"/>
  <unicode hex="0179"/>
  <outline>
    <contour>
      <point x="50" y="0" type="line"/>
      <point x="50" y="80" type="line"/>
      <point x="370" y="620" type="line"/>
      <point x="50" y="620" type="line"/>
      <point x="50" y="700" type="line"/>
      <point x="460" y="700" type="line"/>
      <point x="460" y="620" type="line"/>
      <point x="140" y="80" type="line"/>
      <point x="460" y="80" type="line"/>
      <point x="460" y="0" type="line"/>
    </contour>
    <contour>
      <point x="190" y="760" type="line"/>
      <point x="240" y="940" type="line"/>
      <point x="320" y="940" type="line"/>
      <point x="254" y="760" type="line"/>
    </contour>
  </outline>
</glyph>
<glyph name="longs" format="2">
  <advance width="421"/>
  <unicode hex="017F"/>
  <outline>
    <contour>
      <point x="80" y="380" type="line"/>
      <point x="80" y="460" type="line"/>
      <point x="145" y="460" type="line"/>
      <point x="145" y="500" type="line" smooth="yes"/>
      <point x="145" y="642"/>
      <point x="156" y="693"/>
      <point x="307" y="700" type="curve"/>
      <point x="341" y="700" type="line"/>
      <point x="341" y="635" type="line"/>
      <point x="307" y="635" type="line" smooth="yes"/>
      <point x="293" y="635"/>
      <point x="282" y="634"/>
      <point x="272" y="631" type="curve" smooth="yes"/>
      <point x="226" y="618"/>
      <point x="225" y="574"/>
      <point x="225" y="458" type="curve" smooth="yes"/>
      <point x="225" y="0" type="line"/>
      <point x="145" y="0" type="line"/>
      <point x="145" y="380" type="line"/>
    </contour>
  </outline>
</glyph>
<glyph name="Schwa" format="2">
  <advance width="716"/>
  <unicode hex="018F"/>
  <outline>
    <contour>
      <point x="80" y="337" type="line"/>
      <point x="80" y="121"/>
      <point x="184" y="-8"/>
      <point x="358" y="-8" type="curve" smooth="yes"/>
      <point x="532" y="-8"/>
      <point x="636" y="121"/>
      <point x="636" y="340" type="curve" smooth="yes"/>
      <point x="636" y="559"/>
      <point x="532" y="688"/>
      <point x="358" y="688" type="curve" smooth="yes"/>
      <point x="225" y="688"/>
      <point x="133" y="613"/>
      <point x="97" y="480" type="curve"/>
      <point x="119" y="480" type="line"/>
      <point x="153" y="601"/>
      <point x="235" y="668"/>
      <point x="358" y="668" type="curve" smooth="yes"/>
      <point x="522" y="668"/>
      <point x="614" y="549"/>
      <point x="614" y="340" type="curve" smooth="yes"/>
      <point x="614" y="131"/>
      <point x="522" y="12"/>
      <point x="358" y="12" type="curve" smooth="yes"/>
      <point x="194" y="12"/>
      <point x="102" y="131"/>
      <point x="102" y="337" type="curve"/>
    </contour>
    <contour>
      <point x="90" y="317" type="line"/>
      <point x="625" y="317" type="line"/>
      <point x="625" y="337" type="line"/>
      <point x="90" y="337" type="line"/>
    </contour>
  </outline>
  <guideline angle="0" x="0" y="480"/>
</glyph>
<glyph name="florin" format="2">
  <advance width="416"/>
  <unicode hex="0192"/>
  <outline>
    <contour>
      <point x="-80" y="-176" type="line"/>
      <point x="-47.1438" y="-184.3"/>
      <point x="-22" y="-187"/>
      <point x="-1.12518" y="-187" type="curve" smooth="yes"/>
      <point x="43.9012" y="-187"/>
      <point x="82.2451" y="-148.383"/>
      <point x="94.7345" y="-90.4582" type="curve" smooth="yes"/>
      <point x="234.551" y="558" type="line" smooth="yes"/>
      <point x="257.456" y="664.233"/>
      <point x="272.551" y="682"/>
      <point x="324.551" y="682" type="curve" smooth="yes"/>
      <point x="342.551" y="682"/>
      <point x="361.66" y="679.397"/>
      <point x="380.551" y="674" type="curve" smooth="yes"/>
      <point x="401.551" y="668" type="line"/>
      <point x="405.551" y="683" type="line"/>
      <point x="397.551" y="686" type="line" smooth="yes"/>
      <point x="373.551" y="695"/>
      <point x="347.551" y="700"/>
      <point x="312.551" y="700" type="curve" smooth="yes"/>
      <point x="256.551" y="700"/>
      <point x="236.378" y="668.258"/>
      <point x="215.551" y="571" type="curve" smooth="yes"/>
      <point x="73.9018" y="-90.4582" type="line" smooth="yes"/>
      <point x="63.8101" y="-137.583"/>
      <point x="31.6982" y="-169"/>
      <point x="-6.37802" y="-169" type="curve" smooth="yes"/>
      <point x="-14" y="-169"/>
      <point x="-33.9204" y="-167.616"/>
      <point x="-62" y="-162" type="curve" smooth="yes"/>
      <point x="-77" y="-159" type="line"/>
    </contour>
    <contour>
      <point x="77" y="413" type="line"/>
      <point x="333" y="413" type="line"/>
      <point x="337" y="433" type="line"/>
      <point x="80" y="433" type="line"/>
    </contour>
  </outline>
</glyph>
<glyph name="Obar" format="2">
  <advance width="716"/>
  <unicode hex="019F"/>
  <anchor x="358" y="740" name="top"/>
  <outline>
    <component base="O"/>
    <contour>
      <point x="90" y="347" type="line"/>
      <point x="625" y="347" type="line"/>
      <point x="625" y="367" type="line"/>
      <point x="90" y="367" type="line"/>
    </contour>
  </outline>
</glyph>
<glyph name="uni01C7" format="2">
  <advance width="796"/>
  <unicode hex="01C7"/>
  <outline>
    <component base="J" xOffset="510"/>
    <contour>
      <point x="61" y="20" type="line"/>
      <point x="401" y="20" type="line"/>
      <point x="401" y="0" type="line"/>
      <point x="61" y="0" type="line"/>
    </contour>
  </outline>
</glyph>
<glyph name="uni01C8" format="2">
  <advance width="740"/>
  <unicode hex="01C8"/>
  <outline>
    <component base="j" xOffset="510"/>
    <contour>
      <point x="61" y="20" type="line"/>
      <point x="401" y="20" type="line"/>
      <point x="401" y="0" type="line"/>
      <point x="61" y="0" type="line"/>
    </contour>
  </outline>
</glyph>
<glyph name="uni01C9" format="2">
  <advance width="450"/>
  <unicode hex="01C9"/>
  <outline>
    <component base="l" xOffset="-20"/>
    <contour>
      <point x="300" y="560" type="line"/>
      <point x="300" y="640" type="line"/>
      <point x="380" y="640" type="line"/>
      <point x="380" y="560" type="line"/>
    </contour>
    <contour>
      <point x="152" y="-100" type="curve"/>
      <point x="217" y="-100" type="line"/>
      <point x="220" y="-132"/>
      <point x="241" y="-140"/>
      <point x="256" y="-140" type="curve" smooth="yes"/>
      <point x="280" y="-140"/>
      <point x="300" y="-136"/>
      <point x="300" y="-80" type="curve" smooth="yes"/>
      <point x="300" y="460" type="line"/>
      <point x="380" y="460" type="line"/>
      <point x="380" y="-60" type="line" smooth="yes"/>
      <point x="380" y="-181"/>
      <point x="324" y="-200"/>
      <point x="260" y="-200" type="curve" smooth="yes"/>
      <point x="204" y="-200"/>
      <point x="156" y="-162"/>
    </contour>
  </outline>
</glyph>
<glyph name="uni01CC" format="2">
  <advance width="708"/>
  <unicode hex="01CC"/>
  <outline>
    <component base="j" xOffset="478"/>
    <contour>
      <point x="45" y="0" type="line"/>
      <point x="45" y="460" type="line"/>
      <point x="61" y="460" type="line"/>
      <point x="65" y="340" type="line"/>
      <point x="65" y="0" type="line"/>
    </contour>
  </outline>
</glyph>
<glyph name="uni01D9" format="2">
  <advance width="560"/>
  <unicode hex="01D9"/>
  <outline>
    <contour>
      <point x="120" y="1090" type="line"/>
      <point x="184" y="1090" type="line"/>
      <point x="280" y="963" type="line"/>
      <point x="376" y="1090" type="line"/>
      <point x="440" y="1090" type="line"/>
      <point x="320" y="910" type="line"/>
      <point x="240" y="910" type="line"/>
    </contour>
    <contour>
      <point x="161" y="770" type="line"/>
      <point x="161" y="850" type="line"/>
      <point x="241" y="850" type="line"/>
      <point x="241" y="770" type="line"/>
    </contour>
    <contour>
      <point x="318" y="770" type="line"/>
      <point x="318" y="850" type="line"/>
      <point x="398" y="850" type="line"/>
      <point x="398" y="770" type="line"/>
    </contour>
    <contour>
      <point x="49" y="224" type="curve" smooth="yes"/>
      <point x="49" y="700" type="line"/>
      <point x="139" y="700" type="line"/>
      <point x="139" y="274" type="line" smooth="yes"/>
      <point x="139" y="231"/>
      <point x="146" y="195"/>
      <point x="159" y="166" type="curve" smooth="yes"/>
      <point x="185" y="109"/>
      <point x="232" y="80"/>
      <point x="289" y="80" type="curve" smooth="yes"/>
      <point x="378" y="80"/>
      <point x="419" y="147"/>
      <point x="419" y="274" type="curve" smooth="yes"/>
      <point x="419" y="700" type="line"/>
      <point x="509" y="700" type="line"/>
      <point x="509" y="224" type="line" smooth="yes"/>
      <point x="509" y="100"/>
      <point x="464" y="-10"/>
      <point x="289" y="-10" type="curve" smooth="yes"/>
      <point x="91" y="-10"/>
      <point x="49" y="106"/>
    </contour>
  </outline>
</glyph>
<glyph name="uni01DD" format="2">
  <advance width="471"/>
  <unicode hex="01DD"/>
  <outline>
    <contour>
      <point x="36" y="219" type="line"/>
      <point x="36" y="199" type="line" smooth="yes"/>
      <point x="36" y="75"/>
      <point x="115" y="-10"/>
      <point x="231" y="-10" type="curve" smooth="yes"/>
      <point x="352" y="-10"/>
      <point x="437" y="85"/>
      <point x="437" y="220" type="curve" smooth="yes"/>
      <point x="437" y="374"/>
      <point x="358" y="470"/>
      <point x="231" y="470" type="curve" smooth="yes"/>
      <point x="155" y="470"/>
      <point x="80" y="424"/>
      <point x="55" y="362" type="curve"/>
      <point x="74" y="357" type="line"/>
      <point x="92" y="406"/>
      <point x="167" y="452"/>
      <point x="230" y="452" type="curve" smooth="yes"/>
      <point x="347" y="452"/>
      <point x="417" y="360"/>
      <point x="417" y="206" type="curve" smooth="yes"/>
      <point x="417" y="97"/>
      <point x="333" y="8"/>
      <point x="231" y="8" type="curve" smooth="yes"/>
      <point x="134" y="8"/>
      <point x="54" y="90"/>
      <point x="54" y="189" type="curve" smooth="yes"/>
      <point x="54" y="219" type="line"/>
    </contour>
    <contour>
      <point x="45" y="219" type="line"/>
      <point x="45" y="201" type="line"/>
      <point x="423" y="201" type="line"/>
      <point x="423" y="219" type="line"/>
    </contour>
  </outline>
</glyph>
<glyph name="uni01ED" format="2">
  <advance width="480"/>
  <unicode hex="01ED"/>
  <outline>
    <contour>
      <point x="35" y="230" type="curve" smooth="yes"/>
      <point x="35" y="368"/>
      <point x="99" y="470"/>
      <point x="240" y="470" type="curve" smooth="yes"/>
      <point x="380" y="470"/>
      <point x="445" y="370"/>
      <point x="445" y="230" type="curve" smooth="yes"/>
      <point x="445" y="96"/>
      <point x="374" y="-10"/>
      <point x="240" y="-10" type="curve" smooth="yes"/>
      <point x="88" y="-10"/>
      <point x="35" y="102"/>
    </contour>
    <contour>
      <point x="115" y="230" type="curve" smooth="yes"/>
      <point x="115" y="109"/>
      <point x="170" y="55"/>
      <point x="240" y="55" type="curve" smooth="yes"/>
      <point x="312" y="55"/>
      <point x="365" y="105"/>
      <point x="365" y="230" type="curve" smooth="yes"/>
      <point x="365" y="357"/>
      <point x="311" y="405"/>
      <point x="240" y="405" type="curve" smooth="yes"/>
      <point x="169" y="405"/>
      <point x="115" y="357"/>
    </contour>
    <contour>
      <point x="276" y="-124" type="curve" smooth="yes"/>
      <point x="276" y="-70"/>
      <point x="313" y="-25"/>
      <point x="347" y="0" type="curve"/>
      <point x="405" y="0" type="line"/>
      <point x="364" y="-31"/>
      <point x="337" y="-69"/>
      <point x="337" y="-108" type="curve" smooth="yes"/>
      <point x="337" y="-130"/>
      <point x="349" y="-145"/>
      <point x="366" y="-151" type="curve"/>
      <point x="371" y="-153"/>
      <point x="377" y="-154"/>
      <point x="383" y="-154" type="curve" smooth="yes"/>
      <point x="397" y="-154"/>
      <point x="412" y="-149"/>
      <point x="423" y="-141" type="curve"/>
      <point x="445" y="-182" type="line"/>
      <point x="432" y="-191" type="line"/>
      <point x="413" y="-202"/>
      <point x="386" y="-209"/>
      <point x="366" y="-209" type="curve" smooth="yes"/>
      <point x="316" y="-209"/>
      <point x="276" y="-180"/>
    </contour>
    <contour>
      <point x="105" y="545" type="line"/>
      <point x="105" y="610" type="line"/>
      <point x="375" y="610" type="line"/>
      <point x="375" y="545" type="line"/>
    </contour>
  </outline>
</glyph>
<glyph name="uni01F4" format="2">
  <advance width="647"/>
  <unicode hex="01F4"/>
  <outline>
    <contour>
      <point x="296" y="750" type="line"/>
      <point x="346" y="910" type="line"/>
      <point x="426" y="910" type="line"/>
      <point x="360" y="750" type="line"/>
    </contour>
    <contour>
      <point x="328" y="280" type="line"/>
      <point x="328" y="300" type="line"/>
      <point x="557" y="300" type="line"/>
      <point x="557" y="0" type="line"/>
      <point x="535" y="0" type="line"/>
      <point x="535" y="280" type="line"/>
    </contour>
    <contour>
      <point x="547" y="134" type="line"/>
      <point x="509" y="55"/>
      <point x="399" y="-10"/>
      <point x="298" y="-10" type="curve"/>
      <point x="298" y="10" type="line"/>
      <point x="402" y="10"/>
      <point x="506" y="85"/>
      <point x="547" y="174" type="curve"/>
    </contour>
  </outline>
</glyph>
<glyph name="uni01F9" format="2">
  <advance width="478"/>
  <unicode hex="01F9"/>
  <outline>
    <component base="gravecomb" xOffset="451"/>
    <contour>
      <point x="45" y="0" type="line"/>
      <point x="45" y="460" type="line"/>
      <point x="61" y="460" type="line"/>
      <point x="65" y="340" type="line"/>
      <point x="65" y="0" type="line"/>
    </contour>
  </outline>
</glyph>
<glyph name="uni0210" format="2">
  <advance width="580"/>
  <unicode hex="0210"/>
  <outline>
    <contour>
      <point x="122" y="950" type="line"/>
      <point x="202" y="950" type="line"/>
      <point x="247" y="770" type="line"/>
      <point x="183" y="770" type="line"/>
    </contour>
    <contour>
      <point x="12" y="950" type="line"/>
      <point x="92" y="950" type="line"/>
      <point x="152" y="770" type="line"/>
      <point x="88" y="770" type="line"/>
    </contour>
    <contour>
      <point x="140" y="380" type="line"/>
      <point x="285" y="380" type="line" smooth="yes"/>
      <point x="375" y="380"/>
      <point x="440" y="417"/>
      <point x="440" y="507" type="curve" smooth="yes"/>
      <point x="440" y="570"/>
      <point x="364" y="620"/>
      <point x="287" y="620" type="curve"/>
      <point x="285" y="620" type="line"/>
      <point x="140" y="620" type="line"/>
    </contour>
    <contour>
      <point x="50" y="0" type="line"/>
      <point x="50" y="700" type="line"/>
      <point x="285" y="700" type="line" smooth="yes"/>
      <point x="425" y="700"/>
      <point x="530" y="657"/>
      <point x="530" y="507" type="curve" smooth="yes"/>
      <point x="530" y="419"/>
      <point x="465" y="318"/>
      <point x="322" y="303" type="curve"/>
      <point x="530" y="0" type="line"/>
      <point x="420" y="0" type="line"/>
      <point x="221" y="301" type="line"/>
      <point x="140" y="300" type="line"/>
      <point x="140" y="0" type="line"/>
    </contour>
  </outline>
</glyph>
<glyph name="uni0212" format="2">
  <advance width="580"/>
  <unicode hex="0212"/>
  <outline>
    <component base="uni0311" xOffset="460" yOffset="200"/>
    <contour>
      <point x="293" y="290" type="line"/>
      <point x="480" y="0" type="line"/>
      <point x="506" y="0" type="line"/>
      <point x="319" y="290" type="line"/>
    </contour>
  </outline>
</glyph>
<glyph name="uni0213" format="2">
  <advance width="370"/>
  <unicode hex="0213"/>
  <outline>
    <contour>
      <point x="35" y="529" type="curve"/>
      <point x="35" y="540"/>
      <point x="36" y="551"/>
      <point x="38" y="561" type="curve" smooth="yes"/>
      <point x="54" y="639"/>
      <point x="128" y="669"/>
      <point x="190" y="669" type="curve" smooth="yes"/>
      <point x="258" y="669"/>
      <point x="327" y="639"/>
      <point x="342" y="561" type="curve" smooth="yes"/>
      <point x="344" y="551"/>
      <point x="345" y="540"/>
      <point x="345" y="529" type="curve"/>
      <point x="270" y="529" type="line"/>
      <point x="270" y="586"/>
      <point x="233" y="605"/>
      <point x="190" y="605" type="curve" smooth="yes"/>
      <point x="156" y="605"/>
      <point x="110" y="588"/>
      <point x="110" y="530" type="curve"/>
      <point x="102" y="530"/>
      <point x="93" y="530"/>
      <point x="85" y="530" type="curve" smooth="yes"/>
      <point x="68" y="530"/>
      <point x="52" y="529"/>
    </contour>
    <contour>
      <point x="45" y="-1" type="line"/>
      <point x="45" y="459" type="line"/>
      <point x="125" y="459" type="line"/>
      <point x="125" y="369" type="line"/>
      <point x="148" y="420"/>
      <point x="212" y="469"/>
      <point x="272" y="469" type="curve"/>
      <point x="272" y="469"/>
      <point x="272" y="469"/>
      <point x="272" y="469" type="curve"/>
      <point x="295" y="469"/>
      <point x="317" y="465"/>
      <point x="335" y="459" type="curve"/>
      <point x="335" y="358" type="line"/>
      <point x="312" y="378"/>
      <point x="278" y="389"/>
      <point x="246" y="389" type="curve" smooth="yes"/>
      <point x="237" y="389"/>
      <point x="228" y="387"/>
      <point x="219" y="384" type="curve"/>
      <point x="174" y="367"/>
      <point x="137" y="311"/>
      <point x="125" y="232" type="curve"/>
      <point x="125" y="-1" type="line"/>
    </contour>
  </outline>
</glyph>
<glyph name="uni0229" format="2">
  <advance width="471"/>
  <unicode hex="0229"/>
  <outline>
    <contour>
      <point x="145" y="-167" type="line"/>
      <point x="156" y="-170"/>
      <point x="175" y="-173"/>
      <point x="193" y="-173" type="curve"/>
      <point x="195" y="-173"/>
      <point x="197" y="-173"/>
      <point x="199" y="-173" type="curve"/>
      <point x="242" y="-173"/>
      <point x="258" y="-150"/>
      <point x="258" y="-121" type="curve" smooth="yes"/>
      <point x="258" y="-85"/>
      <point x="207" y="-73"/>
      <point x="179" y="-70" type="curve"/>
      <point x="210" y="-3" type="line"/>
      <point x="271" y="-3" type="line"/>
      <point x="248" y="-49" type="line"/>
      <point x="271" y="-57"/>
      <point x="315" y="-73"/>
      <point x="315" y="-126" type="curve" smooth="yes"/>
      <point x="315" y="-180"/>
      <point x="270" y="-212"/>
      <point x="215" y="-212" type="curve" smooth="yes"/>
      <point x="182" y="-212"/>
      <point x="153" y="-202"/>
      <point x="145" y="-196" type="curve"/>
    </contour>
    <contour>
      <point x="33" y="240" type="curve" smooth="yes"/>
      <point x="33" y="348"/>
      <point x="94" y="470"/>
      <point x="239" y="470" type="curve" smooth="yes"/>
      <point x="378" y="470"/>
      <point x="434" y="350"/>
      <point x="434" y="210" type="curve"/>
      <point x="118" y="210" type="line"/>
      <point x="125" y="141"/>
      <point x="156" y="70"/>
      <point x="240" y="70" type="curve" smooth="yes"/>
      <point x="284" y="70"/>
      <point x="331" y="88"/>
      <point x="354" y="114" type="curve"/>
      <point x="415" y="98" type="line"/>
      <point x="399" y="58"/>
      <point x="341" y="-10"/>
      <point x="239" y="-10" type="curve" smooth="yes"/>
      <point x="83" y="-10"/>
      <point x="33" y="122"/>
    </contour>
    <contour>
      <point x="118" y="290" type="curve"/>
      <point x="357" y="290" type="line"/>
      <point x="344" y="358"/>
      <point x="309" y="390"/>
      <point x="239" y="390" type="curve" smooth="yes"/>
      <point x="180" y="390"/>
      <point x="128" y="353"/>
    </contour>
  </outline>
</glyph>
<glyph name="uni022B" format="2">
  <advance width="480"/>
  <unicode hex="022B"/>
  <outline>
    <contour>
      <point x="35" y="230" type="curve" smooth="yes"/>
      <point x="35" y="368"/>
      <point x="99" y="470"/>
      <point x="240" y="470" type="curve" smooth="yes"/>
      <point x="380" y="470"/>
      <point x="445" y="370"/>
      <point x="445" y="230" type="curve" smooth="yes"/>
      <point x="445" y="96"/>
      <point x="374" y="-10"/>
      <point x="240" y="-10" type="curve" smooth="yes"/>
      <point x="88" y="-10"/>
      <point x="35" y="102"/>
    </contour>
    <contour>
      <point x="115" y="230" type="curve" smooth="yes"/>
      <point x="115" y="109"/>
      <point x="170" y="55"/>
      <point x="240" y="55" type="curve" smooth="yes"/>
      <point x="312" y="55"/>
      <point x="365" y="105"/>
      <point x="365" y="230" type="curve" smooth="yes"/>
      <point x="365" y="357"/>
      <point x="311" y="405"/>
      <point x="240" y="405" type="curve" smooth="yes"/>
      <point x="169" y="405"/>
      <point x="115" y="357"/>
    </contour>
    <contour>
      <point x="121" y="520" type="line"/>
      <point x="121" y="600" type="line"/>
      <point x="201" y="600" type="line"/>
      <point x="201" y="520" type="line"/>
    </contour>
    <contour>
      <point x="278" y="520" type="line"/>
      <point x="278" y="600" type="line"/>
      <point x="358" y="600" type="line"/>
      <point x="358" y="520" type="line"/>
    </contour>
    <contour>
      <point x="105" y="545" type="line"/>
      <point x="105" y="610" type="line"/>
      <point x="375" y="610" type="line"/>
      <point x="375" y="545" type="line"/>
    </contour>
  </outline>
</glyph>
<glyph name="uni022D" format="2">
  <advance width="480"/>
  <unicode hex="022D"/>
  <outline>
    <contour>
      <point x="155" y="710" type="line"/>
      <point x="155" y="790" type="line"/>
      <point x="425" y="790" type="line"/>
      <point x="425" y="710" type="line"/>
    </contour>
    <contour>
      <point x="65" y="530" type="line"/>
      <point x="87" y="617"/>
      <point x="126" y="650"/>
      <point x="165" y="650" type="curve" smooth="yes"/>
      <point x="173" y="650"/>
      <point x="181" y="649"/>
      <point x="189" y="648" type="curve"/>
      <point x="237" y="640"/>
      <point x="284" y="610"/>
      <point x="325" y="610" type="curve" smooth="yes"/>
      <point x="343" y="610"/>
      <point x="359" y="618"/>
      <point x="365" y="650" type="curve"/>
      <point x="415" y="650" type="line"/>
      <point x="413" y="636"/>
      <point x="410" y="624"/>
      <point x="407" y="613" type="curve" smooth="yes"/>
      <point x="388" y="548"/>
      <point x="353" y="530"/>
      <point x="325" y="530" type="curve" smooth="yes"/>
      <point x="271" y="530"/>
      <point x="218" y="570"/>
      <point x="165" y="570" type="curve" smooth="yes"/>
      <point x="159" y="570"/>
      <point x="153" y="569"/>
      <point x="146" y="566" type="curve" smooth="yes"/>
      <point x="132" y="560"/>
      <point x="119" y="548"/>
      <point x="115" y="530" type="curve"/>
    </contour>
    <contour>
      <point x="35" y="230" type="curve" smooth="yes"/>
      <point x="35" y="368"/>
      <point x="99" y="470"/>
      <point x="240" y="470" type="curve" smooth="yes"/>
      <point x="380" y="470"/>
      <point x="445" y="370"/>
      <point x="445" y="230" type="curve" smooth="yes"/>
      <point x="445" y="96"/>
      <point x="374" y="-10"/>
      <point x="240" y="-10" type="curve" smooth="yes"/>
      <point x="88" y="-10"/>
      <point x="35" y="102"/>
    </contour>
    <contour>
      <point x="115" y="230" type="curve" smooth="yes"/>
      <point x="115" y="109"/>
      <point x="170" y="55"/>
      <point x="240" y="55" type="curve" smooth="yes"/>
      <point x="312" y="55"/>
      <point x="365" y="105"/>
      <point x="365" y="230" type="curve" smooth="yes"/>
      <point x="365" y="357"/>
      <point x="311" y="405"/>
      <point x="240" y="405" type="curve" smooth="yes"/>
      <point x="169" y="405"/>
      <point x="115" y="357"/>
    </contour>
  </outline>
</glyph>
<glyph name="uni022E" format="2">
  <advance width="660"/>
  <unicode hex="022E"/>
  <outline>
    <contour>
      <point x="50" y="350" type="curve" smooth="yes"/>
      <point x="50" y="560"/>
      <point x="146" y="710"/>
      <point x="328" y="710" type="curve" smooth="yes"/>
      <point x="519" y="710"/>
      <point x="610" y="555"/>
      <point x="610" y="350" type="curve" smooth="yes"/>
      <point x="610" y="141"/>
      <point x="521" y="-10"/>
      <point x="334" y="-10" type="curve" smooth="yes"/>
      <point x="141" y="-10"/>
      <point x="50" y="138"/>
    </contour>
    <contour>
      <point x="140" y="350" type="curve" smooth="yes"/>
      <point x="140" y="200"/>
      <point x="187" y="70"/>
      <point x="328" y="70" type="curve" smooth="yes"/>
      <point x="477" y="70"/>
      <point x="520" y="236"/>
      <point x="520" y="350" type="curve" smooth="yes"/>
      <point x="520" y="503"/>
      <point x="477" y="630"/>
      <point x="328" y="630" type="curve" smooth="yes"/>
      <point x="189" y="630"/>
      <point x="140" y="502"/>
    </contour>
    <contour>
      <point x="290" y="760" type="line"/>
      <point x="290" y="840" type="line"/>
      <point x="370" y="840" type="line"/>
      <point x="370" y="760" type="line"/>
    </contour>
  </outline>
</glyph>
<glyph name="uni0231" format="2">
  <advance width="480"/>
  <unicode hex="0231"/>
  <outline>
    <component base="uni0304" xOffset="425" yOffset="180"/>
    <component base="dotaccent" xOffset="150" yOffset="40"/>
    <component base="uni043E"/>
    <contour>
      <point x="230" y="560" type="line"/>
      <point x="230" y="640" type="line"/>
      <point x="250" y="640" type="line"/>
      <point x="250" y="560" type="line"/>
    </contour>
    <contour>
      <point x="240" y="-10" type="line"/>
      <point x="117" y="-10"/>
      <point x="35" y="87"/>
      <point x="35" y="230" type="curve" smooth="yes"/>
      <point x="35" y="374"/>
      <point x="117" y="470"/>
      <point x="240" y="470" type="curve"/>
      <point x="240" y="450" type="line"/>
      <point x="130" y="450"/>
      <point x="55" y="361"/>
      <point x="55" y="230" type="curve" smooth="yes"/>
      <point x="55" y="98"/>
      <point x="129" y="10"/>
      <point x="240" y="10" type="curve"/>
    </contour>
  </outline>
</glyph>
<glyph name="uni0237" format="2">
  <advance width="220"/>
  <unicode hex="0237"/>
  <anchor x="110" y="520" name="aboveLC"/>
  <outline>
    <contour>
      <point x="-74" y="-90" type="curve"/>
      <point x="-54" y="-90" type="line"/>
      <point x="-54" y="-157"/>
      <point x="-19" y="-182"/>
      <point x="30" y="-182" type="curve" smooth="yes"/>
      <point x="80" y="-182"/>
      <point x="100" y="-148"/>
      <point x="100" y="-84" type="curve" smooth="yes"/>
      <point x="100" y="460" type="line"/>
      <point x="120" y="460" type="line"/>
      <point x="120" y="-66" type="line" smooth="yes"/>
      <point x="120" y="-167"/>
      <point x="96" y="-200"/>
      <point x="25" y="-200" type="curve" smooth="yes"/>
      <point x="-29" y="-200"/>
      <point x="-74" y="-166"/>
    </contour>
  </outline>
</glyph>
<glyph name="obarred" format="2">
  <advance width="530"/>
  <unicode hex="0275"/>
  <anchor x="265" y="530" name="top"/>
  <anchor x="256" y="-40" name="bottom"/>
  <outline>
    <component base="o"/>
    <contour>
      <point x="70" y="234" type="line"/>
      <point x="457" y="234" type="line"/>
      <point x="457" y="252" type="line"/>
      <point x="70" y="252" type="line"/>
    </contour>
  </outline>
</glyph>
<glyph name="uni02C4" format="2">
  <advance width="514"/>
  <unicode hex="02C4"/>
  <outline>
    <contour>
      <point x="16" y="530" type="line"/>
      <point x="86" y="530" type="line"/>
      <point x="250" y="888" type="line"/>
      <point x="414" y="530" type="line"/>
      <point x="486" y="530" type="line"/>
      <point x="286" y="964" type="line"/>
      <point x="216" y="964" type="line"/>
    </contour>
  </outline>
</glyph>
<glyph name="circumflex" format="2">
  <advance width="370"/>
  <unicode hex="02C6"/>
  <outline>
    <contour>
      <point x="60" y="540" type="line"/>
      <point x="78" y="540" type="line"/>
      <point x="192" y="687" type="line"/>
      <point x="178" y="687" type="line"/>
      <point x="292" y="540" type="line"/>
      <point x="310" y="540" type="line"/>
      <point x="196" y="700" type="line"/>
      <point x="175" y="700" type="line"/>
    </contour>
  </outline>
  <guideline angle="90" x="185" y="0"/>
  <guideline angle="0" x="0" y="540"/>
</glyph>
<glyph name="caron" format="2">
  <advance width="340"/>
  <unicode hex="02C7"/>
  <anchor x="170" y="520" name="_top"/>
  <outline>
    <contour>
      <point x="30" y="680" type="line"/>
      <point x="94" y="680" type="line"/>
      <point x="190" y="573" type="line"/>
      <point x="150" y="573" type="line"/>
      <point x="246" y="680" type="line"/>
      <point x="310" y="680" type="line"/>
      <point x="210" y="520" type="line"/>
      <point x="130" y="520" type="line"/>
    </contour>
  </outline>
</glyph>
<glyph name="breve" format="2">
  <advance width="410"/>
  <unicode hex="02D8"/>
  <anchor x="205" y="520" name="_top"/>
  <outline>
    <contour>
      <point x="80" y="660" type="curve"/>
      <point x="100" y="660" type="line"/>
      <point x="100" y="583"/>
      <point x="137" y="540"/>
      <point x="205" y="540" type="curve" smooth="yes"/>
      <point x="277" y="540"/>
      <point x="310" y="578"/>
      <point x="310" y="660" type="curve"/>
      <point x="330" y="660" type="line"/>
      <point x="330" y="565"/>
      <point x="290" y="520"/>
      <point x="205" y="520" type="curve" smooth="yes"/>
      <point x="120" y="520"/>
      <point x="80" y="565"/>
    </contour>
  </outline>
</glyph>
<glyph name="dotaccent" format="2">
  <advance width="180"/>
  <unicode hex="02D9"/>
  <anchor x="90" y="540" name="_top"/>
  <outline>
    <contour>
      <point x="80" y="540" type="line"/>
      <point x="80" y="620" type="line"/>
      <point x="100" y="620" type="line"/>
      <point x="100" y="540" type="line"/>
    </contour>
  </outline>
</glyph>
<glyph name="ring" format="2">
  <advance width="222"/>
  <unicode hex="02DA"/>
  <anchor x="120" y="520" name="_top"/>
  <outline>
    <contour>
      <point x="33" y="619" type="curve" smooth="yes"/>
      <point x="33" y="662"/>
      <point x="68" y="697"/>
      <point x="111" y="697" type="curve" smooth="yes"/>
      <point x="154" y="697"/>
      <point x="189" y="662"/>
      <point x="189" y="619" type="curve" smooth="yes"/>
      <point x="189" y="576"/>
      <point x="154" y="541"/>
      <point x="111" y="541" type="curve" smooth="yes"/>
      <point x="68" y="541"/>
      <point x="33" y="576"/>
    </contour>
    <contour>
      <point x="80" y="619" type="curve" smooth="yes"/>
      <point x="80" y="602"/>
      <point x="94" y="588"/>
      <point x="111" y="588" type="curve" smooth="yes"/>
      <point x="128" y="588"/>
      <point x="142" y="602"/>
      <point x="142" y="619" type="curve" smooth="yes"/>
      <point x="142" y="636"/>
      <point x="128" y="650"/>
      <point x="111" y="650" type="curve" smooth="yes"/>
      <point x="94" y="650"/>
      <point x="80" y="636"/>
    </contour>
  </outline>
</glyph>
<glyph name="ogonek" format="2">
  <advance width="326"/>
  <unicode hex="02DB"/>
  <outline>
    <contour>
      <point x="100" y="-137" type="curve" smooth="yes"/>
      <point x="100" y="-182"/>
      <point x="127" y="-210"/>
      <point x="172" y="-210" type="curve" smooth="yes"/>
      <point x="188" y="-210"/>
      <point x="210" y="-202"/>
      <point x="226" y="-189" type="curve"/>
      <point x="216" y="-172" type="line"/>
      <point x="205" y="-183"/>
      <point x="187" y="-190"/>
      <point x="171" y="-190" type="curve" smooth="yes"/>
      <point x="139" y="-190"/>
      <point x="120" y="-167"/>
      <point x="120" y="-129" type="curve" smooth="yes"/>
      <point x="120" y="-93"/>
      <point x="137" y="-59"/>
      <point x="186" y="0" type="curve"/>
      <point x="172" y="0" type="line"/>
      <point x="121" y="-56"/>
      <point x="100" y="-98"/>
    </contour>
  </outline>
  <guideline angle="90" x="271" y="0"/>
</glyph>
<glyph name="tilde" format="2">
  <advance width="406"/>
  <unicode hex="02DC"/>
  <anchor x="203" y="520" name="_top"/>
  <outline>
    <contour>
      <point x="65" y="580" type="line"/>
      <point x="73" y="626"/>
      <point x="98" y="651"/>
      <point x="136" y="651" type="curve" smooth="yes"/>
      <point x="157" y="651"/>
      <point x="165" y="647"/>
      <point x="192" y="633" type="curve" smooth="yes"/>
      <point x="232" y="612" type="line" smooth="yes"/>
      <point x="249" y="603"/>
      <point x="258" y="600"/>
      <point x="271" y="600" type="curve" smooth="yes"/>
      <point x="293" y="600"/>
      <point x="310" y="618"/>
      <point x="321" y="651" type="curve"/>
      <point x="341" y="651" type="line"/>
      <point x="322" y="600"/>
      <point x="302" y="580"/>
      <point x="271" y="580" type="curve" smooth="yes"/>
      <point x="252" y="580"/>
      <point x="246" y="583"/>
      <point x="212" y="600" type="curve" smooth="yes"/>
      <point x="184" y="614" type="line" smooth="yes"/>
      <point x="159" y="627"/>
      <point x="148" y="631"/>
      <point x="136" y="631" type="curve" smooth="yes"/>
      <point x="110" y="631"/>
      <point x="88" y="611"/>
      <point x="85" y="580" type="curve"/>
    </contour>
  </outline>
</glyph>
<glyph name="hungarumlaut" format="2">
  <advance width="298"/>
  <unicode hex="02DD"/>
  <outline>
    <contour>
      <point x="60" y="540" type="line"/>
      <point x="75" y="540" type="line"/>
      <point x="158" y="700" type="line"/>
      <point x="137" y="700" type="line"/>
    </contour>
    <contour>
      <point x="140" y="540" type="line"/>
      <point x="155" y="540" type="line"/>
      <point x="238" y="700" type="line"/>
      <point x="217" y="700" type="line"/>
    </contour>
  </outline>
  <guideline angle="0" x="0" y="540"/>
</glyph>
<glyph name="gravecomb" format="2">
  <unicode hex="0300"/>
  <anchor x="-212" y="520" name="_top"/>
  <outline>
    <contour>
      <point x="-310" y="680" type="line"/>
      <point x="-230" y="680" type="line"/>
      <point x="-180" y="520" type="line"/>
      <point x="-244" y="520" type="line"/>
    </contour>
  </outline>
</glyph>
<glyph name="uni0303" format="2">
  <unicode hex="0303"/>
  <anchor x="-203" y="530" name="_top"/>
  <outline>
    <contour>
      <point x="-335" y="530" type="curve"/>
      <point x="-315" y="530" type="line"/>
      <point x="-312" y="561"/>
      <point x="-290" y="581"/>
      <point x="-264" y="581" type="curve" smooth="yes"/>
      <point x="-252" y="581"/>
      <point x="-241" y="577"/>
      <point x="-216" y="564" type="curve" smooth="yes"/>
      <point x="-188" y="550" type="line" smooth="yes"/>
      <point x="-154" y="533"/>
      <point x="-148" y="530"/>
      <point x="-129" y="530" type="curve" smooth="yes"/>
      <point x="-98" y="530"/>
      <point x="-78" y="550"/>
      <point x="-59" y="601" type="curve"/>
      <point x="-79" y="601" type="line"/>
      <point x="-90" y="568"/>
      <point x="-107" y="550"/>
      <point x="-129" y="550" type="curve" smooth="yes"/>
      <point x="-142" y="550"/>
      <point x="-151" y="553"/>
      <point x="-168" y="562" type="curve" smooth="yes"/>
      <point x="-208" y="583" type="line" smooth="yes"/>
      <point x="-235" y="597"/>
      <point x="-243" y="601"/>
      <point x="-264" y="601" type="curve" smooth="yes"/>
      <point x="-302" y="601"/>
      <point x="-327" y="576"/>
    </contour>
  </outline>
  <guideline angle="0" x="0" y="530"/>
</glyph>
<glyph name="uni030A" format="2">
  <unicode hex="030A"/>
  <outline>
    <contour>
      <point x="-77" y="619" type="curve" smooth="yes"/>
      <point x="-77" y="662"/>
      <point x="-42" y="697"/>
      <point x="1" y="697" type="curve" smooth="yes"/>
      <point x="44" y="697"/>
      <point x="79" y="662"/>
      <point x="79" y="619" type="curve" smooth="yes"/>
      <point x="79" y="576"/>
      <point x="44" y="541"/>
      <point x="1" y="541" type="curve" smooth="yes"/>
      <point x="-42" y="541"/>
      <point x="-77" y="576"/>
    </contour>
    <contour>
      <point x="-30" y="619" type="curve" smooth="yes"/>
      <point x="-30" y="602"/>
      <point x="-16" y="588"/>
      <point x="1" y="588" type="curve" smooth="yes"/>
      <point x="18" y="588"/>
      <point x="32" y="602"/>
      <point x="32" y="619" type="curve" smooth="yes"/>
      <point x="32" y="636"/>
      <point x="18" y="650"/>
      <point x="1" y="650" type="curve" smooth="yes"/>
      <point x="-16" y="650"/>
      <point x="-30" y="636"/>
    </contour>
  </outline>
</glyph>
<glyph name="caroncomb" format="2">
  <unicode hex="030C"/>
  <anchor x="-220" y="520" name="_top"/>
  <outline>
    <contour>
      <point x="-360" y="680" type="line"/>
      <point x="-296" y="680" type="line"/>
      <point x="-200" y="573" type="line"/>
      <point x="-240" y="573" type="line"/>
      <point x="-144" y="680" type="line"/>
      <point x="-80" y="680" type="line"/>
      <point x="-180" y="520" type="line"/>
      <point x="-260" y="520" type="line"/>
    </contour>
  </outline>
</glyph>
<glyph name="uni0311" format="2">
  <unicode hex="0311"/>
  <anchor x="-205" y="520" name="_top"/>
  <outline>
    <contour>
      <point x="-330" y="520" type="line"/>
      <point x="-330" y="615"/>
      <point x="-290" y="660"/>
      <point x="-205" y="660" type="curve" smooth="yes"/>
      <point x="-120" y="660"/>
      <point x="-80" y="615"/>
      <point x="-80" y="520" type="curve"/>
      <point x="-100" y="520" type="line"/>
      <point x="-100" y="602"/>
      <point x="-133" y="640"/>
      <point x="-205" y="640" type="curve" smooth="yes"/>
      <point x="-273" y="640"/>
      <point x="-310" y="597"/>
      <point x="-310" y="520" type="curve"/>
    </contour>
  </outline>
</glyph>
<glyph name="uni0312" format="2">
  <advance width="180"/>
  <unicode hex="0312"/>
  <outline>
    <contour>
      <point x="50" y="490" type="line"/>
      <point x="50" y="570" type="line"/>
      <point x="96" y="700" type="line"/>
      <point x="130" y="700" type="line"/>
      <point x="108" y="570" type="line"/>
      <point x="130" y="570" type="line"/>
      <point x="130" y="490" type="line"/>
    </contour>
  </outline>
</glyph>
<glyph name="uni0315" format="2">
  <advance width="180"/>
  <unicode hex="0315"/>
  <outline>
    <contour>
      <point x="50" y="490" type="line"/>
      <point x="72" y="620" type="line"/>
      <point x="50" y="620" type="line"/>
      <point x="50" y="700" type="line"/>
      <point x="130" y="700" type="line"/>
      <point x="130" y="620" type="line"/>
      <point x="84" y="490" type="line"/>
    </contour>
  </outline>
</glyph>
<glyph name="uni0326" format="2">
  <unicode hex="0326"/>
  <anchor x="-90" y="-60" name="_bottom"/>
  <outline>
    <contour>
      <point x="-130" y="-60" type="line"/>
      <point x="-50" y="-60" type="line"/>
      <point x="-50" y="-140" type="line"/>
      <point x="-96" y="-270" type="line"/>
      <point x="-130" y="-270" type="line"/>
      <point x="-108" y="-140" type="line"/>
      <point x="-130" y="-140" type="line"/>
    </contour>
  </outline>
</glyph>
<glyph name="uni032D" format="2">
  <unicode hex="032D"/>
  <anchor x="-255" y="-40" name="_bottom"/>
  <outline>
    <contour>
      <point x="-380" y="-200" type="line"/>
      <point x="-365" y="-200" type="line"/>
      <point x="-248" y="-53" type="line"/>
      <point x="-262" y="-53" type="line"/>
      <point x="-145" y="-200" type="line"/>
      <point x="-130" y="-200" type="line"/>
      <point x="-244" y="-40" type="line"/>
      <point x="-265" y="-40" type="line"/>
    </contour>
  </outline>
  <guideline angle="90" x="-255" y="0"/>
</glyph>
<glyph name="uni0403" format="2">
  <advance width="580"/>
  <unicode hex="0403"/>
  <outline>
    <contour>
      <point x="223" y="770" type="line"/>
      <point x="273" y="950" type="line"/>
      <point x="353" y="950" type="line"/>
      <point x="287" y="770" type="line"/>
    </contour>
    <contour>
      <point x="50" y="0" type="line"/>
      <point x="50" y="700" type="line"/>
      <point x="460" y="700" type="line"/>
      <point x="460" y="620" type="line"/>
      <point x="140" y="620" type="line"/>
      <point x="140" y="0" type="line"/>
    </contour>
  </outline>
</glyph>
<glyph name="uni040A" format="2">
  <advance width="950"/>
  <unicode hex="040A"/>
  <outline>
    <contour>
      <point x="510" y="80" type="line"/>
      <point x="635" y="80" type="line" smooth="yes"/>
      <point x="784" y="80"/>
      <point x="810" y="131"/>
      <point x="810" y="205" type="curve" smooth="yes"/>
      <point x="810" y="273"/>
      <point x="780" y="322"/>
      <point x="635" y="322" type="curve" smooth="yes"/>
      <point x="510" y="322" type="line"/>
    </contour>
    <contour>
      <point x="50" y="0" type="line"/>
      <point x="50" y="700" type="line"/>
      <point x="140" y="700" type="line"/>
      <point x="140" y="397" type="line"/>
      <point x="420" y="397" type="line"/>
      <point x="420" y="700" type="line"/>
      <point x="510" y="700" type="line"/>
      <point x="510" y="402" type="line"/>
      <point x="635" y="402" type="line" smooth="yes"/>
      <point x="830" y="402"/>
      <point x="900" y="355"/>
      <point x="900" y="205" type="curve" smooth="yes"/>
      <point x="900" y="37"/>
      <point x="831" y="0"/>
      <point x="563" y="0" type="curve" smooth="yes"/>
      <point x="420" y="0" type="line"/>
      <point x="420" y="317" type="line"/>
      <point x="140" y="317" type="line"/>
      <point x="140" y="0" type="line"/>
    </contour>
  </outline>
</glyph>
<glyph name="uni040B" format="2">
  <advance width="661"/>
  <unicode hex="040B"/>
  <outline>
    <component base="T"/>
    <contour>
      <point x="238" y="297" type="line"/>
      <point x="251" y="297" type="line"/>
      <point x="251" y="373"/>
      <point x="329" y="450"/>
      <point x="411" y="450" type="curve" smooth="yes"/>
      <point x="491" y="450"/>
      <point x="551" y="398"/>
      <point x="551" y="315" type="curve" smooth="yes"/>
      <point x="551" y="0" type="line"/>
      <point x="571" y="0" type="line"/>
      <point x="571" y="315" type="line" smooth="yes"/>
      <point x="571" y="407"/>
      <point x="504" y="468"/>
      <point x="418" y="468" type="curve" smooth="yes"/>
      <point x="337" y="468"/>
      <point x="269" y="419"/>
      <point x="244" y="342" type="curve"/>
      <point x="255" y="342" type="line"/>
      <point x="255" y="365" type="line"/>
      <point x="238" y="365" type="line"/>
    </contour>
  </outline>
</glyph>
<glyph name="uni040F" format="2">
  <advance width="642"/>
  <unicode hex="040F"/>
  <outline>
    <contour>
      <point x="100" y="0" type="line"/>
      <point x="542" y="0" type="line"/>
      <point x="542" y="680" type="line"/>
      <point x="520" y="680" type="line"/>
      <point x="520" y="20" type="line"/>
      <point x="122" y="20" type="line"/>
      <point x="122" y="680" type="line"/>
      <point x="100" y="680" type="line"/>
    </contour>
    <contour>
      <point x="310" y="-140" type="line"/>
      <point x="332" y="-140" type="line"/>
      <point x="332" y="15" type="line"/>
      <point x="310" y="15" type="line"/>
    </contour>
  </outline>
  <guideline angle="90" x="321" y="0"/>
</glyph>
<glyph name="uni0411" format="2">
  <advance width="580"/>
  <unicode hex="0411"/>
  <outline>
    <contour>
      <point x="95" y="0" type="line"/>
      <point x="265" y="0" type="line" smooth="yes"/>
      <point x="400" y="0"/>
      <point x="496" y="70"/>
      <point x="496" y="205" type="curve" smooth="yes"/>
      <point x="496" y="355"/>
      <point x="330" y="372"/>
      <point x="265" y="372" type="curve" smooth="yes"/>
      <point x="95" y="372" type="line"/>
      <point x="95" y="352" type="line"/>
      <point x="265" y="352" type="line" smooth="yes"/>
      <point x="426" y="352"/>
      <point x="474" y="281"/>
      <point x="474" y="205" type="curve" smooth="yes"/>
      <point x="474" y="128"/>
      <point x="430" y="20"/>
      <point x="265" y="20" type="curve" smooth="yes"/>
      <point x="95" y="20" type="line"/>
    </contour>
    <contour>
      <point x="84" y="0" type="line"/>
      <point x="106" y="0" type="line"/>
      <point x="106" y="680" type="line"/>
      <point x="84" y="680" type="line"/>
    </contour>
    <contour>
      <point x="95" y="660" type="line"/>
      <point x="460" y="660" type="line"/>
      <point x="460" y="680" type="line"/>
      <point x="95" y="680" type="line"/>
    </contour>
  </outline>
  <guideline angle="90" x="95" y="0"/>
</glyph>
<glyph name="uni0414" format="2">
  <advance width="700"/>
  <unicode hex="0414"/>
  <outline>
    <contour>
      <point x="54" y="0" type="line"/>
      <point x="125" y="0"/>
      <point x="175" y="37"/>
      <point x="178" y="107" type="curve" smooth="yes"/>
      <point x="200" y="680" type="line"/>
      <point x="178" y="680" type="line"/>
      <point x="155" y="99" type="line" smooth="yes"/>
      <point x="153" y="53"/>
      <point x="104" y="20"/>
      <point x="54" y="20" type="curve"/>
    </contour>
    <contour>
      <point x="551" y="0" type="line"/>
      <point x="573" y="0" type="line"/>
      <point x="573" y="680" type="line"/>
      <point x="551" y="680" type="line"/>
    </contour>
    <contour>
      <point x="190" y="660" type="line"/>
      <point x="561" y="660" type="line"/>
      <point x="561" y="680" type="line"/>
      <point x="190" y="680" type="line"/>
    </contour>
    <contour>
      <point x="30" y="-150" type="line"/>
      <point x="52" y="-150" type="line"/>
      <point x="52" y="0" type="line"/>
      <point x="648" y="0" type="line"/>
      <point x="648" y="-150" type="line"/>
      <point x="670" y="-150" type="line"/>
      <point x="670" y="20" type="line"/>
      <point x="30" y="20" type="line"/>
    </contour>
  </outline>
</glyph>
<glyph name="uni0416" format="2">
  <advance width="930"/>
  <unicode hex="0416"/>
  <outline>
    <contour>
      <point x="189" y="0" type="line"/>
      <point x="403" y="357" type="line"/>
      <point x="229" y="680" type="line"/>
      <point x="249" y="680" type="line"/>
      <point x="419" y="368" type="line"/>
      <point x="458" y="348" type="line"/>
      <point x="458" y="680" type="line"/>
      <point x="478" y="680" type="line"/>
      <point x="478" y="348" type="line"/>
      <point x="517" y="368" type="line"/>
      <point x="687" y="680" type="line"/>
      <point x="707" y="680" type="line"/>
      <point x="532" y="357" type="line"/>
      <point x="747" y="0" type="line"/>
      <point x="727" y="0" type="line"/>
      <point x="517" y="346" type="line"/>
      <point x="478" y="326" type="line"/>
      <point x="478" y="0" type="line"/>
      <point x="458" y="0" type="line"/>
      <point x="458" y="326" type="line"/>
      <point x="419" y="346" type="line"/>
      <point x="209" y="0" type="line"/>
    </contour>
  </outline>
</glyph>
